<svg width="639" height="227" viewBox="0 0 639 227" fill="none" xmlns="http://www.w3.org/2000/svg">
<g clip-path="url(#clip0)">
<path d="M497.467 80.6866L488.471 134.943C484.773 135.442 481.075 136.539 477.676 138.235C469.68 142.224 464.582 147.211 461.684 151.001C460.184 136.539 469.28 112.104 471.279 106.518C476.677 91.4582 484.973 81.9832 497.467 80.6866Z" fill="#2E7D83"/>
<path d="M569.432 207.152L488.37 209.446V227H569.932L569.432 207.152Z" fill="#F26188"/>
<path d="M576.629 117.39C576.629 117.39 567.833 162.271 570.432 193.987C570.532 195.483 571.731 208.349 570.832 208.948C533.849 230.89 487.171 208.748 487.171 208.748C487.771 201.467 489.37 171.547 489.47 164.465C489.47 162.67 488.67 148.308 488.57 148.009C487.271 136.739 485.072 125.468 485.572 114.098C485.971 103.327 489.47 92.9543 494.168 83.3796C494.967 81.6841 495.567 80.7865 495.567 80.7865L500.065 80.3875H500.465C512.459 79.1907 524.453 78.0936 536.448 78.1933C547.742 78.2931 560.337 78.9912 571.131 82.3823H571.231C576.129 91.558 576.629 117.39 576.629 117.39Z" fill="#2E7D83"/>
<path d="M571.131 82.482L566.833 122.177C574.629 141.326 583.525 173.94 583.525 173.94L601.017 172.644C605.015 133.547 579.927 82.1828 571.131 82.482Z" fill="#2E7D83"/>
<path d="M541.945 83.4793C541.945 84.6762 541.845 86.3717 541.445 88.2667C540.446 94.0514 537.947 96.3453 534.748 97.0435C527.552 98.8387 520.555 93.054 520.455 85.5738L520.155 59.6424C520.155 55.4534 523.454 51.9627 527.752 51.8629L533.949 51.7632C535.948 51.7632 537.847 52.5611 539.246 53.7579C540.746 55.1542 541.645 57.1489 541.745 59.3431L541.945 83.4793Z" fill="#F6BAB9"/>
<path opacity="0.5" d="M541.945 83.4792C541.645 83.4792 541.345 83.4792 541.145 83.4792C531.55 82.9806 524.053 74.7024 523.954 65.028L523.854 60.1409C523.854 56.7499 527.252 53.8575 531.45 53.8575L537.647 53.7578C538.147 53.7578 538.747 53.7578 539.246 53.8575C540.746 55.2539 541.645 57.2486 541.745 59.4428L541.945 83.4792Z" fill="#F6BAB9"/>
<path d="M561.236 47.3748C560.037 52.6608 556.139 54.4561 552.441 55.5532H552.341C550.641 59.1437 548.242 62.6344 545.444 65.5268C542.545 69.0176 538.747 71.6107 534.449 72.7078C534.349 72.7078 534.149 72.8076 534.049 72.8076C533.749 72.9073 533.549 72.9073 533.349 73.007C533.15 73.007 533.05 73.007 532.85 73.1068C532.65 73.1068 532.55 73.1068 532.45 73.1068C532.15 73.1068 531.75 73.2065 531.45 73.2065C531.151 73.2065 530.751 73.2065 530.451 73.2065C530.351 73.2065 530.151 73.2065 530.051 73.2065C529.851 73.2065 529.751 73.2065 529.551 73.2065C529.251 73.2065 529.051 73.1068 528.752 73.007C528.652 73.007 528.452 72.9073 528.352 72.9073C523.954 71.9099 520.156 69.4165 517.157 65.9257C514.258 63.0334 511.86 59.6423 510.06 56.0518C509.96 56.0518 509.761 55.9521 509.661 55.9521C505.962 54.9547 502.164 53.2592 500.865 48.0729C499.865 43.884 500.965 38.2988 504.463 37.8998C505.463 37.8001 506.762 38.199 507.861 38.8972C509.361 31.8159 512.959 24.2359 517.557 19.0496C519.456 16.4565 521.655 14.761 524.054 13.7636C525.353 13.0655 526.653 12.6665 527.952 12.5668C528.852 12.467 529.751 12.467 530.651 12.467C531.55 12.467 532.45 12.467 533.349 12.5668C534.649 12.6665 535.948 13.0655 537.348 13.6639C539.746 14.6612 542.045 16.257 543.944 18.8502C548.642 23.9367 552.44 31.417 554.04 38.4982C555.239 37.8001 556.439 37.4011 557.438 37.5009C561.036 37.6006 562.236 43.1858 561.236 47.3748Z" fill="#F6BAB9"/>
<path d="M519.056 41.2909C518.956 41.2909 518.956 41.2909 518.856 41.2909C519.756 38.8972 521.855 37.1019 524.354 36.6032C524.754 36.5035 525.153 36.5035 525.553 36.6032C525.953 36.703 526.253 37.1019 526.253 37.5009C526.253 37.8998 525.853 38.2988 525.453 38.4982C524.654 38.8972 523.754 39.0967 522.855 39.2961C521.955 39.4956 521.055 39.6951 520.256 40.1938C519.756 40.3932 519.356 40.7922 519.056 41.2909Z" fill="#0E0900"/>
<path d="M538.747 35.905C539.147 35.8053 539.547 35.8053 539.946 35.8053C542.545 36.2042 544.844 38.199 545.744 40.5926C545.544 40.2934 545.244 39.8945 544.944 39.695C544.944 39.695 544.944 39.695 544.844 39.695C544.644 39.4955 544.444 39.3958 544.244 39.2961C543.445 38.7974 542.545 38.5979 541.646 38.4982C540.746 38.2987 539.846 38.199 539.047 37.8C538.647 37.6006 538.247 37.3013 538.147 36.9024C538.047 36.4037 538.347 36.0048 538.747 35.905Z" fill="#0E0900"/>
<path opacity="0.5" d="M525.653 57.4481C528.051 59.5425 531.55 60.2407 534.648 59.3431C535.548 59.0439 535.848 60.4402 535.048 60.7394C531.45 61.7367 527.452 60.8391 524.653 58.4454C523.953 57.847 525.053 56.8497 525.653 57.4481Z" fill="#F6BAB9"/>
<path opacity="0.5" d="M532.549 53.8576C533.349 53.9574 534.149 53.9574 534.948 53.7579C535.348 53.6582 535.748 53.4587 536.048 53.2592C536.148 53.2592 536.248 53.1595 536.248 53.0598C536.248 53.1595 536.248 53.0598 536.248 53.0598C536.248 52.8603 536.048 52.5611 535.948 52.4613C535.248 50.7658 534.349 49.17 533.249 47.5743C533.049 47.275 533.049 46.8761 533.349 46.5769C533.649 46.3774 534.149 46.3774 534.349 46.6766C534.948 47.674 535.648 48.6713 536.148 49.6687C536.448 50.1674 536.647 50.6661 536.847 51.1648C537.047 51.6634 537.347 52.2619 537.547 52.7605C537.847 53.9574 536.548 54.7553 535.648 55.0545C534.648 55.4534 533.449 55.5532 532.35 55.3537C531.95 55.2539 531.65 54.9547 531.75 54.5558C531.75 54.1569 532.15 53.8576 532.549 53.8576Z" fill="#F6BAB9"/>
<path d="M522.654 45.1805C522.754 46.4771 523.554 47.5742 524.453 47.4744C525.353 47.4744 526.052 46.3773 525.952 44.981C525.853 43.6845 525.053 42.5874 524.153 42.6871C523.254 42.7868 522.554 43.8839 522.654 45.1805Z" fill="#0E0900"/>
<path d="M538.947 45.1805C539.047 46.4771 539.847 47.5742 540.746 47.4744C541.646 47.4744 542.345 46.3773 542.245 44.981C542.145 43.6845 541.346 42.5874 540.446 42.6871C539.547 42.7868 538.847 43.8839 538.947 45.1805Z" fill="#0E0900"/>
<path d="M500.765 43.1858C500.665 42.7869 500.565 42.4877 500.465 42.0887C500.365 42.4877 500.465 42.8866 500.765 43.1858Z" fill="#0E0900"/>
<path d="M555.939 49.4693C555.939 47.1754 556.638 44.8815 557.138 42.6873C558.737 36.2044 559.337 29.4223 557.538 23.0392C555.739 16.6561 551.241 10.7716 544.944 8.57742C546.443 8.27821 547.842 7.08137 548.242 5.58533C545.344 7.77953 541.046 6.78216 537.847 4.98691C534.649 3.19165 531.65 0.797979 528.052 0.199561C524.054 -0.498594 520.055 1.29666 516.757 3.79007C515.258 4.98691 513.758 6.28348 512.959 8.07874C512.559 8.87663 512.359 9.67452 512.359 10.4724C509.76 12.2677 507.561 14.3621 505.662 16.8555C500.265 23.9368 498.366 33.5115 500.465 42.1886C500.565 41.1912 501.664 40.1938 502.764 40.1938C504.263 40.2936 505.462 41.6899 505.962 43.1859C506.462 44.682 506.362 46.2778 506.662 47.7738C507.261 51.2646 509.56 54.4562 512.759 56.1517C512.259 54.2567 512.059 52.1622 512.359 50.1675C512.859 51.7633 514.658 52.7606 516.157 52.262C513.559 49.3696 513.559 44.7817 515.258 41.291C516.957 37.8002 519.856 35.1073 522.754 32.4144C525.553 29.7215 528.452 26.9289 529.951 23.3384C529.651 26.8292 531.05 30.4197 533.749 32.7136C533.749 29.6218 534.149 26.53 535.048 23.5379C535.748 26.7294 537.847 29.3226 540.146 31.6165C542.445 33.9105 544.844 36.1047 546.343 38.997C547.842 41.8894 548.042 45.6794 545.843 48.073C547.243 48.2725 548.542 46.9759 548.442 45.5796C549.142 47.7738 549.941 49.968 549.941 52.262C549.941 54.5559 549.042 56.9496 547.043 58.2461C549.842 59.1438 553.24 57.149 553.84 54.3564C555.339 55.254 557.038 55.653 558.637 55.5533C556.838 54.1569 556.039 51.7633 555.939 49.4693Z" fill="#F26188"/>
<path d="M483.373 70.3149C483.573 70.3149 483.573 70.0149 483.373 70.0149C483.173 70.0149 483.173 70.3149 483.373 70.3149Z" fill="#EFE9D6"/>
<path d="M475.977 76.5974C469.38 72.4085 461.083 71.3114 453.587 73.4059C452.987 73.6054 452.388 73.9046 451.988 74.2038C451.788 74.104 451.588 74.2038 451.488 74.4032C451.288 74.7025 451.188 74.9019 451.088 75.2011C450.888 75.5003 450.688 75.7996 450.588 76.1985C448.389 80.4872 447.39 85.3742 447.69 90.1616C447.79 91.4582 447.79 92.8545 448.289 94.0513C448.689 95.1484 449.989 95.5474 451.088 95.1484C452.188 94.7495 453.287 93.8518 454.187 93.0539C455.186 92.2561 456.086 91.3584 456.885 90.3611C457.285 89.9621 457.585 89.4634 457.885 89.0645C461.083 91.3584 464.882 92.7547 468.78 93.0539L475.977 76.5974Z" fill="#0E0900"/>
<path d="M506.762 68.818C505.663 66.2249 504.263 63.7315 502.664 61.5373C500.865 59.0438 498.766 56.9494 496.067 55.3536C495.867 55.2539 495.667 55.2539 495.467 55.4533C494.868 55.4533 494.268 55.5531 493.768 55.8523C488.171 59.1436 484.073 65.1278 483.373 71.6106L499.565 80.7864C500.765 77.7943 501.465 74.6027 501.564 71.4112C502.564 72.1093 503.664 72.7077 504.763 73.1067C505.763 73.5056 507.262 73.5056 507.662 72.209C507.961 71.1119 507.162 69.8154 506.762 68.818Z" fill="#0E0900"/>
<path d="M609.714 174.539C609.714 174.539 601.518 178.927 595.121 177.83C592.822 177.431 590.423 178.229 588.824 180.024C570.532 199.672 549.942 208.349 523.355 197.578C523.355 197.578 486.872 176.134 469.68 137.536C469.68 137.536 463.982 129.857 470.28 114.797L511.06 101.831C511.06 101.831 515.458 95.7469 528.852 110.508C528.852 110.508 529.552 110.707 530.551 110.608C532.45 110.408 535.549 109.311 537.048 104.224C537.048 104.224 545.044 87.9674 556.939 105.022C556.939 105.022 569.833 121.08 568.134 129.956C567.634 132.649 564.835 134.445 562.136 134.046C558.338 133.347 552.141 129.956 546.444 116.592C546.444 116.592 547.243 126.366 541.146 127.962C539.647 128.361 537.648 128.261 535.249 127.363C535.749 127.663 550.542 137.836 552.441 150.702C552.441 150.702 570.532 129.757 591.423 160.775C591.423 160.775 597.22 169.153 612.313 162.072C612.313 162.072 634.802 145.715 639 154.891C638.9 154.591 642.299 166.959 609.714 174.539Z" fill="#0E0900"/>
<path d="M549.841 148.507C546.143 141.426 543.644 132.849 536.548 129.158C533.849 127.762 530.75 127.263 528.252 125.668C524.853 123.573 523.054 119.883 520.955 116.392C520.555 119.285 519.356 122.077 517.657 124.471C517.457 124.67 517.057 124.87 516.857 124.571C515.058 122.476 513.059 120.681 510.76 119.285C511.359 121.379 511.359 123.573 510.36 125.568C510.26 125.767 509.96 125.867 509.76 125.767C506.362 124.67 502.963 123.673 499.465 123.274C499.965 123.573 500.365 123.872 500.664 124.271C500.864 124.571 500.864 125.069 500.465 125.069C498.166 125.368 495.967 125.967 493.768 126.366C492.168 126.665 490.569 126.765 488.87 126.865C488.37 126.865 487.97 126.865 487.471 126.964C497.966 130.455 507.361 138.534 518.356 137.836C520.455 137.736 522.554 137.237 524.653 137.636C526.752 138.035 528.751 139.731 528.751 141.825C528.751 144.119 526.452 145.515 524.453 146.612C521.455 148.208 518.456 149.904 515.458 151.499C512.859 152.896 509.96 154.89 509.96 157.683C509.96 157.883 509.96 157.982 509.96 158.182C509.96 158.381 509.96 158.481 510.06 158.68C518.856 158.082 527.652 157.085 536.448 155.589C538.147 160.575 540.346 165.363 542.845 169.951C545.144 174.14 547.742 178.528 552.04 181.121C553.54 182.019 555.139 182.717 556.838 182.916C557.238 182.617 557.538 182.418 557.938 182.119C560.337 180.124 562.436 177.73 564.734 175.536C567.933 172.544 572.231 170.05 576.529 170.948C565.034 167.258 555.339 158.98 549.841 148.507Z" fill="white"/>
<path d="M556.938 104.823C545.044 87.768 537.048 104.025 537.048 104.025C535.448 109.012 532.45 110.209 530.551 110.408C530.751 114.298 532.45 118.188 534.849 121.279C536.648 123.673 538.847 125.668 541.146 127.663C547.243 126.067 546.443 116.293 546.443 116.293C552.141 129.657 558.338 133.048 562.136 133.746C562.836 133.846 563.535 133.846 564.235 133.647C564.535 133.547 564.835 133.447 565.135 133.347C565.834 133.048 566.534 132.55 567.034 131.951C567.333 131.652 567.533 131.353 567.733 130.954C567.933 130.555 568.133 130.056 568.233 129.558C569.832 120.88 556.938 104.823 556.938 104.823Z" fill="white"/>
<path d="M565.134 133.447C564.834 133.547 564.535 133.647 564.235 133.746C562.436 129.258 559.937 125.069 556.838 121.279C556.438 120.781 557.138 120.182 557.538 120.581C560.636 124.471 563.235 128.76 565.134 133.447Z" fill="white"/>
<path d="M567.634 131.053C567.434 131.452 567.234 131.752 566.934 132.051C565.834 128.361 564.035 124.87 561.536 121.878C561.137 121.379 561.836 120.781 562.236 121.18C564.735 124.172 566.534 127.463 567.634 131.053Z" fill="white"/>
<path d="M614.112 178.927C613.512 174.339 609.914 170.35 605.516 168.754C601.118 167.158 596.121 167.657 591.823 169.552C587.525 171.447 583.926 174.638 580.928 178.129L585.825 181.52C588.624 178.628 592.522 176.833 596.52 176.733C598.719 176.633 601.018 177.132 602.817 178.428C604.617 179.825 605.616 182.119 605.916 184.413C606.416 188.003 605.516 191.693 603.317 194.586C606.416 193.09 609.214 191.095 611.214 188.302C613.412 185.709 614.512 182.318 614.112 178.927Z" fill="white"/>
<path d="M505.963 109.51C505.963 109.51 496.367 125.169 476.077 119.983C476.077 119.983 470.379 119.783 468.38 112.602C467.78 110.308 466.881 108.014 465.881 105.82C465.582 105.122 465.282 104.324 464.882 103.427C465.082 103.726 465.582 103.825 465.781 103.327C466.481 101.93 467.381 100.135 469.08 99.836C470.879 99.5368 471.379 101.432 471.879 102.828C472.778 105.621 474.777 108.014 477.576 109.211C478.276 112.901 479.375 117.09 483.173 118.786C484.673 119.484 486.372 119.484 487.871 118.686C488.971 118.088 489.77 117.19 490.17 116.093C493.069 118.088 497.067 116.991 498.966 114.098C501.365 110.608 500.565 106.219 498.666 102.629C500.265 100.434 501.165 97.8413 501.065 95.1484C501.065 93.7521 500.865 92.1563 502.164 91.159C503.464 90.1616 505.263 90.4608 506.662 90.76V90.8597C507.262 92.1563 508.062 93.3532 508.861 94.55C510.86 97.2429 513.659 103.227 505.963 109.51Z" fill="#0E0900"/>
<path d="M506.762 90.8597C505.263 90.5605 503.564 90.2613 502.264 91.2587C501.065 92.1563 501.165 93.8518 501.165 95.2481C501.165 97.941 500.365 100.534 498.766 102.728C500.665 106.219 501.465 110.707 499.066 114.198C497.067 116.991 493.169 118.187 490.27 116.193C489.87 117.29 489.07 118.187 487.971 118.786C486.472 119.584 484.772 119.584 483.273 118.886C479.575 117.19 478.475 113.001 477.676 109.311C474.977 108.014 472.978 105.72 471.979 102.928C471.479 101.532 470.979 99.6365 469.18 99.9357C467.381 100.235 466.581 101.93 465.881 103.427C465.681 103.825 465.182 103.726 464.982 103.526C464.982 103.327 464.882 103.227 464.782 103.028C463.383 98.6392 462.483 91.8571 466.681 81.684C466.681 81.684 469.879 73.9045 480.375 71.2117C484.373 70.2143 488.671 70.8127 492.169 73.0069C496.167 75.5003 501.265 80.3874 506.062 89.7626C506.262 89.9621 506.462 90.4608 506.762 90.8597Z" fill="white"/>
<path d="M559.038 182.318C547.543 185.809 537.048 155.589 537.048 155.589L521.255 157.484C517.957 158.182 514.559 158.182 510.96 157.783C510.46 157.384 509.961 156.885 509.461 156.387C512.959 156.387 516.358 155.489 519.456 153.793C516.758 153.095 514.259 151.699 512.36 149.704C514.459 149.904 516.558 149.305 518.357 148.208C518.157 147.41 517.357 146.912 516.658 146.612C515.858 146.313 515.058 146.213 514.459 145.715C513.859 145.216 513.559 144.119 514.159 143.62C514.459 143.321 514.958 143.221 515.458 143.221C518.557 142.922 521.555 142.723 524.654 142.423C522.655 141.227 520.656 140.03 518.657 138.833C520.356 138.633 521.955 138.334 523.654 137.836L535.149 138.235C542.445 137.736 544.744 141.526 544.744 141.526L560.437 166.161C569.233 181.221 559.038 182.318 559.038 182.318Z" fill="white"/>
<path d="M614.911 140.728C612.812 141.825 611.813 144.019 611.413 145.416C611.213 146.014 611.213 146.712 611.213 147.41C611.613 153.295 609.813 154.691 609.813 154.691C601.417 144.219 586.325 160.675 586.225 160.974L587.324 173.242C593.621 175.337 601.517 172.743 607.315 170.05C613.112 167.358 617.91 162.77 620.608 157.085C623.307 151.4 623.407 147.41 622.707 144.817C621.908 141.227 618.11 139.132 614.911 140.728Z" fill="#0E0900"/>
<path d="M494.068 107.117C494.968 109.311 493.568 113.3 490.47 114.497C487.371 115.694 483.673 113.699 482.773 111.505C481.874 109.311 484.273 107.815 487.371 106.618C490.47 105.321 493.268 104.923 494.068 107.117Z" fill="#0E0900"/>
<path d="M478.076 95.4477C478.176 95.0487 478.076 94.4503 477.976 94.0514C477.776 93.4529 477.576 92.8545 477.176 92.3558C476.976 92.0566 476.776 91.7574 476.477 91.558C476.177 91.3585 475.677 91.2587 475.377 91.4582C474.977 91.6577 474.777 92.0566 474.777 92.4556C474.777 92.7548 474.877 93.1537 474.877 93.4529C474.977 94.0514 475.177 94.6498 475.477 95.1485C475.877 95.7469 476.477 96.445 477.276 96.2456C477.776 96.1458 478.076 95.8466 478.076 95.4477Z" fill="#0E0900"/>
<path d="M492.369 90.9595C492.469 90.5606 492.369 89.9622 492.269 89.5632C492.069 88.9648 491.869 88.3664 491.469 87.8677C491.269 87.5685 491.069 87.2693 490.77 87.0698C490.47 86.8703 489.97 86.7706 489.67 86.9701C489.27 87.1695 489.07 87.5685 489.07 87.9674C489.07 88.2666 489.17 88.6656 489.17 88.9648C489.27 89.5632 489.47 90.1616 489.77 90.6603C490.17 91.2587 490.77 91.9569 491.569 91.7574C491.969 91.6577 492.269 91.3585 492.369 90.9595Z" fill="#0E0900"/>
<path d="M519.456 153.893C516.357 155.489 512.959 156.386 509.46 156.486C509.96 156.985 510.46 157.384 510.96 157.883C498.865 156.486 485.871 149.804 478.175 145.216C472.478 141.825 468.879 135.442 469.479 128.859C470.079 122.975 473.577 120.282 480.174 120.581C484.572 120.781 488.77 122.576 492.268 125.269L508.061 137.636L523.354 138.135C521.755 138.633 520.055 138.933 518.356 139.132C520.355 140.329 522.354 141.526 524.353 142.723C521.255 143.022 518.256 143.221 515.158 143.52C514.758 143.52 514.258 143.62 513.858 143.919C513.259 144.418 513.558 145.515 514.158 146.014C514.758 146.513 515.657 146.712 516.357 146.912C517.157 147.211 517.856 147.709 518.056 148.507C516.257 149.604 514.158 150.203 512.059 150.003C514.258 151.799 516.757 153.195 519.456 153.893Z" fill="#0E0900"/>
<path d="M492.868 82.5817C491.869 81.4846 490.269 80.9859 488.77 81.2851C487.371 81.4846 486.171 82.4819 485.571 83.7785C485.472 83.978 485.472 84.2772 485.771 84.4767C485.971 84.5764 486.371 84.5764 486.471 84.2772C486.971 83.2798 487.87 82.4819 488.97 82.2825C490.169 82.083 491.369 82.4819 492.168 83.3796C492.668 83.7785 493.368 83.0804 492.868 82.5817Z" fill="#0E0900"/>
<path d="M476.376 87.8677C475.277 87.0698 473.778 87.1695 472.778 87.8677C471.579 88.5658 470.979 89.8624 470.579 91.159C470.379 91.7574 471.379 92.0566 471.579 91.4582C471.878 90.4608 472.378 89.4635 473.278 88.865C474.077 88.3664 475.177 88.1669 475.977 88.7653C476.176 88.9648 476.576 88.7653 476.676 88.5658C476.676 88.2666 476.576 87.9674 476.376 87.8677Z" fill="#0E0900"/>
<path d="M496.367 104.125C495.868 103.726 495.368 104.623 495.868 105.022C497.867 106.319 499.066 108.613 499.066 111.007C499.066 113.4 497.767 115.694 495.768 116.991C495.268 117.39 495.768 118.188 496.267 117.888C498.566 116.392 499.966 113.799 499.966 111.106C500.066 108.214 498.566 105.621 496.367 104.125Z" fill="#0E0900"/>
<path d="M597.619 179.426C594.221 176.833 589.323 177.431 586.824 180.822C585.525 182.617 583.726 184.313 581.627 185.41C581.027 179.226 575.23 174.539 566.634 170.549C566.134 170.35 565.634 170.35 565.234 170.749C564.235 171.646 563.735 174.14 572.931 180.623C571.432 182.518 563.035 180.124 550.241 171.447C550.241 171.447 547.043 169.352 545.444 171.746C545.444 171.746 540.246 170.25 541.146 173.242C541.146 173.242 536.448 171.547 537.647 174.04L552.241 188.901L548.642 188.203C547.543 188.003 546.543 187.604 545.644 187.006C543.844 185.809 540.346 183.914 537.747 184.812C537.048 185.011 536.948 186.008 537.647 186.407L550.941 192.79C552.141 193.389 553.34 193.788 554.639 194.087C559.737 195.284 573.331 198.276 579.128 196.381C583.126 195.084 590.922 186.806 597.619 179.426Z" fill="#F6BAB9"/>
<path d="M555.639 187.305C555.539 187.305 555.439 187.305 555.339 187.205L540.746 173.442C540.546 173.242 540.546 172.943 540.746 172.743C540.946 172.544 541.245 172.544 541.445 172.743L555.939 186.407C556.138 186.607 556.138 186.906 555.939 187.106C555.839 187.205 555.739 187.305 555.639 187.305Z" fill="#F6BAB9"/>
<path d="M559.637 185.709C559.537 185.709 559.437 185.709 559.337 185.609L544.744 171.846C544.544 171.646 544.544 171.347 544.744 171.148C544.944 170.948 545.243 170.948 545.443 171.148L559.937 184.812C560.136 185.011 560.136 185.31 559.937 185.51C559.837 185.609 559.737 185.709 559.637 185.709Z" fill="#F6BAB9"/>
<path d="M550.342 135.342C548.243 142.723 527.352 142.423 527.053 142.423C526.753 142.423 519.556 143.521 519.556 143.521L504.763 152.796C498.066 157.284 476.476 160.875 476.476 160.875C467.68 163.468 463.582 159.977 462.183 153.694C461.983 152.796 461.883 151.898 461.783 150.901C465.382 146.213 472.278 139.631 484.173 135.442L481.274 136.838C484.772 135.442 488.671 134.245 492.469 133.248C507.862 129.258 523.854 128.061 523.854 128.061L534.149 117.789H543.445C546.743 117.789 546.244 123.174 546.244 123.174C549.142 123.773 548.642 129.258 548.642 129.258C549.342 131.253 549.242 134.345 549.242 134.345L550.342 135.342Z" fill="#F6BAB9"/>
<path d="M383.021 99.3374C383.021 99.3374 400.412 88.3664 417.604 117.988L447.89 160.276C450.689 164.166 452.788 168.455 453.887 173.043C454.287 174.439 454.487 175.636 454.387 176.134C453.387 181.321 449.289 185.41 444.092 186.806C440.294 187.903 436.295 188.003 434.496 185.709L384.72 118.387L383.021 99.3374Z" fill="#5A9FA4"/>
<path d="M314.952 66.6238C310.354 74.3035 311.354 84.9753 317.451 91.5579C319.25 93.5527 321.549 95.3479 322.149 97.9411C322.748 100.933 320.749 103.826 318.55 105.92C316.351 108.014 313.553 109.61 311.954 112.203C310.754 113.999 310.254 116.592 311.554 118.387C313.753 121.579 319.85 120.382 321.349 123.972C322.349 126.166 320.649 128.76 318.55 129.956C316.451 131.153 313.953 131.552 311.754 132.55C308.355 134.145 305.956 137.536 305.357 141.227C304.857 144.917 306.256 148.807 308.955 151.4C311.054 153.295 313.953 154.492 315.352 156.985C317.051 159.778 316.052 163.867 313.253 165.662C310.454 167.457 306.356 166.56 304.457 163.867C310.654 173.142 321.149 179.725 332.344 179.825C343.439 179.924 354.733 172.843 358.132 162.271C358.332 164.365 359.931 166.061 361.83 166.959C363.729 167.757 365.828 167.956 367.927 167.956C378.222 167.956 388.518 165.463 397.613 160.675C393.115 159.079 391.216 153.594 391.816 148.807C392.516 144.119 395.015 139.93 397.014 135.641C399.013 131.353 400.412 126.366 398.813 121.878C397.713 119.085 395.614 116.791 393.815 114.398C388.018 106.319 386.618 96.0461 384.719 86.2719C382.72 76.4977 379.422 66.2249 371.326 60.5399" fill="#CE684B"/>
<path d="M402.211 121.08C402.211 121.08 390.816 102.03 388.617 99.5369C388.517 99.4371 388.517 99.4371 388.417 99.3374C388.217 99.1379 387.917 98.9384 387.618 98.9384C387.518 98.9384 387.518 98.9384 387.418 98.9384C387.318 98.9384 387.318 98.9384 387.218 98.9384C386.618 98.4398 382.92 99.1379 378.022 100.335C377.422 100.534 376.723 100.634 376.023 100.833C367.827 103.028 357.132 106.618 350.435 109.411C348.936 110.009 347.536 110.608 346.537 111.106C344.938 111.904 343.938 112.503 343.938 112.902C343.338 113.5 342.839 114.098 342.339 114.697C341.439 115.993 340.74 117.39 340.44 118.985C340.24 119.983 339.94 121.18 339.64 122.476C338.94 125.668 337.541 133.746 336.142 141.825C335.242 147.111 335.442 152.497 336.542 157.583C336.542 157.683 336.542 157.683 336.542 157.783C338.141 164.964 341.739 171.746 346.937 177.231L347.736 178.029L351.035 226.8H415.804L412.706 172.444C416.104 166.759 417.404 159.977 416.304 153.494C414.605 141.925 408.608 128.959 402.211 121.08Z" fill="#5A9FA4"/>
<path d="M348.337 180.024C347.437 180.523 346.638 181.121 345.738 181.72L339.441 185.51C341.44 184.313 343.339 183.216 345.238 182.019C335.943 188.203 331.045 194.087 325.448 199.373C318.051 182.019 320.25 152.896 320.25 152.896C318.851 118.287 346.638 111.306 346.638 111.306C353.235 129.757 353.235 153.195 348.337 180.024Z" fill="#5A9FA4"/>
<path d="M385.02 101.931C382.721 98.4397 378.323 96.7442 374.125 96.3453C367.428 95.6471 360.631 97.4424 354.434 100.335C349.436 102.629 344.838 105.72 340.44 108.912C333.844 109.909 327.546 113.6 323.448 118.985C317.751 126.565 316.352 136.938 319.05 145.914C323.448 140.927 323.248 133.347 326.947 127.862C329.845 123.573 334.843 120.98 339.941 120.282C345.038 119.584 350.336 120.781 355.034 122.775C360.431 125.069 365.729 128.56 371.526 128.061C375.124 127.762 378.523 125.867 381.021 123.174C383.52 120.481 385.119 117.19 386.019 113.6C387.119 109.81 387.218 105.322 385.02 101.931Z" fill="#9BC3FF"/>
<path d="M345.737 181.72C345.538 181.819 345.438 181.919 345.238 182.019C343.339 183.216 341.439 184.313 339.44 185.51L345.737 181.72Z" fill="#CE684B"/>
<path d="M354.434 110.508C354.434 110.508 354.434 110.508 354.434 110.608C354.534 110.807 354.534 111.206 354.734 111.804C355.534 115.195 357.733 117.988 360.931 119.085C363.43 119.983 365.829 119.783 368.128 118.586C372.226 116.392 374.325 111.505 373.526 106.917L372.926 103.227L370.227 83.2798L351.336 86.6708L351.836 90.3611L353.435 102.529L354.434 110.508Z" fill="#F6BAB9"/>
<path opacity="0.5" d="M354.435 110.508C354.435 110.508 354.435 110.508 354.435 110.608C373.426 106.419 367.529 84.0776 367.529 84.0776L351.736 90.361L353.336 102.529L354.435 110.508Z" fill="#F6BAB9"/>
<path d="M373.125 66.923C371.526 64.2301 370.027 61.4375 368.627 58.6449C366.628 54.5557 362.53 51.3642 358.632 48.8707C356.133 47.275 353.434 46.0781 350.636 45.38C343.039 43.6845 333.944 46.5768 328.446 52.0623C320.75 59.742 323.648 69.4164 329.646 76.7969C322.549 76.2982 325.348 83.9779 325.348 83.9779C328.246 91.6576 335.543 88.5658 335.543 88.5658C340.641 94.949 347.437 97.2429 347.437 97.2429C353.834 99.5368 358.832 100.235 362.73 100.036C370.526 99.7363 376.724 93.9516 378.023 86.5711C379.022 80.4872 377.523 74.6027 374.525 69.3167C374.125 68.6185 373.625 67.7209 373.125 66.923Z" fill="#F6BAB9"/>
<path opacity="0.5" d="M367.628 77.7943C367.128 77.2956 366.428 77.0961 365.828 76.6972C365.129 76.2982 364.529 75.8993 363.929 75.4006C362.73 74.4032 361.73 73.2064 360.931 71.9098C360.731 71.5109 360.131 71.5109 359.831 71.7104C359.431 71.9098 359.431 72.4085 359.631 72.7077C360.931 74.9019 362.83 76.6972 365.129 77.9938C366.028 78.4924 367.128 78.8914 366.828 80.0882C366.428 81.2851 365.029 81.684 363.929 81.9832C363.03 82.2824 363.53 83.6787 364.529 83.3795C365.928 82.8808 367.428 82.3822 368.127 80.9858C368.727 80.0882 368.627 78.6919 367.628 77.7943Z" fill="#F6BAB9"/>
<path d="M348.637 76.797C348.637 76.6972 348.637 76.4977 348.737 76.398C348.837 76.2983 348.937 76.1985 349.136 76.1985C349.336 76.1985 349.436 76.1985 349.536 76.2983C349.336 76.1985 349.536 76.2983 349.636 76.2983H349.736C349.836 76.2983 349.936 76.2983 350.036 76.2983C350.136 76.2983 350.236 76.2983 350.336 76.2983C350.236 75.6001 350.436 74.902 350.936 74.6028C351.735 74.1041 353.135 74.7025 353.834 75.8993C354.634 77.0962 354.534 78.3927 353.734 78.8914C352.935 79.3901 351.535 78.7917 350.836 77.5949C350.736 77.4951 350.736 77.3954 350.736 77.3954C350.636 77.3954 350.536 77.4951 350.436 77.4951C350.236 77.4951 349.936 77.4951 349.736 77.4951C349.436 77.3954 349.236 77.3954 348.937 77.1959C348.737 77.1959 348.737 76.9964 348.637 76.797Z" fill="#0E0900"/>
<path d="M364.529 68.0201C365.029 67.7209 365.728 67.8207 366.328 68.2196V68.1199C366.328 68.0201 366.328 68.0201 366.328 67.9204V67.8207C366.328 67.7209 366.328 67.7209 366.228 67.6212C366.228 67.6212 366.228 67.7209 366.328 67.7209C366.328 67.6212 366.228 67.6212 366.228 67.5214C366.228 67.4217 366.228 67.4217 366.228 67.322C366.228 67.2222 366.328 67.0228 366.428 66.923C366.528 66.8233 366.728 66.7236 366.828 66.8233C366.928 66.8233 367.128 66.923 367.228 67.0228C367.328 67.1225 367.328 67.2222 367.428 67.322C367.428 67.4217 367.528 67.5215 367.528 67.6212C367.528 67.8207 367.528 68.0201 367.528 68.2196C367.528 68.5188 367.328 68.7183 367.228 68.9178C367.328 69.0175 367.428 69.1172 367.428 69.217C368.227 70.4138 368.127 71.7104 367.328 72.2091C366.528 72.7077 365.129 72.1093 364.429 70.9125C363.629 69.9151 363.729 68.5188 364.529 68.0201Z" fill="#0E0900"/>
<path d="M360.631 61.8364C360.831 61.5372 361.131 61.4375 361.531 61.3378C363.53 60.7393 365.729 61.637 367.028 63.7314C366.728 63.532 366.529 63.2327 366.229 63.133C366.229 63.133 366.229 63.133 366.129 63.133C365.929 63.0333 365.729 62.9335 365.529 62.9335C364.829 62.8338 364.13 62.9335 363.43 63.133C362.73 63.3325 362.031 63.532 361.331 63.532C361.031 63.532 360.631 63.4322 360.431 63.0333C360.232 62.5346 360.431 62.0359 360.631 61.8364Z" fill="#0E0900"/>
<path d="M348.537 66.923C348.137 66.8233 347.837 66.923 347.537 67.0228C345.538 67.7209 344.539 69.8154 344.938 72.1093C344.938 71.8101 345.038 71.4112 345.138 71.2117C345.238 71.0122 345.338 70.9125 345.438 70.713C345.838 70.2143 346.538 69.9151 347.237 69.6159C347.937 69.3167 348.637 69.1172 349.136 68.6185C349.436 68.4191 349.636 68.1199 349.436 67.7209C349.336 67.2222 348.937 66.923 348.537 66.923Z" fill="#0E0900"/>
<path opacity="0.5" d="M355.633 87.369C358.931 88.7653 362.73 88.4661 365.628 86.5711C366.428 86.0725 367.328 87.369 366.528 87.8677C363.229 89.9622 358.732 90.2614 355.033 88.6656C354.034 88.3664 354.733 86.9701 355.633 87.369Z" fill="#F6BAB9"/>
<path d="M416.105 155.389C415.405 148.906 412.906 142.822 409.808 137.137C408.009 133.746 405.909 130.455 403.81 127.164C403.511 126.665 402.611 127.164 403.011 127.663C409.708 138.334 416.904 150.103 415.105 163.268C414.605 166.56 413.606 169.851 411.807 172.644C411.507 173.142 412.306 173.641 412.606 173.142C415.905 167.757 416.804 161.473 416.105 155.389Z" fill="#CE684B"/>
<path d="M346.237 155.19C345.837 152.696 345.538 150.203 345.138 147.71C345.038 147.111 344.138 147.311 344.238 148.009C345.538 156.686 346.837 165.463 348.136 174.14C348.536 176.633 348.836 179.127 349.236 181.62C349.336 182.218 350.235 182.019 350.135 181.321C348.836 172.644 347.537 163.967 346.237 155.19Z" fill="#5A9FA4"/>
<path d="M381.621 71.112C381.121 69.217 381.421 67.2223 381.121 65.3273C380.721 62.1357 378.722 59.3431 376.523 56.9494C374.324 54.5557 371.925 52.3615 370.026 49.7684C368.527 47.6739 367.527 45.1805 365.828 43.2855C363.129 40.1937 359.131 38.6977 355.133 37.8C346.837 36.0048 337.841 37.0021 330.245 40.8919C322.648 44.7816 316.651 51.8629 314.452 60.0412C312.253 68.2196 313.952 77.5948 319.45 84.0777C321.449 86.4714 323.848 88.4661 325.247 91.159C326.646 93.8519 326.846 97.6419 324.547 99.6366C328.546 99.1379 331.844 95.4476 332.044 91.4582C332.544 95.3479 333.343 99.4371 335.442 102.728C337.541 106.119 341.339 108.713 345.238 108.413C349.236 108.114 352.834 104.224 351.935 100.335C350.235 100.833 348.536 101.332 346.737 101.232C344.938 101.133 343.139 100.235 342.439 98.6392C341.439 96.445 342.739 94.0513 343.339 91.7574C344.738 86.6708 342.839 80.8861 338.641 77.6946C340.84 78.4925 343.039 79.3901 345.238 80.188C342.439 78.9911 340.84 75.7996 340.94 72.8075C341.04 69.8154 342.539 66.9231 344.538 64.6291C345.937 63.1331 347.537 61.8365 349.136 60.6397C352.634 60.3404 353.434 63.0333 353.034 64.9283C359.731 63.7315 360.431 58.246 359.231 51.5636C368.527 58.4455 374.924 68.6186 377.822 79.789C380.821 78.9911 383.82 76.9964 385.319 74.2038C383.82 74.7025 382.12 72.9072 381.621 71.112Z" fill="#CE684B"/>
<path d="M348.736 177.93C338.241 177.531 328.146 184.512 324.047 194.087C323.248 196.082 322.548 198.276 322.948 200.37C323.348 202.664 324.847 204.659 326.646 206.055C328.445 207.452 339.54 209.247 338.241 207.751C336.442 202.564 332.843 198.176 336.242 193.887C339.64 189.499 344.338 186.407 348.936 183.415L348.736 177.93Z" fill="#9BC3FF"/>
<path d="M440.893 192.292C450.278 192.292 457.885 184.701 457.885 175.337C457.885 165.972 450.278 158.381 440.893 158.381C431.509 158.381 423.901 165.972 423.901 175.337C423.901 184.701 431.509 192.292 440.893 192.292Z" fill="#9BC3FF"/>
<path d="M381.021 166.161C378.922 165.562 376.823 165.064 374.724 165.562C372.625 166.161 370.826 168.255 371.426 170.25C372.025 172.145 374.124 173.043 376.023 173.641C382.021 175.735 387.618 178.528 392.915 182.019C394.615 183.116 396.314 184.413 398.213 185.011C400.112 185.609 402.411 185.609 404.11 184.413C405.709 183.216 406.409 180.623 405.01 179.027C409.108 180.024 433.696 168.654 420.303 154.99C417.404 151.998 413.906 149.605 410.007 148.108C406.809 146.812 391.016 142.324 382.32 156.287C380.521 159.179 378.722 162.57 379.822 165.862" fill="#0E0900"/>
<path d="M406.609 56.4508C404.81 54.1568 402.311 52.3616 399.412 51.8629C398.613 51.6634 397.813 51.6634 397.113 51.9626C396.414 52.2618 395.914 52.7605 395.514 53.2592C391.016 58.246 388.517 64.9284 388.717 71.6107L410.507 64.2302C409.607 61.4376 408.508 58.7447 406.609 56.4508Z" fill="#0E0900"/>
<path d="M402.711 58.2461C401.511 56.75 399.912 55.6529 398.013 55.254C397.513 55.1543 397.013 55.1543 396.514 55.3537C396.114 55.5532 395.714 55.8524 395.414 56.1516C392.515 59.3432 390.916 63.7316 391.016 68.0202L405.109 63.2329C404.71 61.5374 403.91 59.7421 402.711 58.2461Z" fill="#F6BAB9"/>
<path d="M406.109 64.9283C404.61 60.4402 402.311 54.7552 396.913 53.9573C396.214 53.8576 395.814 54.9547 396.613 55.0544C401.611 55.7526 403.61 61.0386 405.01 65.2275C405.209 65.9257 406.409 65.6265 406.109 64.9283Z" fill="white"/>
<path d="M420.402 58.246C422.901 56.8497 425.899 56.0518 428.798 56.5505C429.598 56.6502 430.397 56.9494 430.897 57.4481C431.397 57.9468 431.697 58.645 431.896 59.2434C434.295 65.5268 433.796 73.7051 431.297 79.8888L414.005 64.0307C415.804 61.7368 417.903 59.6423 420.402 58.246Z" fill="#0E0900"/>
<path d="M423.7 61.637C425.4 60.6397 427.399 60.141 429.398 60.5399C429.897 60.6397 430.497 60.8391 430.897 61.1384C431.197 61.4376 431.397 61.9363 431.597 62.3352C433.196 66.5241 432.596 73.007 430.797 77.1959L419.402 65.6265C420.502 64.1305 422.001 62.6344 423.7 61.637Z" fill="#F6BAB9"/>
<path d="M418.303 66.5241C421.401 62.8339 425.599 58.4455 430.897 59.7421C431.597 59.9415 431.497 61.0386 430.797 60.9389C425.899 59.8418 422.101 63.931 419.302 67.322C418.703 67.8207 417.803 67.1226 418.303 66.5241Z" fill="white"/>
<path d="M436.495 171.048C431.098 176.234 423.201 178.129 415.705 178.428C412.407 178.528 409.208 178.329 405.91 177.73C402.511 177.132 399.213 176.134 396.114 174.638C385.819 169.552 379.022 159.279 375.624 148.308C375.224 146.812 374.824 145.216 374.524 143.421C372.525 131.851 373.225 115.096 373.225 115.096C372.425 106.917 371.726 98.1405 376.124 91.2587C377.123 89.6629 378.422 88.1669 379.422 86.4714C380.921 83.8782 381.521 80.8861 382.62 78.0935C385.819 69.8154 393.415 63.2328 402.111 61.4375C410.807 59.6423 420.503 62.8339 426.3 69.5162C432.197 76.1985 433.996 86.2719 430.598 94.4503C429.998 95.9463 429.199 97.4424 429.099 99.1379C428.999 100.833 429.598 102.529 429.998 104.224C431.298 109.51 430.598 115.295 427.999 120.083C432.997 121.379 437.195 125.069 439.794 129.557C442.392 134.046 443.492 139.232 443.992 144.318C445.091 153.793 443.492 164.365 436.495 171.048Z" fill="#0E0900"/>
<path d="M417.304 172.245C414.405 175.436 410.207 177.032 406.009 177.73C402.611 177.132 399.312 176.134 396.213 174.638C385.918 169.552 379.122 159.279 375.723 148.308C375.323 146.812 374.923 145.216 374.624 143.421C374.424 141.227 374.424 139.731 374.424 139.731C373.524 134.644 372.625 129.059 375.123 124.371C375.723 123.274 376.423 122.277 377.023 121.18C377.822 119.484 378.122 117.489 378.622 115.694C380.221 110.308 384.719 105.72 390.216 104.224C395.714 102.629 401.911 104.224 406.009 108.114C410.107 112.104 411.706 118.387 410.007 123.773C409.707 124.77 409.307 125.767 409.307 126.765C409.307 127.862 409.807 128.859 410.107 129.956C411.206 133.248 411.007 136.938 409.607 140.13C412.806 140.728 415.704 142.822 417.504 145.615C419.403 148.308 420.402 151.599 420.902 154.791C421.901 160.875 421.402 167.657 417.304 172.245Z" fill="#4C4C4C"/>
<path d="M396.513 168.355C394.414 167.757 392.315 167.258 390.216 167.757C388.117 168.355 386.318 170.449 386.918 172.444C387.517 174.339 389.616 175.237 391.516 175.835C397.513 177.93 403.11 180.722 408.408 184.213C410.107 185.31 411.806 186.607 413.705 187.205C415.604 187.903 417.903 187.804 419.602 186.607C421.202 185.41 421.901 182.817 420.502 181.221C424.6 182.218 449.188 170.848 435.795 157.184C432.896 154.192 429.798 153.594 425.899 151.998C422.701 150.702 406.508 144.418 397.813 158.381C396.013 161.274 394.214 164.665 395.314 167.956" fill="#0E0900"/>
<path d="M412.706 149.505C408.907 149.505 405.109 150.702 402.011 152.996C398.912 155.289 396.713 158.581 395.713 162.171C395.214 163.967 395.014 165.762 395.114 167.657C392.915 166.659 390.316 166.061 388.117 167.457C387.118 168.155 386.318 169.153 386.118 170.35C385.918 171.646 386.418 172.743 387.317 173.741C388.417 174.938 390.016 175.436 391.515 175.935C392.015 176.134 392.315 175.336 391.915 175.137C391.715 173.342 392.415 171.547 393.914 170.35C394.114 170.15 394.114 169.851 393.914 169.652C393.714 169.452 393.415 169.452 393.215 169.652C391.715 170.848 390.816 172.743 390.916 174.738C390.716 174.638 390.616 174.638 390.416 174.539C390.516 174.339 390.416 174.239 390.316 174.04C389.616 173.342 389.217 172.245 389.316 171.247C389.416 170.25 390.016 169.452 390.916 168.953C391.416 168.654 390.916 167.757 390.416 168.155C389.316 168.854 388.617 169.951 388.417 171.148C388.317 172.045 388.517 172.943 388.917 173.741C388.517 173.441 388.117 173.242 387.817 172.843C386.918 171.746 386.818 170.449 387.517 169.253C388.317 168.056 389.716 167.557 391.116 167.557C392.515 167.557 393.814 168.056 395.114 168.754C395.214 169.053 395.514 169.153 395.713 169.053C396.213 169.053 396.513 168.455 396.013 168.155C395.514 160.974 399.812 154.093 406.608 151.499C408.507 150.801 410.606 150.402 412.606 150.402C413.305 150.402 413.305 149.505 412.706 149.505Z" fill="white"/>
<path d="M415.404 85.7732C414.904 85.3743 414.105 86.0724 414.705 86.4714C415.304 86.9701 415.604 87.768 415.404 88.5658C415.104 89.4635 414.105 89.9621 413.305 90.2614C412.406 90.5606 411.306 90.6603 410.407 90.1616C409.807 89.7627 409.407 88.9648 409.607 88.2666C409.707 88.2666 409.807 88.3664 409.907 88.3664C410.706 88.5658 411.606 88.5658 412.306 87.9674C412.905 87.4687 413.905 85.474 411.806 83.978C411.006 83.4793 410.007 83.2798 409.007 83.3795C408.208 83.4793 407.508 83.978 407.108 84.6761C406.708 85.5738 407.008 86.4714 407.608 87.1695C407.808 87.4687 408.208 87.6682 408.507 87.8677C407.608 88.865 406.309 89.6629 405.009 88.7653C403.61 87.7679 403.81 85.6735 405.209 84.7759C405.809 84.3769 405.209 83.4793 404.709 83.8782C402.81 85.1748 402.41 87.9674 404.309 89.4635C405.709 90.6603 407.308 90.1616 408.607 89.264C408.707 89.7627 408.907 90.1616 409.207 90.5606C410.207 91.6577 411.806 91.8571 413.205 91.5579C414.505 91.2587 415.904 90.4608 416.404 89.264C416.704 87.9674 416.404 86.5711 415.404 85.7732Z" fill="#F6BAB9"/>
<path d="M404.109 78.293C404.01 79.6893 404.609 80.7864 405.509 80.9859C406.408 81.0856 407.308 80.0883 407.408 78.7917C407.508 77.3954 406.908 76.2983 406.009 76.0988C405.109 75.9991 404.209 76.9964 404.109 78.293Z" fill="white"/>
<path d="M415.005 80.5869C414.905 81.9832 415.505 83.0803 416.404 83.2798C417.304 83.3795 418.203 82.3822 418.303 81.0856C418.403 79.6893 417.804 78.5922 416.904 78.3927C416.005 78.1933 415.205 79.1906 415.005 80.5869Z" fill="white"/>
<path d="M420.902 105.421C420.902 105.421 404.71 91.7574 398.613 95.2482C398.613 95.2482 383.02 103.626 386.019 114.298C386.019 114.298 386.718 120.681 397.813 111.405C397.813 111.405 410.107 130.256 420.103 120.88C420.103 120.98 427.599 112.702 420.902 105.421Z" fill="#0E0900"/>
<path d="M373.624 113.3C373.624 113.3 352.834 139.731 362.429 147.211C362.429 147.211 368.227 151.699 375.523 137.437C375.523 137.437 386.218 126.865 385.619 104.923L373.624 113.3Z" fill="#0E0900"/>
<path d="M424.6 174.738C422.501 171.945 419.702 169.552 417.004 167.358C415.604 166.26 412.506 164.365 412.506 164.365C412.506 164.365 409.807 165.762 409.707 166.061C410.707 166.759 411.706 167.457 412.606 168.355C417.004 172.544 419.802 178.528 419.902 184.612C420.002 190.796 417.503 196.88 413.105 201.268C403.21 211.242 387.717 208.05 375.823 213.735C374.424 214.433 373.024 215.231 371.725 216.228C370.425 217.226 369.026 218.423 368.526 220.018C367.927 221.913 369.626 223.11 371.325 223.31C373.024 223.609 374.823 223.11 376.323 222.312C377.922 221.614 379.321 220.617 380.821 219.819C382.42 218.921 384.019 218.123 385.718 217.425C389.117 216.029 392.715 215.032 396.313 214.134C403.51 212.339 410.906 210.843 417.403 207.152C422.901 203.961 427.599 199.173 428.998 192.79C430.297 186.607 428.398 179.825 424.6 174.738Z" fill="#0E0900"/>
<path d="M430.298 86.7706C426.699 85.873 422.901 85.5737 419.103 85.9727C418.403 86.0724 418.303 87.2693 419.103 87.1695C422.701 86.7706 426.4 87.0698 429.898 87.8677C430.698 88.0672 430.997 86.9701 430.298 86.7706Z" fill="white"/>
<path d="M425.6 88.4661C423.701 87.768 421.602 87.4688 419.603 87.4688C418.803 87.4688 418.803 88.6656 419.603 88.6656C421.502 88.6656 423.501 88.9648 425.3 89.5632C425.6 89.663 425.9 89.4635 426 89.1643C426.1 88.8651 425.9 88.5659 425.6 88.4661Z" fill="white"/>
<path d="M427.499 94.0513C425 92.1563 422.402 90.5605 419.603 89.264C418.903 88.9648 418.304 89.9621 419.003 90.2613C421.802 91.5579 424.401 93.1537 426.9 95.0487C427.199 95.2482 427.599 95.0487 427.699 94.8492C427.899 94.55 427.699 94.2508 427.499 94.0513Z" fill="white"/>
<path d="M390.017 80.3875C393.815 80.587 397.513 81.3849 400.912 82.7812C401.612 83.0804 401.312 84.1775 400.612 83.8783C397.214 82.482 393.615 81.6841 390.017 81.5843C389.217 81.4846 389.317 80.2878 390.017 80.3875Z" fill="white"/>
<path d="M394.115 83.2799C396.114 83.1801 398.213 83.4793 400.113 83.978C400.812 84.1775 400.512 85.2746 399.813 85.0751C397.914 84.4767 396.014 84.2772 394.115 84.3769C393.815 84.3769 393.516 84.0777 393.516 83.7785C393.516 83.5791 393.815 83.2799 394.115 83.2799Z" fill="white"/>
<path d="M390.716 88.1669C393.615 87.0698 396.614 86.2719 399.612 85.7732C400.312 85.6735 400.612 86.7706 399.912 86.8703C396.914 87.369 393.915 88.1669 391.016 89.264C390.717 89.3637 390.417 89.1643 390.317 88.8651C390.117 88.5659 390.417 88.2667 390.716 88.1669Z" fill="white"/>
<path d="M422.701 106.219C419.303 101.831 414.005 99.1379 409.007 96.844C406.409 95.5474 403.51 94.4503 400.611 94.6498C397.813 94.7495 395.214 96.0461 393.115 97.6419C390.516 99.7363 388.517 102.429 386.618 105.222C386.318 105.72 387.118 106.219 387.418 105.72C390.316 101.332 394.114 96.445 399.812 95.6471C402.61 95.2482 405.409 96.2455 408.008 97.4424C410.407 98.5395 412.806 99.836 415.104 101.232C417.603 102.728 420.002 104.424 421.801 106.818C422.301 107.117 423.101 106.718 422.701 106.219Z" fill="white"/>
<path d="M385.319 105.122C385.319 104.524 384.32 104.524 384.32 105.122C385.019 114.098 383.12 123.075 378.922 131.054C377.723 133.248 376.423 135.342 374.924 137.337C374.524 137.836 375.424 138.334 375.724 137.836C381.221 130.555 384.519 121.778 385.219 112.802C385.519 110.209 385.519 107.616 385.319 105.122Z" fill="white"/>
<path d="M393.815 108.812C391.216 110.508 389.117 113.001 387.817 115.794C387.518 116.392 388.417 116.891 388.617 116.293C389.817 113.6 391.816 111.306 394.314 109.61C394.814 109.311 394.314 108.513 393.815 108.812Z" fill="white"/>
<path d="M389.417 106.518C387.718 108.912 386.519 111.705 385.919 114.697C385.819 115.295 386.718 115.594 386.818 114.996C387.318 112.104 388.518 109.411 390.217 107.117C390.617 106.518 389.717 106.02 389.417 106.518Z" fill="white"/>
<path d="M427.799 117.789C425.5 120.681 422.101 122.676 418.403 123.174C414.505 123.773 410.507 122.576 407.308 120.182C406.809 119.783 406.309 120.681 406.809 120.98C410.107 123.474 414.305 124.67 418.403 124.072C422.301 123.573 426 121.479 428.398 118.387C428.798 117.988 428.199 117.29 427.799 117.789Z" fill="white"/>
<path d="M398.713 126.266C398.713 126.266 396.814 122.676 390.816 133.547C390.816 133.547 385.619 141.626 385.219 142.623L382.22 142.424C382.22 142.424 383.02 133.148 387.018 129.358C387.018 129.358 391.416 124.471 391.916 120.581C392.116 119.384 390.816 118.587 389.817 119.185C388.118 120.182 385.219 122.875 380.721 129.857C380.721 129.857 376.823 135.741 376.023 142.523L376.623 131.153C376.623 131.153 383.62 121.279 384.619 116.991C384.919 115.794 383.62 114.896 382.62 115.495C380.921 116.392 377.922 119.185 372.725 127.064C371.825 128.361 371.326 129.857 371.026 131.353L370.026 137.337L369.926 133.946C369.826 131.153 370.726 128.361 372.425 126.266C374.124 124.172 376.123 121.579 377.323 119.783C377.922 118.886 377.023 117.789 376.023 118.088C373.824 118.786 370.326 121.18 366.228 128.46C365.528 129.657 365.128 131.054 365.228 132.55L365.328 139.132C365.328 142.124 366.428 144.917 368.427 147.111L375.923 155.589C372.625 163.069 363.829 170.35 352.734 177.531C352.734 177.531 352.634 177.531 352.634 177.63C352.334 177.83 352.135 178.029 351.835 178.129C350.735 178.827 349.536 179.525 348.436 180.323V180.224C347.537 180.722 346.737 181.321 345.837 181.919L348.136 180.523C347.237 181.121 346.237 181.72 345.238 182.318C339.74 186.008 335.742 189.599 332.244 192.99C326.746 198.376 328.646 207.95 336.042 210.244C336.342 210.344 336.742 210.444 337.042 210.543C339.94 211.242 343.039 210.942 345.837 209.746C354.933 205.856 374.324 193.588 391.716 162.271C391.716 162.271 394.015 154.791 389.817 147.909C389.817 147.909 388.517 146.014 393.715 139.332C395.414 137.137 396.814 134.844 397.813 132.25C398.613 129.857 399.212 127.663 398.713 126.266Z" fill="#F6BAB9"/>
<g opacity="0.5">
<path opacity="0.5" d="M378.122 149.305C376.822 150.003 375.223 149.804 374.124 148.807C373.624 148.308 372.724 149.106 373.324 149.604C374.823 151.001 376.922 151.3 378.722 150.303C379.321 149.904 378.821 148.906 378.122 149.305Z" fill="#F6BAB9"/>
<path opacity="0.5" d="M385.319 150.003C384.319 151.001 382.72 151.2 381.62 150.303C381.421 150.103 381.021 150.103 380.821 150.303C380.621 150.502 380.621 150.901 380.821 151.101C381.62 151.699 382.62 152.098 383.62 151.998C384.619 151.898 385.519 151.499 386.218 150.801C386.618 150.303 385.818 149.405 385.319 150.003Z" fill="#F6BAB9"/>
</g>
<path d="M449.789 181.62C447.79 185.51 444.792 187.105 441.693 187.504C436.595 188.203 431.598 185.51 428.999 181.022L407.609 143.122C400.912 141.027 394.815 134.145 392.016 130.655C391.117 129.458 390.517 128.062 390.317 126.565C390.317 126.366 390.317 126.266 390.217 126.067L390.117 125.967C389.218 124.77 390.017 123.873 390.517 123.474C390.717 123.274 390.917 123.174 390.917 123.174C390.817 123.075 390.617 123.075 390.517 122.975C390.117 122.775 389.817 122.676 389.617 122.476C388.518 121.778 388.818 120.182 390.017 119.883C390.317 119.783 390.717 119.783 391.017 119.684C391.816 119.584 392.716 119.883 393.416 120.182C395.715 121.279 401.712 121.778 401.712 121.778L400.912 117.988C404.311 117.091 408.309 121.08 408.309 121.08C413.806 126.167 417.804 122.476 417.804 122.476C419.503 127.762 420.003 137.237 420.003 137.237L447.19 165.961C451.289 169.951 452.388 176.334 449.789 181.62Z" fill="#F6BAB9"/>
<g opacity="0.5">
<path opacity="0.5" d="M398.414 131.951C395.716 130.056 393.017 128.161 390.318 126.366C390.318 126.166 390.318 126.067 390.218 125.867L390.118 125.768C390.218 125.568 390.418 125.468 390.718 125.568C393.517 127.363 396.115 129.159 398.814 131.153C399.214 131.552 398.814 132.25 398.414 131.951Z" fill="#F6BAB9"/>
<path opacity="0.5" d="M399.614 126.166C396.815 124.77 393.917 123.573 391.018 122.676C390.518 122.476 390.218 123.374 390.818 123.474C393.717 124.371 396.515 125.468 399.214 126.865C399.714 127.164 400.114 126.366 399.614 126.166Z" fill="#F6BAB9"/>
<path opacity="0.5" d="M403.312 127.164C403.212 126.964 403.012 126.865 402.812 126.865C402.812 126.865 402.812 126.865 402.712 126.865H402.612C402.512 126.865 402.412 126.865 402.312 126.865C402.212 126.865 402.112 126.865 402.012 126.865H401.912C401.712 126.865 401.513 126.765 401.313 126.765C401.213 126.765 401.113 126.665 401.013 126.665C400.913 126.665 400.913 126.665 400.813 126.565C400.613 126.466 400.313 126.466 400.213 126.765C400.113 126.964 400.113 127.264 400.413 127.363C401.313 127.762 402.212 127.962 403.112 127.762C403.212 127.662 403.312 127.363 403.312 127.164Z" fill="#F6BAB9"/>
<path opacity="0.5" d="M406.71 123.075C406.51 122.975 406.21 122.775 406.01 122.676C406.01 122.676 405.91 122.676 405.91 122.576C406.01 122.676 405.91 122.576 405.91 122.576L405.81 122.476C405.71 122.376 405.61 122.277 405.51 122.177C405.51 122.077 405.41 122.077 405.41 121.978C405.41 121.978 405.41 121.978 405.31 121.878C405.31 121.878 405.21 121.778 405.31 121.778C405.31 121.778 405.31 121.678 405.21 121.678C405.21 121.579 405.11 121.579 405.11 121.479C405.01 121.379 405.011 121.279 404.911 121.08C404.911 120.98 404.811 120.98 404.811 120.88V120.781C404.711 120.581 404.511 120.382 404.311 120.481C404.111 120.581 403.911 120.781 404.011 120.98C404.411 122.177 405.31 123.174 406.51 123.673C406.71 123.773 407.01 123.773 407.11 123.474C406.91 123.474 406.91 123.174 406.71 123.075Z" fill="#F6BAB9"/>
</g>
<path d="M228.393 95.8466C226.993 90.8597 225.594 85.9727 224.295 80.9858L202.205 85.5737C204.304 89.9621 207.103 94.0513 209.602 98.34C213 104.025 216.698 104.324 216.698 104.324C216.698 104.324 214.999 102.23 214.499 101.332C216.598 103.925 219.297 105.421 219.297 105.421C219.297 105.421 218.198 102.828 217.898 102.13C219.097 103.925 220.397 105.621 221.896 107.217C222.296 107.615 222.895 108.114 223.395 107.815C223.895 107.516 223.895 106.718 223.695 106.219C223.195 104.424 222.496 102.728 221.596 101.133C222.096 102.329 222.795 103.327 223.695 104.224C223.995 104.524 224.395 104.823 224.794 104.823C225.594 104.823 226.094 103.925 226.194 103.227C226.494 101.432 225.794 99.5368 225.094 97.8413C225.494 98.9384 225.994 99.9357 226.594 100.933C226.794 101.232 226.993 101.631 227.393 101.731C227.793 101.831 228.193 101.631 228.493 101.332C228.793 101.033 228.893 100.634 228.893 100.235C229.192 98.6392 228.793 97.2429 228.393 95.8466Z" fill="#2E7D83"/>
<path d="M237.088 117.988C236.189 115.794 235.189 113.6 234.19 111.505C232.19 107.017 230.191 102.629 228.192 98.1405L221.396 105.92C224.994 112.203 228.792 118.287 232.69 124.371C232.89 124.67 233.19 125.069 233.59 124.97C233.89 124.97 234.09 124.67 234.09 124.371C234.09 124.072 233.99 123.773 233.89 123.474C233.29 121.678 232.39 119.883 231.291 118.287C231.791 118.985 232.29 119.684 232.89 120.382C233.09 120.581 233.39 120.88 233.59 120.781C233.99 120.681 233.89 120.083 233.79 119.684C233.19 118.088 232.59 116.592 231.991 114.996C232.79 116.592 233.79 117.988 234.989 119.285C235.489 119.783 236.289 120.282 236.788 119.883C237.488 119.484 237.288 118.586 237.088 117.988Z" fill="white"/>
<path d="M212.4 98.739C208.902 90.5606 205.404 82.2825 202.005 74.1041L198.307 56.2513C198.107 55.8523 197.707 55.6529 197.207 55.7526C196.808 55.8523 196.408 56.0518 196.108 56.351C194.309 58.1463 194.009 60.9389 194.109 63.4323C194.109 69.6159 195.108 75.7996 196.208 81.9832C196.408 83.2798 196.608 84.5764 197.107 85.7732C197.307 86.3717 197.607 86.9701 198.107 87.369C198.607 87.768 199.306 87.8677 199.806 87.4688C200.006 87.369 200.106 87.1695 200.106 86.9701C201.305 93.054 203.205 91.159 203.205 90.9595C205.404 94.3506 208.202 97.3427 211.501 99.8361C211.701 100.036 212.1 100.235 212.4 100.135C212.7 99.9358 212.6 99.2376 212.4 98.739Z" fill="#2E7D83"/>
<path d="M222.795 98.5395C219.497 100.036 215.499 99.6366 212.3 98.0408C212.2 98.0408 212.2 97.9411 212.2 97.9411C209.002 96.3453 206.503 93.6524 204.404 90.6603C200.106 84.5764 198.307 77.6946 197.507 70.4138C197.507 70.2144 197.507 70.1146 197.407 69.9152C196.907 65.2275 196.907 60.3405 197.807 55.7526C197.907 55.3537 198.007 54.855 198.107 54.456C198.506 52.561 199.106 50.666 199.906 48.8708C200.206 48.2724 200.506 47.6739 200.805 46.9758C203.704 41.4903 208.802 36.1045 215.598 36.9024C217.797 37.1019 219.996 38.2987 221.096 40.2935L220.796 41.0913C220.796 41.8892 220.096 42.9863 219.896 43.7842C219.597 44.7816 219.397 45.6792 219.197 46.6766C218.897 48.5716 218.697 50.5663 218.797 52.561C218.797 53.0597 218.797 53.5584 218.797 54.1568C218.797 55.4534 218.697 56.8497 218.697 58.246C218.697 60.5399 218.697 62.7341 219.197 64.9283C220.296 69.3167 221.696 73.5057 223.095 77.7943C224.094 80.9859 225.394 84.3769 226.094 87.6682C226.293 88.5659 226.393 89.3638 226.493 90.2614C226.793 93.9516 226.193 96.9437 222.795 98.5395Z" fill="#F26188"/>
<path d="M210.901 37.4011C202.505 40.8919 194.408 44.8814 186.612 49.3695C186.212 49.569 185.812 49.8682 185.413 50.1674C184.613 50.7658 185.213 51.9626 186.212 51.8629C189.91 51.2645 193.409 49.3695 196.807 47.5742C193.909 49.3695 190.91 51.065 188.011 52.8603C187.512 53.1595 186.912 53.6582 187.112 54.2566C187.212 54.6555 187.612 54.855 188.011 54.855C188.411 54.855 188.711 54.7553 189.111 54.5558C192.009 53.3589 194.908 52.1621 197.707 50.9653C195.808 52.4613 190.31 57.0492 195.508 54.855C200.006 52.8603 204.604 50.9653 209.001 48.6713" fill="#F26188"/>
<path d="M220.896 98.739C218.197 100.036 214.798 99.6366 212.1 98.2403C212.1 98.2403 212 98.2403 212 98.1406C209.301 96.7443 207.102 94.5501 205.203 92.0567C201.405 86.9701 199.605 81.1854 198.706 75.1015C198.706 75.0017 198.706 74.8023 198.606 74.7025C198.006 70.8128 197.806 66.7236 198.406 62.7342C198.506 62.3352 198.506 62.036 198.606 61.6371C198.906 60.0413 199.306 58.4455 199.905 56.9494C200.105 56.4508 200.305 55.9521 200.505 55.4534C201.005 54.3563 201.605 53.2592 202.304 52.2618C202.604 52.4613 202.804 52.6608 203.104 52.8603C205.503 54.456 208.501 55.1542 211.4 55.1542C212.899 55.1542 214.399 54.9547 215.898 54.6555C215.898 54.855 215.898 54.9547 215.798 55.0545C215.598 56.4508 215.598 57.9468 215.598 59.3431C215.598 59.5426 215.598 59.7421 215.598 60.0413C215.598 60.4402 215.598 60.9389 215.598 61.3378C215.598 62.4349 215.598 63.6318 215.698 64.7289C215.798 66.6239 215.898 68.5189 216.398 70.3141C217.497 74.0044 218.796 77.4951 220.096 81.0857C221.095 83.7785 222.195 86.5711 222.895 89.3638C223.094 90.0619 223.194 90.8598 223.394 91.558C224.194 94.8493 223.794 97.3427 220.896 98.739Z" fill="white"/>
<path d="M223.694 48.1726C222.095 48.0729 220.596 47.7737 219.096 47.275C218.297 47.0755 217.497 46.6766 217.197 45.8787C216.798 48.1726 216.997 50.5663 217.897 52.7605L217.997 52.8602C219.396 53.3589 221.096 53.0597 222.195 52.1621C223.294 51.2644 223.894 49.6686 223.694 48.1726Z" fill="#F7D049"/>
<path d="M226.093 43.6845C224.694 41.59 222.295 40.2935 219.896 40.2935L217.797 43.9837C217.297 44.7816 216.997 45.6792 217.097 46.5768C217.097 47.4745 217.497 48.3721 218.097 49.0703C218.697 49.6687 219.496 50.0676 220.396 50.1674C221.195 50.2671 221.995 50.0676 222.895 49.9679C223.694 49.9679 224.694 50.0676 225.094 50.7658C225.293 51.065 225.393 51.3642 225.693 51.4639C225.893 51.5637 226.193 51.4639 226.393 51.2645C226.593 51.065 226.693 50.8655 226.793 50.5663C227.692 48.4718 227.392 45.6792 226.093 43.6845Z" fill="#F7D049"/>
<path d="M226.193 50.8655C225.393 49.17 223.394 49.2697 221.795 49.3695C220.895 49.3695 219.996 49.3695 219.196 48.7711C218.596 48.2724 218.097 47.5742 217.997 46.7763C217.897 46.1779 216.897 46.1779 216.997 46.7763C217.197 48.4718 218.497 49.9679 220.196 50.2671C221.195 50.4666 222.295 50.1674 223.294 50.2671C224.094 50.3668 224.894 50.5663 225.193 51.3642C225.593 51.9626 226.393 51.4639 226.193 50.8655Z" fill="#F7D049"/>
<path d="M212.899 43.884C212.899 44.6819 213.299 45.38 213.899 45.4798C214.499 45.4798 214.999 44.8814 214.999 44.0835C214.999 43.2856 214.599 42.4877 213.999 42.4877C213.399 42.3879 212.899 43.0861 212.899 43.884Z" fill="#0E0900"/>
<path d="M218.597 54.1568C218.597 55.4533 218.497 56.8496 218.497 58.2459C218.497 58.2459 218.497 58.2459 218.397 58.2459C217.498 58.7446 216.698 59.1436 215.798 59.4428C213.6 60.2407 211.201 60.7394 208.802 60.6396C205.503 60.5399 202.305 59.2433 199.906 56.9494L199.806 56.8496C199.106 56.1515 198.507 55.3536 198.007 54.456C198.407 52.561 199.006 50.666 199.806 48.8707C200.406 50.1673 201.305 51.3641 202.405 52.2618C202.705 52.4612 202.905 52.6607 203.204 52.8602C205.603 54.456 208.602 55.1541 211.501 55.1541C213 55.1541 214.499 54.9546 215.998 54.6554C216.898 54.5557 217.798 54.3562 218.597 54.1568Z" fill="#F7D049"/>
<path d="M230.091 81.8836C229.492 77.196 228.692 72.6081 227.992 67.9205C227.593 65.0281 226.793 62.2355 225.594 59.5426C225.194 58.7447 224.694 57.9468 224.094 57.2487C223.195 56.2513 221.795 55.5532 220.496 55.6529C219.097 55.7526 217.797 56.8497 217.697 58.1463V59.7421C217.997 66.8234 219.396 73.8049 221.895 80.3875C222.295 81.2852 222.595 82.2825 223.095 83.0804C223.495 83.7786 224.594 83.5791 224.694 82.6815C224.794 80.4873 223.195 73.9047 223.694 76.0989C224.394 79.3902 226.993 85.6736 227.593 85.1749C227.593 85.1749 228.792 84.1775 227.793 80.6867C228.492 85.5738 231.091 89.663 230.091 81.8836Z" fill="#2E7D83"/>
<path d="M258.679 87.0698L247.584 105.122V105.222L234.59 92.8545C234.59 92.8545 237.289 86.2719 242.786 79.9885C244.885 77.5948 247.384 75.3009 250.282 73.4059L258.679 87.0698Z" fill="#CE684B"/>
<path opacity="0.45" d="M258.678 87.0698L247.584 105.122C243.186 101.532 240.287 95.9463 240.287 89.6629C240.287 86.1721 241.187 82.7811 242.786 79.9885C244.885 77.5948 247.384 75.3009 250.282 73.4059L258.678 87.0698Z" fill="#CE684B"/>
<path d="M244.685 64.4296C244.685 64.4296 249.982 58.246 253.181 64.4296C252.781 63.532 254.98 59.742 255.38 59.0439C259.378 51.2644 267.574 48.771 275.67 51.6634C283.866 54.5557 289.664 61.5373 290.863 70.2143C290.863 70.6133 290.963 70.9125 290.963 71.3114C291.463 76.2983 290.663 84.2772 287.065 88.0672C287.065 88.0672 284.366 90.8598 282.567 95.2482C277.269 107.815 258.478 116.991 248.783 103.526C245.784 99.3374 244.285 94.1511 243.985 89.0645C243.785 86.5711 243.985 83.978 244.385 81.4845C244.485 80.7864 246.284 75.6998 245.884 75.4006C245.884 75.3009 239.387 70.713 244.685 64.4296Z" fill="#CE684B"/>
<path opacity="0.45" d="M260.378 90.6603C259.178 94.1511 260.977 97.9411 264.376 99.3374C265.175 99.6366 264.676 100.933 263.876 100.634C261.777 99.8361 260.078 98.2403 259.178 96.1458C258.379 94.2508 258.379 92.1564 259.078 90.2614C259.378 89.264 260.678 89.7627 260.378 90.6603Z" fill="#CE684B"/>
<path d="M262.377 76.0987C262.377 75.999 262.277 75.999 262.177 75.999C264.176 74.4032 267.074 73.9045 269.573 74.8022C269.973 74.9019 270.373 75.1014 270.573 75.4006C270.873 75.6998 270.873 76.1985 270.673 76.4977C270.373 76.8966 269.873 76.8966 269.473 76.8966C268.574 76.7969 267.674 76.4977 266.775 76.1985C265.875 75.8993 264.975 75.6001 263.976 75.6998C263.476 75.6998 262.876 75.7995 262.377 76.0987Z" fill="#0E0900"/>
<path d="M280.268 80.0883C280.667 80.188 281.067 80.3875 281.367 80.6867C283.466 82.3822 284.466 85.3743 283.966 87.9675C283.966 87.5685 283.866 87.1696 283.766 86.7706C283.766 86.7706 283.766 86.7706 283.766 86.6709C283.666 86.4714 283.566 86.1722 283.466 85.9727C282.966 85.1748 282.267 84.4767 281.567 83.8783C280.867 83.2798 280.168 82.6814 279.568 81.8835C279.268 81.4846 279.068 80.9859 279.268 80.587C279.468 80.188 279.868 79.9885 280.268 80.0883Z" fill="#0E0900"/>
<path opacity="0.45" d="M267.574 94.4503C268.174 95.0487 268.973 95.4477 269.773 95.6471C270.173 95.7469 270.573 95.8466 270.973 95.7469C271.072 95.7469 271.172 95.7469 271.272 95.6471C271.172 95.6471 271.272 95.6471 271.272 95.6471C271.372 95.4477 271.372 95.1484 271.372 94.949C271.572 93.054 271.672 91.159 271.672 89.264C271.672 88.8651 271.872 88.4661 272.272 88.4661C272.672 88.3664 273.072 88.6656 273.072 89.0645C273.072 90.2614 273.072 91.4582 273.072 92.655C273.072 93.2535 272.972 93.7521 272.972 94.3505C272.872 94.949 272.872 95.5474 272.672 96.1458C272.272 97.3426 270.773 97.3426 269.673 97.1432C268.574 96.9437 267.474 96.445 266.675 95.6471C266.375 95.3479 266.275 94.949 266.575 94.6498C266.675 94.2508 267.274 94.1511 267.574 94.4503Z" fill="#CE684B"/>
<path d="M262.177 80.4872C261.577 81.684 261.677 83.0803 262.476 83.4793C263.276 83.9779 264.475 83.2798 265.075 82.0829C265.675 80.8861 265.575 79.4898 264.775 79.0909C263.976 78.6919 262.776 79.2903 262.177 80.4872Z" fill="#0E0900"/>
<path d="M274.671 87.8677C274.071 89.0645 274.171 90.4608 274.971 90.8597C275.77 91.3584 276.97 90.6603 277.569 89.4634C278.169 88.2666 278.069 86.8703 277.269 86.4713C276.47 86.0724 275.27 86.6708 274.671 87.8677Z" fill="#0E0900"/>
<path d="M232.391 90.9596C135.836 84.9754 119.344 227 119.344 227H216.498C214.399 221.315 219.597 204.559 222.595 195.683C223.695 192.391 224.994 189.3 226.393 186.108L257.479 116.692C258.878 113.5 259.278 109.909 258.279 106.518C254.28 93.5527 232.391 90.9596 232.391 90.9596Z" fill="#F7D049"/>
<path d="M212.7 91.9569C212.5 91.159 212.2 90.3611 211.8 89.663C211.6 89.3638 211.3 89.0646 211.001 89.0646C210.801 89.1643 210.701 89.264 210.601 89.5633C210.601 89.7627 210.601 89.9622 210.601 90.1617C210.401 89.8625 210.201 89.4635 209.901 89.4635C209.601 89.4635 209.301 89.663 209.201 90.0619C209.101 90.3611 209.201 90.5606 209.201 90.8598C209.101 90.6604 209.001 90.4609 208.802 90.2614C208.602 90.1617 208.302 90.0619 208.102 90.2614C208.002 90.3611 208.002 90.5606 208.002 90.7601C208.002 91.558 208.202 92.2561 208.502 92.9543C208.602 93.2535 208.802 93.5527 209.101 93.7522C209.401 93.9517 209.701 94.0514 210.001 93.9517C210.301 93.8519 210.501 93.453 210.401 93.1538C210.401 93.5527 210.801 93.7522 211.2 93.6525C211.5 93.5527 211.8 93.1538 211.7 92.8546C211.6 93.1538 211.9 93.453 212.2 93.453C212.5 93.453 212.8 93.1538 212.9 92.9543C212.8 92.5553 212.8 92.2561 212.7 91.9569Z" fill="#0E0900"/>
<path d="M224.095 91.6577C224.195 90.8598 224.195 89.9622 223.995 89.1643C223.895 88.8651 223.795 88.3664 223.395 88.3664C223.195 88.3664 222.995 88.4661 222.895 88.6656C222.795 88.8651 222.695 89.0645 222.695 89.264C222.695 88.8651 222.595 88.4661 222.295 88.3664C221.996 88.2666 221.596 88.3664 221.396 88.6656C221.196 88.8651 221.196 89.1643 221.096 89.3637C221.096 89.1643 220.996 88.8651 220.896 88.6656C220.796 88.4661 220.496 88.3664 220.296 88.4661C220.096 88.5659 220.096 88.6656 219.997 88.8651C219.697 89.5632 219.597 90.3611 219.697 91.159C219.697 91.4582 219.797 91.7574 219.997 92.0566C220.196 92.3558 220.496 92.5553 220.796 92.5553C221.096 92.5553 221.396 92.2561 221.396 91.9569C221.296 92.2561 221.596 92.655 221.896 92.7548C222.295 92.7548 222.595 92.4556 222.695 92.1564C222.495 92.3558 222.695 92.7548 222.995 92.8545C223.295 92.9542 223.595 92.8545 223.795 92.5553C223.995 92.2561 224.095 91.9569 224.095 91.6577Z" fill="#0E0900"/>
<path d="M250.482 118.587L222.595 181.022L215.699 196.58C215.699 196.58 214.199 218.622 209.601 227.1H185.213C185.213 227.1 188.012 205.257 190.81 198.176L192.01 181.62C192.01 181.62 192.21 178.728 192.909 174.04C195.408 157.982 203.804 120.182 229.892 101.631C234.89 98.0409 241.586 98.3401 246.384 102.13C251.382 106.02 253.081 112.802 250.482 118.587Z" fill="#CE684B"/>
<path d="M252.081 119.384L222.595 181.021L192.909 174.04C195.408 157.982 202.805 118.686 228.892 100.036C233.89 96.4451 243.086 96.3453 247.883 100.135C252.881 104.125 254.68 113.6 252.081 119.384Z" fill="#F7D049"/>
<path d="M225.894 98.1408C215.898 101.632 209.701 111.007 205.003 119.883C199.406 130.455 195.208 141.626 192.609 153.295C191.21 159.578 190.21 166.061 189.611 172.544C189.411 172.444 189.111 172.444 188.911 172.345C188.311 172.145 188.011 173.143 188.611 173.342C188.911 173.442 189.311 173.542 189.611 173.641C189.711 173.741 189.91 173.841 190.01 173.741C198.706 176.234 207.502 178.528 216.398 180.423C219.097 181.022 221.696 181.52 224.394 182.019C224.994 182.119 225.294 181.221 224.694 181.022C215.299 179.227 205.903 177.032 196.707 174.539C194.608 173.94 192.609 173.342 190.51 172.843C191.41 161.274 193.909 149.904 197.707 138.933C199.706 133.348 202.005 127.962 204.604 122.676C207.002 117.988 209.601 113.401 212.8 109.311C216.298 104.923 220.596 101.133 225.994 99.2379C226.793 98.839 226.493 97.9414 225.894 98.1408Z" fill="#F7D049"/>
<path d="M251.182 103.327C248.683 99.7364 244.285 97.4425 239.887 98.1406C239.287 98.2404 239.487 99.2377 240.187 99.138C243.985 98.5396 247.883 100.634 250.182 103.626C252.781 107.017 253.281 111.605 252.681 115.794C251.982 120.382 249.982 124.571 247.783 128.56C245.485 132.849 243.086 137.237 240.687 141.526L232.591 156.287C232.291 156.885 233.19 157.384 233.49 156.786C238.588 147.61 243.685 138.434 248.683 129.159C250.982 124.97 253.081 120.581 253.781 115.894C254.28 111.605 253.681 106.917 251.182 103.327Z" fill="#F7D049"/>
<path d="M300.959 60.7394C300.259 56.6502 297.66 52.96 294.062 50.7658C293.562 46.2776 290.564 42.1885 286.465 40.4929C282.367 38.6977 277.27 39.3958 273.771 42.1885C268.174 40.2935 261.877 40.4929 256.38 42.8866C254.281 43.7842 252.082 45.4798 252.282 47.7737C248.883 48.3721 245.485 49.7684 242.986 52.0624C240.487 54.3563 238.688 57.7473 238.788 61.2381C234.99 65.1278 235.29 72.1094 239.288 75.6999C237.988 76.4978 236.989 77.9938 236.889 79.5896C236.789 81.1854 237.688 82.7812 239.188 83.3796C241.187 84.1775 243.386 82.8809 244.585 81.0856C245.685 79.2904 245.885 77.0962 246.084 75.0017C248.283 75.1015 250.382 74.4033 252.182 73.1067C252.182 73.5057 252.182 74.0044 252.381 74.4033C253.081 76.6972 256.08 77.8941 258.179 76.8967C260.778 75.6001 261.377 72.0096 260.878 69.1173C265.475 70.2144 270.673 67.6212 272.672 63.2328C271.572 64.8286 272.872 67.2223 274.671 67.9204C276.47 68.6186 278.569 68.0202 280.368 67.2223C279.769 69.0175 280.368 71.2117 281.868 72.5083C283.367 73.7051 285.566 74.0043 287.265 73.007C286.166 73.9046 285.566 75.5004 285.766 76.9964C285.966 78.4925 287.065 79.6893 288.465 80.2877C287.665 81.4846 287.865 83.2798 288.964 84.1775C286.066 87.369 283.867 91.2587 282.567 95.3479C285.466 95.5474 287.965 93.4529 290.164 91.558C292.962 89.0645 295.861 86.4714 297.66 83.1801C299.459 79.8888 300.059 75.6001 298.16 72.3088C300.659 69.217 301.758 64.8286 300.959 60.7394Z" fill="#0E0900"/>
<path d="M104.451 72.8075C103.651 69.1173 100.553 66.0255 96.9546 65.1278C95.1555 64.7289 93.1564 64.7289 91.3572 64.2302C89.5581 63.7315 87.7589 62.3352 87.659 60.4402C87.559 58.645 89.0583 57.1489 90.0578 55.6529C92.7566 51.2645 90.9574 45.2803 87.2592 41.7895C83.5609 38.2987 78.4633 36.703 73.4656 35.8053C53.1752 32.0154 30.7857 36.5035 15.293 50.1674C12.8941 52.2618 10.5952 54.7552 9.99544 57.8471C9.39572 61.0386 10.6951 64.3299 12.6942 66.8233C14.3934 68.9178 16.4924 70.5136 18.5914 72.0096C18.6914 73.6054 17.392 75.2012 16.1925 76.398C12.994 79.7891 9.79553 83.2798 8.69605 87.768C7.59656 92.2561 9.59563 97.6419 13.9936 99.0382C15.4929 99.5369 17.4919 99.7364 17.7918 101.232C17.9917 102.13 17.4919 102.928 17.292 103.826C16.6923 106.419 18.8913 109.012 21.59 109.61C24.1888 110.209 26.8875 109.211 29.1864 107.815C31.4853 106.419 33.3845 104.524 35.5834 103.028C42.5801 98.2403 52.4755 98.0408 59.6721 102.529C63.4703 104.923 66.6688 108.413 70.8669 110.009C76.2643 112.004 82.2615 110.408 87.659 108.513C89.658 107.815 91.5571 107.117 93.1564 105.721C94.6557 104.324 95.6552 102.13 95.0555 100.135C94.2559 97.5421 91.1573 96.2456 90.3577 93.6524C89.5581 91.0593 91.5571 88.3664 93.8561 86.9701C96.155 85.474 98.8537 84.7759 100.953 83.0804C103.851 80.587 105.351 76.4978 104.451 72.8075Z" fill="#0E0900"/>
<path d="M84.7598 208.748C81.3614 196.481 86.359 186.507 89.9573 174.838C93.9555 161.972 92.2563 149.704 89.4576 136.838C88.558 132.55 88.0582 115.794 82.6608 114.497C81.8611 114.298 71.7659 110.408 57.0728 110.608C43.1793 110.807 32.9841 113.101 32.9841 113.101C32.9841 113.101 4.69736 151.4 22.1891 178.129C27.7865 186.706 23.5885 204.559 20.8898 217.026C20.0901 220.916 19.1906 224.307 18.4909 227H18.6908H54.6739H89.4576H90.2572C89.7574 225.803 88.458 221.814 87.3586 217.924C86.1591 213.635 84.9597 209.446 84.7598 208.748Z" fill="#F26188"/>
<path d="M61.0712 125.967C57.4729 132.051 48.0773 129.956 47.5776 122.875L47.4776 122.177C46.8779 119.783 46.7779 117.29 47.0778 114.896L47.3777 112.303V111.904L47.8774 103.626L65.1693 102.629L64.5696 109.51C64.4696 110.707 64.3697 112.004 64.1698 113.3C64.1698 113.6 64.0698 114.996 63.9699 116.592C63.9699 116.991 63.9699 117.29 63.8699 117.689C63.5701 120.581 62.5705 123.474 61.0712 125.967Z" fill="#F6BAB9"/>
<path opacity="0.5" d="M63.1702 117.689C60.5714 117.889 57.9726 117.589 55.3739 116.791H55.2739C50.4762 115.196 47.4776 110.408 47.7774 105.322L47.8774 103.726L65.1693 102.729L64.5695 109.61C64.4696 110.807 64.3696 112.104 64.1697 113.4C64.1697 113.7 64.0698 115.295 63.9698 116.991C63.67 117.19 63.4701 117.39 63.1702 117.689Z" fill="#F6BAB9"/>
<path d="M27.4868 76.8967C28.5863 76.5975 29.7857 76.7969 31.0851 77.2956C31.4849 69.9151 33.9838 61.637 37.782 55.6528C39.2813 52.7605 41.2803 50.666 43.5793 49.2697C44.7787 48.3721 46.0781 47.7736 47.3775 47.4744C48.277 47.275 49.1766 47.0755 50.0762 46.9757C50.9758 46.7763 51.8754 46.6765 52.7749 46.6765C54.1743 46.5768 55.5736 46.7763 56.973 47.1752C59.5717 47.7736 62.0706 49.1699 64.4694 51.3642C70.0668 55.8523 75.0645 62.8338 77.8632 69.8154C78.9626 68.9178 80.0621 68.3193 81.1616 68.2196C84.7599 67.9204 86.8589 73.4059 86.5591 77.894C86.1593 83.4793 82.361 85.8729 78.7627 87.5685C77.5633 91.4582 75.6642 95.3479 73.3653 98.7389C70.9664 102.728 67.568 105.92 63.27 107.715C63.1701 107.815 63.0701 107.815 62.8702 107.915C62.6703 108.014 62.3704 108.114 62.1705 108.214C61.9706 108.314 61.8707 108.314 61.6708 108.314C61.5708 108.314 61.3709 108.413 61.2709 108.413C60.9711 108.513 60.5713 108.613 60.2714 108.613C59.9716 108.713 59.5717 108.713 59.2719 108.713C59.1719 108.713 58.972 108.713 58.8721 108.713C58.6722 108.713 58.4723 108.713 58.3723 108.713C58.0724 108.713 57.8725 108.713 57.5727 108.613C57.4727 108.613 57.2728 108.613 57.1729 108.613C52.575 108.314 48.377 106.319 44.7787 103.227C41.4802 100.734 38.3817 97.6418 36.0828 94.3505C32.0846 93.8518 27.6867 92.8545 25.5877 87.6682C23.6886 83.6787 23.8885 77.7943 27.4868 76.8967Z" fill="#F6BAB9"/>
<path d="M32.3855 89.7627C32.1856 89.1643 31.186 89.4635 31.386 90.0619C33.385 95.348 33.485 101.232 31.8857 106.618C31.4859 107.915 29.6867 113.799 27.4878 111.804C26.3883 110.807 26.6882 108.812 26.6882 107.516C26.6882 105.92 26.7881 104.424 26.8881 102.828C27.1879 99.3374 27.9875 95.9464 29.087 92.6551C29.2869 92.0566 28.2874 91.7574 28.0875 92.3559C26.988 95.6472 26.1884 99.0382 25.8885 102.529C25.6886 104.224 25.5887 105.92 25.6886 107.715C25.6886 109.211 25.5887 111.007 26.5882 112.203C27.3878 113.201 28.7872 113.4 29.7867 112.602C30.8862 111.804 31.386 110.508 31.8857 109.311C33.0852 106.419 33.7848 103.227 33.8848 100.135C34.1846 96.6445 33.5849 93.054 32.3855 89.7627Z" fill="#F7D049"/>
<path d="M86.7591 95.2482C85.9594 91.7574 84.66 88.2666 82.8609 85.1748C82.561 84.5764 81.6614 85.0751 81.9613 85.6735C83.3606 88.1669 84.4601 90.8598 85.2598 93.5526C85.6596 94.8492 85.9594 96.2455 86.1593 97.5421C86.3592 98.9384 86.4592 100.434 85.7595 101.731C85.1598 102.828 84.0603 103.726 82.7609 103.427C81.5615 103.227 80.8618 102.13 80.3621 101.133C79.1626 98.7389 78.7628 95.8466 78.6629 93.1537C78.5629 89.9621 78.9627 86.7706 79.4625 83.579C79.5624 82.9806 78.5629 82.6814 78.4629 83.2798C78.0631 86.4714 77.5634 89.7627 77.6633 92.9542C77.7633 95.9463 78.1631 99.0381 79.5624 101.731C80.1622 102.828 80.9618 103.825 82.1612 104.224C83.3606 104.623 84.5601 104.224 85.5596 103.427C88.0584 101.631 87.3588 98.0408 86.7591 95.2482Z" fill="#F7D049"/>
<path d="M83.3619 70.9125C83.3619 70.8128 83.3619 70.8128 83.2619 70.713C83.2619 70.6133 83.1619 70.6133 83.1619 70.5136C83.0619 70.4138 83.0619 70.4138 82.9619 70.3141C82.9619 70.3141 82.9619 70.3141 82.8619 70.3141C82.7619 70.3141 82.7619 70.2144 82.6619 70.2144C82.5619 70.2144 82.5619 70.2144 82.4619 70.2144C82.4619 70.2144 82.4619 70.2144 82.3619 70.2144C82.2619 70.2144 82.2619 70.2144 82.1619 70.2144C82.0619 70.2144 82.0619 70.2144 81.9619 70.3141C81.9619 70.3141 81.9619 70.3141 81.8619 70.4138C81.8619 70.4138 81.7619 70.4138 81.7619 70.5136C81.6619 70.5136 81.6619 70.6133 81.5619 70.713C81.5619 70.713 81.5619 70.713 81.5619 70.8128C81.5619 70.9125 81.4619 70.9125 81.4619 71.0122C81.4619 71.0122 81.4619 71.0122 81.4619 71.112C81.4619 71.2117 81.4619 71.2117 81.4619 71.3114C81.4619 71.4112 81.4619 71.5109 81.4619 71.6107C81.4619 71.8101 81.5619 71.9099 81.6619 72.0096C81.7619 72.1093 81.7619 72.1093 81.8619 72.2091C81.9619 72.2091 81.9619 72.3088 82.0619 72.3088C82.0619 72.3088 82.0619 72.3088 82.1619 72.3088C82.2619 72.3088 82.2619 72.3088 82.3619 72.3088C82.4619 72.3088 82.4619 72.3088 82.5619 72.3088C82.6619 72.3088 82.7619 72.2091 82.7619 72.2091C82.8619 72.2091 82.8619 72.1093 82.9619 72.1093C83.0619 72.0096 83.0619 72.0096 83.1619 71.9099C83.1619 71.8101 83.2619 71.7104 83.2619 71.7104C83.2619 71.7104 83.2619 71.7104 83.2619 71.6107C83.2619 71.5109 83.2619 71.5109 83.2619 71.4112C83.3619 71.112 83.3619 71.0122 83.3619 70.9125Z" fill="#F7D049"/>
<path d="M85.0603 74.6027C85.0603 74.503 85.0603 74.503 85.0603 74.4032C85.0603 74.3035 85.0604 74.3035 84.9604 74.2038C84.9604 74.2038 84.9604 74.2038 84.9604 74.104C84.9604 74.0043 84.8604 74.0043 84.7604 73.9045L84.6603 73.8048C84.5603 73.8048 84.5604 73.7051 84.4604 73.7051C84.4604 73.7051 84.4604 73.7051 84.3604 73.7051C84.2604 73.7051 84.2603 73.7051 84.1603 73.7051C84.0603 73.7051 84.0603 73.7051 84.0603 73.7051H83.9604C83.8604 73.7051 83.8604 73.7051 83.7604 73.8048C83.7604 73.8048 83.6603 73.8048 83.6603 73.9045C83.6603 73.9045 83.5603 73.9045 83.5603 74.0043L83.4604 74.104C83.4604 74.2038 83.3604 74.2038 83.3604 74.3035C83.3604 74.4032 83.3604 74.503 83.3604 74.503C83.3604 74.6027 83.3604 74.7024 83.3604 74.7024C83.3604 74.8022 83.3604 74.8022 83.4604 74.9019L83.5603 75.0016C83.6603 75.1014 83.6604 75.1014 83.7604 75.1014C83.8604 75.1014 83.8604 75.2011 83.9604 75.2011C84.0604 75.2011 84.0603 75.2011 84.1603 75.2011C84.1603 75.2011 84.1604 75.2011 84.2604 75.2011C84.3604 75.2011 84.3604 75.2011 84.4604 75.2011C84.4604 75.2011 84.4603 75.2011 84.5603 75.2011C84.6603 75.2011 84.6604 75.2011 84.7604 75.1014L84.8604 75.0016L84.9604 74.9019C84.9604 74.8022 85.0603 74.8022 85.0603 74.7024C85.0603 74.7024 85.0603 74.7024 85.0603 74.6027Z" fill="#F7D049"/>
<path d="M85.5607 78.6919C85.5607 78.5922 85.4607 78.5922 85.4607 78.4925C85.4607 78.3927 85.3607 78.3927 85.3607 78.293C85.2607 78.1933 85.2607 78.1933 85.1607 78.0935C85.0607 77.9938 84.9607 77.9938 84.8607 77.9938C84.7607 77.9938 84.7607 77.9938 84.6607 77.9938C84.5607 77.9938 84.5607 77.9938 84.4607 77.9938C84.4607 77.9938 84.3607 77.9938 84.3607 78.0935C84.2607 78.0935 84.2607 78.0935 84.1607 78.1933C84.0607 78.293 83.8607 78.3927 83.8607 78.5922C83.8607 78.6919 83.7607 78.7917 83.7607 78.7917C83.7607 78.8914 83.7607 78.9911 83.7607 79.0909C83.7607 79.2904 83.7607 79.3901 83.8607 79.5896C83.8607 79.6893 83.9607 79.6893 84.0607 79.789C84.1607 79.8888 84.2607 79.8888 84.3607 79.9885C84.4607 79.9885 84.5607 79.9885 84.6607 79.9885C84.7607 79.9885 84.8607 79.9885 84.9607 79.9885C85.0607 79.9885 85.1607 79.8888 85.1607 79.8888C85.2607 79.8888 85.2607 79.789 85.3607 79.789C85.4607 79.6893 85.4607 79.6893 85.5607 79.5896C85.6607 79.4898 85.6607 79.3901 85.6607 79.3901C85.6607 79.3901 85.6607 79.3901 85.6607 79.2904C85.6607 79.1906 85.6607 79.1906 85.6607 79.0909C85.5607 78.8914 85.5607 78.7917 85.5607 78.6919Z" fill="#F7D049"/>
<path opacity="0.5" d="M49.1763 90.0619C49.3762 89.3638 49.776 88.6656 50.0759 87.9674C50.4757 87.1696 50.7756 86.3717 50.9755 85.5738C51.3753 83.8783 51.5752 82.1827 51.3753 80.587C51.3753 80.0883 51.7751 79.6893 52.1749 79.6893C52.6747 79.6893 52.9745 80.0883 52.9745 80.4872C53.2744 83.2798 52.6747 86.1722 51.4752 88.7653C50.9755 89.7627 50.2758 90.8598 51.3753 91.6577C52.4748 92.4556 53.9741 91.8572 55.1735 91.558C56.173 91.2588 56.6728 92.8545 55.5733 93.1537C53.9741 93.6524 52.3748 94.0514 50.8755 93.3532C49.5761 92.8545 48.8764 91.558 49.1763 90.0619Z" fill="#F6BAB9"/>
<path d="M65.2691 76.4977C64.9693 76.398 64.6694 76.5975 64.5695 76.8967C64.5695 76.8967 64.5695 76.9964 64.4695 76.9964C64.4695 76.9964 64.4695 76.9964 64.4695 77.0962L64.3696 77.1959C64.3696 77.1959 64.2696 77.1959 64.2696 77.2956C64.2696 77.2956 64.2696 77.2956 64.1697 77.2956H64.0697H63.9697C63.8698 77.2956 63.8698 77.2956 63.7698 77.2956C63.7698 77.2956 63.7698 77.2956 63.6699 77.2956H63.5699C63.1701 76.6972 62.6704 76.398 62.0706 76.4977C60.9712 76.5975 60.2715 77.9938 60.2715 79.5896C60.3714 81.1854 61.271 82.3822 62.2705 82.1827C63.37 82.083 64.0697 80.6867 64.0697 79.0909C64.0697 78.8914 64.0697 78.5922 63.9697 78.3927C64.1697 78.3927 64.2696 78.3927 64.4695 78.293C64.9693 78.0935 65.469 77.6946 65.6689 77.0962C65.6689 76.8967 65.469 76.4977 65.2691 76.4977Z" fill="#0E0900"/>
<path d="M45.5785 79.3901C44.9788 79.4898 44.379 79.9885 44.0792 80.6867H43.9792C43.9792 80.6867 43.8793 80.6867 43.8793 80.5869L43.7793 80.4872C43.7793 80.4872 43.7793 80.3875 43.6794 80.3875C43.5794 80.0882 43.1796 79.9885 42.9797 80.188C42.6798 80.3875 42.5799 80.6867 42.7798 80.8861C42.8797 81.0856 43.0796 81.2851 43.2795 81.4846C43.4795 81.5843 43.6794 81.684 43.8793 81.7838C43.8793 81.9832 43.8793 82.1827 43.8793 82.4819C43.9792 84.0777 44.8788 85.2745 45.8783 85.0751C46.9778 84.9753 47.6775 83.579 47.6775 81.9832C47.4776 80.4872 46.578 79.2904 45.5785 79.3901Z" fill="#0E0900"/>
<path d="M44.9787 71.3115C44.5789 71.2117 44.1791 71.3115 43.8793 71.4112C41.6803 72.1093 40.2809 74.503 40.4809 77.0962C40.5808 76.6972 40.6808 76.398 40.8807 75.9991C40.9806 75.7996 41.0806 75.6001 41.2805 75.5004C41.7802 74.902 42.5799 74.6028 43.3795 74.3035C44.1791 74.0043 44.8788 73.7051 45.5785 73.2064C45.8783 73.007 46.1782 72.608 45.9783 72.1093C45.7784 71.7104 45.3786 71.4112 44.9787 71.3115Z" fill="#0E0900"/>
<path d="M59.0723 68.0202C59.3722 67.721 59.672 67.5215 60.0718 67.4218C62.3707 66.7236 64.5697 67.9204 65.6692 70.3141C65.4693 70.0149 65.1694 69.8154 64.8696 69.616C64.8696 69.616 64.8696 69.616 64.7696 69.616C64.5697 69.5162 64.3698 69.4165 64.1699 69.4165C63.4702 69.217 62.6706 69.4165 61.871 69.616C61.0714 69.8154 60.2717 70.0149 59.5721 69.9152C59.1722 69.9152 58.7724 69.7157 58.6725 69.3168C58.5725 68.8181 58.7724 68.3194 59.0723 68.0202Z" fill="#0E0900"/>
<path opacity="0.5" d="M63.2706 92.8545C61.1716 95.6472 57.5733 97.1432 54.0749 96.844C53.0754 96.7443 52.9755 98.34 53.975 98.34C58.0731 98.6392 62.0712 96.844 64.47 93.5527C65.1697 92.8545 63.8703 92.0566 63.2706 92.8545Z" fill="#F6BAB9"/>
<path d="M1.29997 129.258C0.70025 130.854 0.400391 131.851 0.400391 131.851H48.4778V108.314L34.3844 107.516C19.7913 106.618 6.29762 115.495 1.29997 129.258Z" fill="#F26188"/>
<path d="M32.0856 182.917C35.2841 184.313 37.9828 186.906 39.8819 189.898C41.781 192.89 42.8805 196.281 43.4802 199.772C44.6797 206.255 44.08 212.937 43.5802 219.62C43.4802 221.215 43.1804 223.011 41.9809 224.008C40.3817 225.305 37.7829 224.407 36.5835 222.612C35.484 220.916 35.384 218.722 35.484 216.627C35.8838 210.942 37.4831 205.158 35.6839 199.772C34.2846 195.683 30.9861 192.491 27.8876 189.599C24.6891 186.707 21.3906 183.615 19.6914 179.725L32.0856 182.917Z" fill="#0E0900"/>
<path d="M31.0858 132.051C31.4856 134.145 33.0848 136.04 35.1839 136.639C36.1834 136.938 37.3828 136.938 38.2824 137.437C40.0816 138.235 40.9811 140.13 41.9807 141.725C42.8802 143.022 43.8798 144.319 45.3791 144.917C46.0787 145.216 46.8784 145.316 47.678 145.216C48.0778 145.116 48.4776 145.017 48.7775 144.817C48.8774 144.718 49.0773 144.618 49.1773 144.618C49.3772 144.518 49.4771 144.319 49.6771 144.219C50.0769 143.72 50.2768 143.221 50.4767 142.623C50.5766 142.224 50.5766 141.825 50.5766 141.326C50.4767 140.329 50.0769 139.332 49.5771 138.434C48.0778 135.442 45.6789 132.949 42.8802 131.153C41.7808 130.455 40.8812 129.458 40.2815 128.261C40.1815 128.062 40.0816 127.862 39.9816 127.663C39.2819 126.466 38.0825 125.568 36.6832 125.369C35.4837 125.169 34.1843 125.668 33.1848 126.366C31.5856 127.663 30.686 129.957 31.0858 132.051Z" fill="#0E0900"/>
<path d="M49.0774 141.526C49.4774 142.424 49.5774 143.521 49.2774 144.618C49.4774 144.518 49.5774 144.319 49.7774 144.219C50.1774 143.72 50.3774 143.222 50.5774 142.623C50.4774 142.025 50.3774 141.526 50.0774 141.027C49.9774 140.728 49.5774 140.728 49.2774 140.828C48.9774 140.928 48.9774 141.227 49.0774 141.526Z" fill="white"/>
<path d="M47.0784 141.925C47.5784 142.922 47.7784 144.119 47.7784 145.216C48.1784 145.117 48.5784 145.017 48.8784 144.817C48.8784 143.62 48.5784 142.424 48.0784 141.327C47.9784 141.027 47.5784 141.027 47.2784 141.127C46.9784 141.327 46.9784 141.626 47.0784 141.925Z" fill="white"/>
<path d="M17.692 124.471C20.7905 114.498 26.9876 105.222 36.0834 100.235C39.5817 98.3403 43.5798 97.0438 47.478 97.6422C51.3762 98.2406 55.0744 101.133 55.7741 105.023C56.2739 108.214 54.3748 111.506 51.676 113.101C48.4775 114.996 45.6789 117.589 44.1796 120.98C42.2805 125.169 40.2814 130.555 40.5812 134.545C41.081 142.224 43.5798 149.705 46.1786 156.985C48.7774 164.266 51.3762 171.647 51.9759 179.426C52.1758 182.717 52.0759 186.208 50.2767 189.001C47.478 193.589 41.181 195.085 35.9834 193.888C28.287 192.192 22.1899 185.809 18.9914 178.528C15.7929 171.248 15.0932 163.269 14.7934 155.29C14.3935 144.917 14.6934 134.345 17.692 124.471Z" fill="white"/>
<path d="M37.6824 109.71C38.0822 110.907 39.0817 111.904 40.1812 112.602C41.2807 113.301 42.4801 113.699 43.7795 113.999C47.078 114.697 50.6763 114.398 53.7748 113.101C55.0742 112.602 56.3736 111.804 57.1732 110.707C58.0728 109.61 58.4726 108.114 57.8729 106.818C57.8729 106.818 56.5735 104.225 55.0742 102.23C54.5745 101.631 54.1746 101.033 53.6749 100.534C52.2755 99.2377 50.6763 98.2403 48.7772 97.7416C48.1775 97.5422 47.4778 97.4424 46.7781 97.4424C44.1793 97.243 41.5806 98.1406 39.7814 100.036C38.2821 101.631 37.4825 103.826 37.1826 105.92C37.1826 107.217 37.1826 108.513 37.6824 109.71Z" fill="white"/>
<path d="M43.9799 108.215C44.6796 109.113 45.879 109.811 46.9785 109.511C47.7781 109.312 48.4778 108.714 48.9775 108.115C49.9771 106.918 50.7767 105.522 51.7762 104.325C52.6758 103.328 53.8752 102.43 55.1746 102.231C54.6749 101.632 54.2751 101.034 53.7753 100.535C52.3759 99.2386 50.7767 98.2412 48.8776 97.7426C48.3778 97.8423 47.978 98.0418 47.5782 98.2412C45.779 99.1389 44.1798 100.535 43.3802 102.43C42.5805 104.325 42.7804 106.619 43.9799 108.215Z" fill="#0E0900"/>
<path d="M49.0776 104.823C49.0776 104.623 48.9776 104.424 48.7777 104.224C48.4779 103.826 48.178 103.526 47.7782 103.227C47.4783 103.028 46.9786 102.728 46.5788 102.828C46.2789 102.828 45.979 103.028 45.8791 103.227C45.6792 103.526 45.7791 103.826 45.8791 104.125C46.079 104.524 46.3789 104.823 46.6787 105.122C46.7787 105.222 46.8786 105.222 46.9786 105.322C47.3784 105.621 47.7782 105.82 48.278 105.92C48.4779 105.92 48.6778 105.721 48.7777 105.521C49.0776 105.421 49.1775 105.122 49.0776 104.823Z" fill="white"/>
<path d="M53.0756 101.232C53.0756 101.033 52.9757 100.833 52.7758 100.634C52.4759 100.235 52.1761 99.9359 51.7762 99.6367C51.4764 99.4372 50.9766 99.138 50.5768 99.2377C50.2769 99.2377 49.9771 99.4372 49.8771 99.6367C49.6772 99.9359 49.7772 100.235 49.8771 100.534C50.077 100.933 50.3769 101.232 50.6768 101.532C50.7767 101.631 50.8767 101.631 50.9766 101.731C51.3764 102.03 51.7762 102.23 52.276 102.33C52.4759 102.33 52.6758 102.13 52.7758 101.931C52.9757 101.831 53.0756 101.532 53.0756 101.232Z" fill="white"/>
<path d="M55.2746 106.02C56.0742 105.521 57.1737 105.521 57.9733 106.119C58.3731 106.419 58.673 106.917 58.573 107.416C58.573 107.715 58.2732 108.014 57.9733 108.214C57.6735 108.613 57.1737 108.812 56.6739 108.812C55.9743 108.812 55.3745 108.513 54.8748 108.014C54.6749 107.815 54.375 107.516 54.375 107.217C54.475 106.718 54.8748 106.319 55.2746 106.02Z" fill="#0E0900"/>
<path d="M34.0843 101.232C34.3842 100.135 34.9839 99.1379 35.9834 98.739C36.6831 98.4398 37.3828 98.4398 38.0824 98.6393C38.7821 98.8387 39.3818 99.2377 39.8816 99.7364C40.1815 100.135 40.4813 100.534 40.4813 101.033L40.8811 101.731C40.6812 102.629 40.1815 103.526 39.4818 104.224C38.7821 104.923 37.8825 105.322 36.883 105.322C35.8835 105.322 34.9839 104.823 34.3842 104.025C33.9844 103.227 33.8844 102.23 34.0843 101.232Z" fill="#0E0900"/>
<path d="M35.884 101.332C35.984 100.734 36.3838 100.235 36.8835 100.036C37.2833 99.8361 37.6832 99.8361 37.983 99.9359C38.3828 100.036 38.6827 100.235 38.9825 100.534C39.1825 100.734 39.2824 100.933 39.2824 101.232L39.4823 101.631C39.3824 102.13 39.0825 102.629 38.7826 102.928C38.3828 103.327 37.8831 103.526 37.3833 103.526C36.8835 103.526 36.3838 103.227 36.0839 102.828C35.784 102.429 35.784 101.931 35.884 101.332Z" fill="#EFA691"/>
<path d="M38.3823 173.043C39.082 171.846 43.38 166.261 44.8793 164.764C45.9788 163.767 47.578 162.77 49.1773 163.169C50.0768 163.368 50.6766 164.066 51.3762 164.665C53.7751 167.158 56.174 169.652 58.4729 172.045C60.1721 173.741 61.7714 175.536 63.3706 177.231C64.57 178.528 65.7695 180.124 65.1698 181.72C64.67 183.116 62.9708 184.014 61.2716 184.014C59.5724 184.014 58.0731 183.216 56.7737 182.318C53.8751 180.323 51.6761 177.63 50.5766 174.539C50.5766 176.234 49.777 177.93 48.4776 179.126C47.0783 180.323 45.2791 181.021 43.38 181.021C41.181 181.121 38.8821 180.323 37.8826 178.628C36.7831 176.932 37.3828 174.738 38.3823 173.043Z" fill="#0E0900"/>
<path d="M57.0738 108.015C57.0738 107.715 56.8739 107.516 56.574 107.516C56.2742 107.516 56.0743 107.715 56.0743 108.015C56.1742 108.912 55.7744 109.81 54.9748 110.408C54.1752 111.007 53.0757 111.106 52.2761 110.707C52.0761 110.608 51.7763 110.608 51.5764 110.907C51.4764 111.106 51.4764 111.505 51.7763 111.605C52.9757 112.203 54.3751 112.104 55.4745 111.306C56.574 110.508 57.1737 109.311 57.0738 108.015Z" fill="#0E0900"/>
<path d="M75.1648 186.906C75.1648 187.006 75.1648 187.006 75.1648 186.906L55.574 179.825L42.4801 174.938L35.6833 172.444C31.9851 161.274 25.2882 157.783 22.5895 156.786C21.7899 156.486 21.0902 155.988 20.4905 155.389C19.5909 154.392 18.7913 153.694 18.1915 153.195C16.7922 152.198 14.1934 153.993 15.4928 155.19C17.7917 157.384 22.8893 162.67 22.3896 163.568L14.4933 156.885C13.9935 156.486 13.6937 155.988 13.4937 155.389C12.1944 149.904 9.79549 150.602 9.79549 150.602C8.79595 151.599 9.09581 153.694 9.09581 153.694L8.49609 155.589C7.79642 159.478 13.5937 164.266 13.5937 164.266C17.5918 171.746 29.5862 179.625 29.5862 179.625C31.7852 182.617 34.5838 185.709 37.8823 188.901C41.9804 192.99 46.7781 197.179 51.6758 201.168C66.3689 213.037 78.0634 212.538 86.9593 205.856C85.36 198.276 81.062 191.594 75.1648 186.906Z" fill="#F6BAB9"/>
<path d="M16.5919 163.568C13.3934 161.274 10.8945 158.082 9.49521 154.492C9.19535 153.793 7.99591 154.093 8.29577 154.791C9.89502 158.681 12.4938 162.072 15.9922 164.565C16.6918 165.064 17.2915 163.967 16.5919 163.568Z" fill="#F6BAB9"/>
<path d="M108.249 149.904C108.249 165.163 104.55 180.423 98.3532 191.993C95.3546 197.677 91.5564 202.565 87.0585 205.856C85.3593 198.276 81.0613 191.594 75.1641 186.906C82.7605 164.465 82.9604 142.224 80.7614 113.899C80.7614 113.999 106.449 115.694 108.249 149.904Z" fill="#F26188"/>
<path d="M81.0612 143.321C81.0612 155.09 79.8618 166.759 77.4629 178.329C76.7632 181.52 76.0636 184.712 75.164 187.903C74.9641 188.502 75.9636 188.801 76.1635 188.203C79.2621 176.833 81.0612 165.163 81.7609 153.494C81.9608 150.103 82.0607 146.812 82.0607 143.421C82.0607 142.623 81.0612 142.623 81.0612 143.321Z" fill="#F26188"/>
<path d="M0 134.644C0 135.442 0.0999531 136.34 0.199906 137.137C0.799625 141.626 4.19803 145.316 8.59596 146.413C18.9911 148.906 41.5805 151.799 65.1694 139.232L67.0685 129.558L9.89535 123.972C4.39793 124.571 0 129.159 0 134.644Z" fill="#F6BAB9"/>
<path d="M72.7654 152.297C72.7654 152.297 67.268 152.696 65.069 154.691C63.9695 155.688 64.8691 157.484 66.2684 157.284C67.268 157.184 68.7673 156.786 70.9662 155.788L72.7654 152.297Z" fill="#F6BAB9"/>
<path d="M73.2656 155.389C73.0657 155.589 72.8658 155.788 72.6659 156.087C71.3665 157.583 69.8672 158.98 68.268 159.977C68.268 159.977 68.268 159.977 68.168 159.977C67.6682 159.877 64.2698 159.079 68.9676 154.192L70.5669 152.497C71.0666 153.394 71.8663 154.492 73.2656 155.389Z" fill="#F6BAB9"/>
<path d="M81.2616 141.725C80.9617 142.324 78.0631 149.704 73.2653 155.289C71.866 154.492 71.0664 153.394 70.4666 152.198L73.865 148.507C73.865 148.507 73.5652 144.717 74.5647 142.922C74.5647 142.922 68.8674 140.329 67.7679 136.24L65.9688 135.641L67.1682 129.557C67.0682 129.557 76.3639 130.256 81.2616 141.725Z" fill="#F6BAB9"/>
<path opacity="0.74" d="M65.1689 139.232L65.8686 135.641L67.6678 136.24C68.8672 140.329 74.4646 142.922 74.4646 142.922C73.4651 144.717 73.7649 148.507 73.7649 148.507L70.3665 152.198C69.1671 149.604 69.5669 146.912 69.5669 146.912C66.6682 146.513 65.1689 139.232 65.1689 139.232Z" fill="#F6BAB9"/>
<path d="M81.1619 141.825L78.4631 155.688C77.9634 157.883 71.6663 160.476 69.1675 160.675C68.5678 160.775 68.168 160.276 68.168 159.877C68.168 159.678 68.168 159.379 68.3679 159.179C69.3674 157.883 71.4664 156.686 72.6659 155.988C73.1656 155.688 73.5654 155.489 73.5654 155.489C73.4655 155.389 73.3655 155.389 73.2656 155.289C77.9634 149.704 80.962 142.423 81.1619 141.825Z" fill="#F6BAB9"/>
<path d="M68.368 49.0703C66.6688 47.4745 64.7697 46.0782 62.6707 45.0808C56.9733 42.2882 50.1765 42.5874 44.4792 45.2803C37.3825 48.5716 32.2849 55.7526 30.4858 63.3326C30.2859 64.33 30.086 65.3273 29.986 66.3247C29.986 66.4244 29.986 66.6239 29.986 66.7236C29.7861 69.0176 29.7861 71.2118 30.086 73.5057C30.1859 74.1041 30.2859 74.7025 30.3858 75.301C30.5857 76.1986 30.7856 77.1959 31.0855 78.0936C31.1854 78.4925 32.2849 80.587 32.085 80.7865C36.283 73.6054 43.5796 68.3194 51.7758 66.5241C59.9719 64.7289 68.7678 66.5242 75.5646 71.4112C75.4646 71.3115 76.0644 68.0202 76.0644 67.6213C76.1643 66.1252 76.0644 64.6292 75.8645 63.2329C74.9649 57.8471 72.2662 52.7605 68.368 49.0703Z" fill="#0E0900"/>
<path d="M24.2889 128.66C24.6887 130.754 26.288 132.649 28.387 133.248C29.3865 133.547 30.586 133.547 31.4855 134.046C33.2847 134.844 34.1843 136.739 35.1838 138.334C36.0834 139.631 37.0829 140.927 38.5822 141.526C39.2819 141.825 40.0815 141.925 40.8811 141.825C41.2809 141.725 41.6807 141.626 41.9806 141.426C42.0806 141.326 42.2805 141.227 42.3804 141.227C42.5803 141.127 42.6803 140.927 42.8802 140.828C43.28 140.329 43.4799 139.83 43.6798 139.232C43.7798 138.833 43.7798 138.434 43.7798 137.935C43.6798 136.938 43.28 135.941 42.7802 135.043C41.2809 132.051 38.8821 129.558 36.0834 127.762C34.9839 127.064 34.0843 126.067 33.4846 124.87C33.3846 124.67 33.2847 124.471 33.1847 124.271C32.4851 123.075 31.2856 122.177 29.8863 121.978C28.6868 121.778 27.3875 122.277 26.3879 122.975C24.7887 124.172 23.8891 126.466 24.2889 128.66Z" fill="#0E0900"/>
<path d="M42.2805 138.035C42.6805 138.933 42.7805 140.03 42.4805 141.127C42.6805 141.027 42.7805 140.828 42.9805 140.728C43.3805 140.229 43.5805 139.731 43.7805 139.132C43.6805 138.534 43.5805 138.035 43.2805 137.536C43.1805 137.237 42.7805 137.237 42.4805 137.337C42.1805 137.437 42.1805 137.836 42.2805 138.035Z" fill="white"/>
<path d="M40.2815 138.434C40.7815 139.431 40.9815 140.628 40.9815 141.725C41.3815 141.626 41.7815 141.526 42.0815 141.326C42.0815 140.229 41.7815 139.032 41.2815 137.836C41.1815 137.536 40.7815 137.536 40.4815 137.636C40.1815 137.836 40.1815 138.235 40.2815 138.434Z" fill="white"/>
</g>
<defs>
<clipPath id="clip0">
<rect width="639" height="227" fill="white"/>
</clipPath>
</defs>
</svg>
