<svg viewBox="0 0 74 74" fill="none" xmlns="http://www.w3.org/2000/svg">
<path fill-rule="evenodd" clip-rule="evenodd" d="M37.1762 21.8164C36.6652 21.8164 36.251 22.2306 36.251 22.7416V35.7664H22.508C21.9971 35.7664 21.583 36.1805 21.583 36.6914C21.583 37.2023 21.9971 37.6164 22.508 37.6164L36.251 37.6164V51.7245C36.251 52.2355 36.6652 52.6497 37.1762 52.6497C37.6872 52.6497 38.1014 52.2355 38.1014 51.7245V37.6164L51.4913 37.6164C52.0022 37.6164 52.4163 37.2023 52.4163 36.6914C52.4163 36.1805 52.0022 35.7664 51.4913 35.7664H38.1014V22.7416C38.1014 22.2306 37.6872 21.8164 37.1762 21.8164Z" fill="#B9B9B9"/>
<rect x="1" y="1" width="72" height="72" rx="5" stroke="#B9B9B9" stroke-width="2"/>
</svg>
