<svg className='avatar' width="210" height="210" fill="none" xmlns="http://www.w3.org/2000/svg"><circle cx="105" cy="105" r="104" fill="#EEE" stroke="#AAA" stroke-width="2"/><mask id="a" fill="#fff"><path fill-rule="evenodd" clip-rule="evenodd" d="M26.25 174.453v-3.828c0-26.184 52.467-39.375 78.75-39.375s78.75 13.191 78.75 39.375v3.828C164.51 196.251 136.361 210 105 210c-31.36 0-59.51-13.749-78.75-35.547ZM105 43.75c-21.755 0-39.375 17.62-39.375 39.375S83.245 122.5 105 122.5s39.375-17.62 39.375-39.375S126.755 43.75 105 43.75Z"/></mask><path fill-rule="evenodd" clip-rule="evenodd" d="M26.25 174.453v-3.828c0-26.184 52.467-39.375 78.75-39.375s78.75 13.191 78.75 39.375v3.828C164.51 196.251 136.361 210 105 210c-31.36 0-59.51-13.749-78.75-35.547ZM105 43.75c-21.755 0-39.375 17.62-39.375 39.375S83.245 122.5 105 122.5s39.375-17.62 39.375-39.375S126.755 43.75 105 43.75Z" fill="#EEE"/><path d="M26.25 174.453h-2v.756l.5.567 1.5-1.323Zm157.5 0 1.499 1.323.501-.567v-.756h-2Zm-155.5 0v-3.828h-4v3.828h4Zm0-3.828c0-5.812 2.895-11.05 7.965-15.729 5.083-4.692 12.219-8.685 20.298-11.921 16.16-6.474 35.596-9.725 48.487-9.725v-4c-13.391 0-33.332 3.345-49.975 10.012-8.323 3.334-15.947 7.548-21.523 12.694-5.589 5.159-9.252 11.388-9.252 18.669h4ZM105 133.25c12.891 0 32.326 3.251 48.487 9.725 8.079 3.236 15.215 7.229 20.298 11.921 5.07 4.679 7.965 9.917 7.965 15.729h4c0-7.281-3.663-13.51-9.252-18.669-5.576-5.146-13.2-9.36-21.523-12.694-16.643-6.667-36.584-10.012-49.975-10.012v4Zm76.75 37.375v3.828h4v-3.828h-4Zm.501 2.504C163.374 194.516 135.763 208 105 208v4c31.958 0 60.646-14.013 80.249-36.224l-2.998-2.647ZM105 208c-30.763 0-58.374-13.484-77.25-34.871l-3 2.647C44.355 197.987 73.043 212 105 212v-4ZM67.625 83.125c0-20.65 16.725-37.375 37.375-37.375v-4c-22.86 0-41.375 18.516-41.375 41.375h4ZM105 120.5c-20.65 0-37.375-16.725-37.375-37.375h-4c0 22.859 18.516 41.375 41.375 41.375v-4Zm37.375-37.375c0 20.65-16.725 37.375-37.375 37.375v4c22.859 0 41.375-18.516 41.375-41.375h-4ZM105 45.75c20.65 0 37.375 16.725 37.375 37.375h4c0-22.86-18.516-41.375-41.375-41.375v4Z" fill="#AAA" mask="url(#a)"/></svg>