<svg width="360" height="372" viewBox="0 0 360 372" fill="none" xmlns="http://www.w3.org/2000/svg">
<circle cx="180" cy="191.518" r="180" fill="#F1F1F1"/>
<path d="M230.245 197.472C228.012 208.306 215.004 211.811 177.143 211.174C139.282 211.811 126.273 208.306 124.04 197.472C121.808 183.558 127.244 168.156 135.593 151.162C138.117 145.957 140.156 140.646 141.709 135.654C142.971 131.618 143.845 127.794 144.621 124.289C145.107 122.165 145.398 120.146 145.689 118.341C145.883 117.066 146.077 115.898 146.175 114.942C146.175 114.729 146.272 114.517 146.272 114.198C146.369 113.667 146.369 113.136 146.466 112.711C146.466 112.286 146.563 111.862 146.563 111.437C146.757 109.525 146.854 108.463 146.854 108.463L151.223 108.25L153.164 108.144L157.63 107.932L173.066 107.294C173.066 107.082 173.066 106.976 173.066 106.976L177.143 107.188L181.22 106.976C181.22 106.976 181.22 107.082 181.22 107.294L203.646 108.144L206.364 108.25H207.432C207.432 108.25 207.432 108.463 207.432 108.887C207.432 109.1 207.432 109.312 207.529 109.631C207.529 110.268 207.626 111.012 207.723 111.968C207.723 112.286 207.82 112.711 207.82 113.136C207.917 114.411 208.111 116.004 208.305 117.703C208.402 118.235 208.5 118.872 208.597 119.509C208.791 120.784 208.985 122.165 209.179 123.545C209.762 126.944 210.441 130.768 211.315 134.91C211.315 135.017 211.412 135.229 211.412 135.335C211.606 136.079 211.703 136.929 211.897 137.672C212.868 141.921 214.033 146.382 215.489 150.949C220.44 167.2 232.381 184.089 230.245 197.472Z" fill="#C69C6D"/>
<path d="M121.906 54.2925C120.256 49.7252 119.77 44.5206 118.994 36.4482C117.926 24.6582 117.441 14.78 116.858 8.72568C116.178 0.971882 120.159 2.45891 122.877 3.73351C127.828 5.96406 134.915 11.1687 138.507 14.0365C144.137 18.4976 152.875 30.9249 152.68 36.7668C147.147 44.4144 137.148 52.2744 121.906 54.2925Z" fill="#C69C6D"/>
<path d="M152.679 36.7666C152.387 37.0852 152.096 37.5101 151.805 37.8287C149.96 31.4557 142.874 21.8963 138.117 18.0725C134.525 15.2046 127.438 10 122.487 7.76946C120.448 6.81351 117.827 5.75134 116.759 8.30054C116.274 0.865382 120.06 2.35241 122.875 3.62701C127.826 5.85756 134.913 11.0622 138.505 13.93C144.136 18.4973 152.97 30.9247 152.679 36.7666Z" fill="#C69C6D"/>
<path d="M126.761 53.4422C125.499 49.9371 125.984 45.3698 125.304 39.2092C124.237 30.1808 123.654 22.6394 123.169 18.0721C122.586 12.124 125.207 13.3986 127.052 14.4608C130.45 16.2665 135.207 20.5151 137.633 22.7457C141.42 26.2508 149.089 36.66 149.089 41.0149C145.691 46.6443 136.76 52.2738 126.761 53.4422Z" fill="#754C24"/>
<path opacity="0.35" d="M149.089 40.2711C146.468 35.9162 142.779 31.2427 140.449 29.1184C138.022 26.8879 133.168 22.6392 129.868 20.8335C128.023 19.7714 125.402 18.4968 125.985 24.4449C126.47 29.1184 127.052 36.5535 128.12 45.5819C128.412 48.4498 128.509 50.8927 128.606 53.1233C128.023 53.2295 127.441 53.3357 126.858 53.3357C125.596 49.8306 126.082 45.2633 125.402 39.1027C124.334 30.0743 123.752 22.533 123.266 17.9657C122.684 12.0176 125.305 13.2922 127.149 14.3543C130.547 16.16 135.304 20.4087 137.731 22.6392C141.323 26.0381 148.313 35.4914 149.089 40.2711Z" fill="#A62E3A"/>
<path d="M206.075 29.3313C208.211 38.8907 234.908 55.8854 238.694 52.3802C241.412 49.831 241.703 34.6421 241.8 30.7121C242.092 18.8158 240.733 10.531 241.703 6.06986C242.674 1.60877 239.47 -2.63988 232.578 2.03364C225.782 6.60094 213.647 16.5853 206.075 29.3313Z" fill="#3D243E"/>
<path d="M206.075 29.3313C208.211 38.8907 234.908 55.8854 238.694 52.3802C241.412 49.831 241.703 34.6421 241.8 30.7121C242.092 18.8158 240.733 10.531 241.703 6.06986C242.674 1.60877 239.47 -2.63988 232.578 2.03364C225.782 6.60094 213.647 16.5853 206.075 29.3313Z" fill="#3D243E"/>
<path d="M206.075 29.3313C208.211 38.8907 234.908 55.8854 238.694 52.3802C241.412 49.831 241.703 34.6421 241.8 30.7121C242.092 18.8158 240.733 10.531 241.703 6.06986C242.674 1.60877 239.47 -2.63988 232.578 2.03364C225.782 6.60094 213.647 16.5853 206.075 29.3313Z" fill="#C69C6D"/>
<path opacity="0.5" d="M238.986 52.3795C238.694 52.8044 238.112 52.9106 237.432 52.9106C238.888 47.9184 239.277 36.5533 239.471 33.2606C239.956 21.3644 238.888 13.1857 239.762 8.61839C240.636 4.1573 238.112 -0.0913552 232.384 4.68838C231.122 5.75055 229.569 7.13136 228.016 8.7246C230.637 5.96298 232.967 3.73243 234.908 2.13919C240.636 -2.64055 243.16 1.60811 242.286 6.06919C241.413 10.5303 242.383 18.8152 241.995 30.7114C241.801 34.5352 241.218 49.7241 238.986 52.3795Z" fill="#C69C6D"/>
<path d="M208.986 34.5357C210.248 40.1652 227.82 52.5925 230.053 50.5744C231.703 49.0874 234.907 36.5538 235.683 27.8441C236.363 20.8338 235.004 15.8416 235.586 13.1862C236.169 10.5308 234.324 7.9816 230.15 10.7432C226.072 13.3986 213.452 26.8881 208.986 34.5357Z" fill="#754C24"/>
<path opacity="0.35" d="M235.683 27.7378C234.906 36.4476 231.702 48.9811 230.052 50.4681C229.955 50.5744 229.761 50.6806 229.567 50.6806C230.926 45.9008 232.382 38.8906 232.867 33.4735C233.547 26.4632 232.188 21.4711 232.77 18.8157C233.353 16.1603 231.508 13.6111 227.334 16.3727C223.936 18.6032 214.908 28.0565 209.277 35.5979C209.083 35.173 208.986 34.8543 208.889 34.5357C213.354 26.9943 225.975 13.5049 230.149 10.7432C234.226 7.9816 236.168 10.5308 235.586 13.1862C235.003 15.7354 236.265 20.7276 235.683 27.7378Z" fill="#A62E3A"/>
<path d="M247.236 79.6781C247.527 87.3256 245.586 94.0173 242.285 99.753C240.149 103.364 237.528 106.657 234.422 109.631C233.839 110.162 233.257 110.799 232.577 111.331C231.995 111.862 231.315 112.393 230.636 112.924C230.15 113.242 229.665 113.667 229.179 113.986C228.694 114.305 228.209 114.729 227.626 115.048C226.073 116.11 224.423 117.172 222.675 118.022C222.578 118.022 222.481 118.128 222.384 118.128C222.19 118.235 221.996 118.341 221.801 118.447C221.704 118.447 221.51 118.553 221.413 118.659C221.316 118.766 221.122 118.766 221.025 118.766C220.636 118.872 220.151 119.084 219.666 119.191C219.374 119.297 218.986 119.403 218.695 119.509C218.404 119.615 218.209 119.615 217.918 119.722C217.724 119.722 217.53 119.828 217.433 119.828C216.947 119.934 216.462 120.04 215.88 120.146C215.297 120.253 214.618 120.465 213.938 120.571C213.064 120.784 212.191 120.89 211.22 121.102C210.928 121.209 210.637 121.209 210.346 121.209C209.861 121.315 209.375 121.421 208.793 121.421H208.696H208.599C208.21 121.527 207.725 121.527 207.239 121.634C206.657 121.74 206.172 121.74 205.589 121.846H205.395H205.298C204.521 121.952 203.648 122.058 202.774 122.165C202.288 122.271 201.803 122.271 201.318 122.377C200.832 122.483 200.347 122.483 199.861 122.589C199.473 122.589 199.085 122.696 198.794 122.696C198.114 122.802 197.337 122.908 196.658 122.908C195.978 123.014 195.396 123.014 194.813 123.121C194.522 123.121 194.134 123.227 193.842 123.227C192.872 123.333 191.901 123.439 190.93 123.439C190.251 123.545 189.668 123.545 188.989 123.545C188.115 123.652 187.241 123.652 186.367 123.758C185.979 123.758 185.591 123.758 185.202 123.864C184.814 123.864 184.523 123.864 184.135 123.97C183.552 123.97 182.97 124.077 182.387 124.077C181.902 124.077 181.416 124.076 180.931 124.183C180.348 124.183 179.766 124.183 179.183 124.289C178.795 124.289 178.407 124.289 177.921 124.289C177.436 124.289 176.951 124.289 176.368 124.289C167.728 124.501 159.379 124.077 153.069 123.014C152.778 123.014 152.39 122.908 152.098 122.802C151.807 122.802 151.516 122.696 151.225 122.696C150.448 122.589 149.671 122.483 148.895 122.377H148.798C148.701 122.377 148.603 122.377 148.409 122.377C147.924 122.271 147.438 122.271 146.856 122.165C146.371 122.058 145.788 122.058 145.206 121.952C144.72 121.846 144.138 121.846 143.652 121.74C143.167 121.634 142.682 121.634 142.293 121.527C142.196 121.527 142.196 121.527 142.099 121.527C141.614 121.421 141.031 121.315 140.546 121.209C140.06 121.102 139.478 120.996 138.993 120.89C138.507 120.784 138.022 120.678 137.536 120.571H137.439C137.051 120.465 136.566 120.359 136.177 120.253C136.08 120.253 136.08 120.253 135.983 120.146C132.779 119.191 129.867 117.597 127.149 115.685C126.663 115.367 126.275 115.048 125.79 114.729C125.304 114.411 124.916 113.986 124.528 113.667C124.042 113.242 123.557 112.818 123.072 112.393C122.974 112.286 122.877 112.18 122.78 112.074C120.936 110.268 119.285 108.25 117.829 106.126C116.955 104.745 116.179 103.364 115.693 101.771C113.364 95.0794 113.946 86.9008 114.626 80.2091C114.917 76.9164 115.402 73.7299 115.791 70.5435C116.664 64.2767 118.412 58.2224 121.227 52.8053C122.489 50.3623 123.945 48.1318 125.498 46.0075C126.178 45.1577 126.858 44.4142 127.537 43.5645C129.285 41.6526 131.226 39.9531 133.459 38.4661C136.566 36.3418 139.963 34.5361 143.652 32.8366C144.138 32.6242 144.623 32.4118 145.109 32.1993C146.176 31.7745 147.341 31.2434 148.409 30.8185C149.089 30.4999 149.865 30.2874 150.545 30.075C156.079 28.1631 162 26.7823 168.213 25.8264C173.553 25.0828 178.989 24.658 184.523 24.7642C187.144 24.7642 189.765 24.8704 192.386 24.9766C197.434 25.1891 202.483 25.7201 207.337 26.7823C209.181 27.2072 211.123 27.7383 212.967 28.3756C213.453 28.4818 213.938 28.6942 214.52 28.9066C219.471 30.8185 224.228 33.4739 228.403 37.4039C229.471 38.4661 230.539 39.5283 231.606 40.6967C231.898 41.0153 232.189 41.4402 232.48 41.7588C232.48 41.7588 232.48 41.7588 232.577 41.7588C232.674 41.865 232.771 41.9712 232.868 42.1837C232.966 42.2899 233.16 42.5023 233.257 42.6085C233.548 43.0334 233.839 43.3521 234.13 43.7769C234.422 44.2018 234.81 44.6267 235.101 45.1577C235.295 45.3702 235.393 45.6888 235.587 45.9013C235.684 46.0075 235.684 46.1137 235.781 46.1137C235.975 46.4323 236.169 46.751 236.363 47.0696C236.557 47.3883 236.752 47.7069 236.946 47.9194C237.043 48.1318 237.14 48.238 237.237 48.4504C237.334 48.5567 237.431 48.7691 237.528 48.8753C237.625 49.0877 237.722 49.194 237.819 49.4064C238.014 49.8313 238.305 50.2561 238.499 50.681C238.693 50.9996 238.79 51.3183 238.984 51.6369C239.858 53.4426 240.732 55.1421 241.411 56.8415C241.994 58.1161 242.479 59.497 242.965 60.6653C243.256 61.3026 243.45 61.9399 243.644 62.5772C243.838 63.2145 244.033 63.8518 244.227 64.3829C244.421 65.0202 244.615 65.6575 244.809 66.1886C245.003 66.9321 245.198 67.6756 245.392 68.4191C245.586 69.1626 245.78 69.9062 245.877 70.6497C246.168 72.0305 246.46 73.5175 246.557 74.7921C246.557 75.1108 246.654 75.3232 246.654 75.6418C246.654 75.9605 246.751 76.2791 246.751 76.4916C246.751 76.5978 246.751 76.704 246.751 76.704V76.9164C246.751 77.0227 246.751 77.1289 246.751 77.2351C246.751 77.3413 246.751 77.4475 246.751 77.5537C247.236 78.5097 247.236 79.0408 247.236 79.6781Z" fill="#C69C6D"/>
<path d="M167.825 76.2793L167.534 73.0928C167.437 71.3933 166.466 71.1809 165.883 72.9866L165.689 73.7301C165.301 76.0669 164.524 76.7042 162.291 76.2793L121.518 69.6939C119.771 69.269 119.771 72.7742 121.13 72.9866L164.718 79.572C166.563 79.7844 167.922 78.7223 167.825 76.2793Z" fill="#1D111E"/>
<path d="M166.176 79.678C164.331 113.03 118.51 108.038 122.005 72.9863L166.176 79.678Z" fill="#FABD3C"/>
<path opacity="0.9" d="M165.979 81.6968C162.582 112.393 119.867 107.507 121.808 74.6865C123.556 102.197 159.475 106.445 165.979 81.6968Z" fill="#FABD3C"/>
<path d="M159.96 78.5102C158.601 102.515 125.594 98.9038 128.118 73.7305L159.96 78.5102Z" fill="#1D111E"/>
<path d="M133.748 79.9967C127.924 82.3334 125.399 86.9007 128.021 87.538C130.642 88.1753 134.622 83.3956 135.496 82.4397C137.34 80.5278 136.855 78.8283 133.748 79.9967Z" fill="white"/>
<path d="M135.205 86.9014C131.225 88.4947 129.574 91.6812 131.225 92.106C132.972 92.5309 135.788 89.2382 136.37 88.6009C137.729 87.2201 137.341 86.0517 135.205 86.9014Z" fill="white"/>
<path d="M232.869 72.5618L189.28 79.1473C186.562 79.5721 185.494 78.51 185.688 75.3235C185.688 74.6862 185.882 72.668 185.882 72.668C185.979 70.7561 187.339 71.4997 187.533 72.5618C187.921 76.067 189.863 76.1732 191.901 75.8546L232.675 69.2691C234.811 68.9505 235.005 72.3494 232.869 72.5618Z" fill="#1D111E"/>
<path d="M187.434 79.4661C189.278 112.818 235.1 107.826 231.605 72.7744L187.434 79.4661Z" fill="#FABD3C"/>
<path opacity="0.9" d="M187.92 83.8204C195.589 106.869 230.344 102.09 231.703 74.792C233.256 106.445 193.259 111.755 187.92 83.8204Z" fill="#FABD3C"/>
<path d="M193.648 78.2973C195.008 102.302 228.015 98.6908 225.491 73.5176L193.648 78.2973Z" fill="#1D111E"/>
<path d="M219.86 79.7848C225.685 82.1215 228.209 86.6888 225.588 87.3261C223.064 87.9634 218.987 83.1837 218.113 82.2277C216.268 80.3158 216.754 78.6164 219.86 79.7848Z" fill="white"/>
<path d="M218.306 86.5828C222.286 88.176 223.937 91.3625 222.286 91.7874C220.539 92.2122 217.724 88.9195 217.141 88.2822C215.879 87.0076 216.17 85.733 218.306 86.5828Z" fill="white"/>
<path d="M181.028 88.3872C180.543 87.0064 172.388 87.0064 171.514 88.8121C170.835 90.1929 174.232 95.0789 176.271 95.0789C177.824 94.9727 181.708 90.1929 181.028 88.3872Z" fill="#754C24"/>
<path opacity="0.28" d="M176.271 94.9727C174.621 94.9727 172.194 91.8924 171.611 89.9805C172.679 91.4676 174.135 92.9546 175.203 92.9546C176.465 92.9546 179.184 89.8743 179.863 87.75C180.446 87.9624 180.834 88.1749 181.028 88.3873C181.708 90.193 177.922 94.9727 176.271 94.9727Z" fill="#A62E3A"/>
<path opacity="0.5" d="M204.424 114.836H204.521C205.2 115.048 206.074 115.154 206.948 115.26C207.53 115.367 208.113 115.473 208.695 115.579C209.763 115.791 210.928 115.898 212.093 116.11C212.87 116.216 213.743 116.429 214.617 116.535C217.141 117.066 219.665 117.597 221.801 118.341C222.675 118.659 223.548 118.978 224.228 119.297C226.267 120.359 228.305 121.633 230.441 121.527C231.606 121.421 232.771 120.996 233.936 121.102C235.489 121.315 236.751 122.802 238.402 122.908C239.664 123.014 240.926 122.377 242.188 122.483C243.061 122.589 243.838 123.014 244.712 123.227C246.265 123.545 248.304 123.12 249.178 124.607C249.469 125.139 249.566 125.882 249.857 126.413C250.148 126.944 250.537 127.263 251.022 127.582C253.352 128.962 256.167 128.537 258.691 128.219C259.371 128.113 260.245 127.9 260.536 127.157C260.827 126.519 260.342 125.67 259.759 125.351C259.177 125.032 258.4 125.139 257.818 125.457M268.593 99.0093C267.428 98.7968 266.069 97.8409 266.264 96.5663C266.361 95.8228 267.04 95.2917 267.72 95.1855C268.399 95.0793 269.079 95.2917 269.758 95.5041C271.312 96.1414 273.156 97.416 272.962 99.2217C272.865 100.178 272.185 101.027 271.409 101.558C270.632 102.09 269.661 102.196 268.788 102.302C266.458 102.621 263.837 102.939 262.186 101.134C261.701 100.603 261.312 99.9652 260.633 99.6466C259.274 99.1155 258.012 100.496 257.235 101.771C256.361 103.046 255.002 104.426 253.74 103.683C252.867 103.258 252.575 101.983 251.993 101.24C251.119 99.9652 249.372 99.5404 248.11 100.39C247.624 100.709 247.236 101.134 246.653 101.452C246.168 101.771 245.488 101.771 245.1 101.346C244.906 101.134 244.809 100.815 244.615 100.603C244.129 99.859 243.256 99.5404 242.382 99.6466H242.285C241.508 99.7528 240.732 100.071 239.955 100.39C238.305 101.027 236.557 101.452 234.81 101.665C233.451 101.877 231.994 101.983 230.538 102.09C229.47 102.196 228.305 102.302 227.238 102.408C219.083 103.364 213.841 106.763 205.783 105.064L268.593 99.0093ZM266.652 115.685C267.623 115.685 268.691 115.685 269.467 115.048C270.341 114.411 270.729 113.136 270.147 112.286C269.855 111.755 269.273 111.543 268.788 111.437C266.069 110.587 262.963 110.906 260.439 112.286C259.468 112.817 258.497 113.561 257.332 113.561C255.876 113.561 254.517 112.286 253.061 112.18C251.702 112.074 250.44 113.03 249.178 113.561C246.945 114.411 244.324 113.986 242.382 112.393C241.799 111.861 241.12 111.224 240.343 111.33C240.052 111.33 239.858 111.543 239.567 111.755C238.305 112.711 237.14 114.198 235.586 114.411C234.421 114.623 233.354 114.092 232.286 113.667C231.8 113.455 231.315 113.242 230.732 113.136C229.762 112.817 228.597 112.499 227.432 112.18C226.461 111.968 225.393 111.755 224.325 111.543C217.918 110.374 210.346 109.843 205.88 110.162L266.652 115.685Z" stroke="#754C24" stroke-width="0.6781" stroke-miterlimit="10" stroke-linecap="round" stroke-linejoin="round"/>
<path opacity="0.65" d="M177.047 88.0692C175.688 87.6443 173.552 87.963 172.29 88.8127C171.999 89.0251 172.096 89.5562 172.485 89.5562C173.164 89.5562 173.844 89.2376 174.62 89.1314C175.397 88.9189 176.174 88.9189 176.95 88.9189C177.339 88.9189 177.436 88.1754 177.047 88.0692Z" fill="#A62E3A"/>
<path d="M165.98 29.2247C168.99 24.3388 176.756 17.4347 178.892 19.2404C179.475 19.7715 176.756 22.5331 176.368 24.445C179.28 22.2144 185.785 17.0098 185.785 19.2404C185.882 20.3025 184.426 22.4269 183.746 23.9139C185.299 22.3207 192.483 17.7533 192.774 19.9839C193.066 22.2144 192.871 24.5512 192.289 26.7818C187.047 27.5253 181.804 28.1626 176.562 28.9061L165.98 29.2247Z" fill="#754C24"/>
<path opacity="0.5" d="M247.236 79.678C247.528 87.3255 245.586 94.0172 242.285 99.7529C240.15 103.364 237.529 106.657 234.422 109.631C233.839 110.162 233.257 110.799 232.577 111.33C231.995 111.862 231.315 112.393 230.636 112.924C230.15 113.349 229.665 113.667 229.18 114.092C228.694 114.411 228.209 114.836 227.626 115.154C226.073 116.216 224.423 117.279 222.675 118.128C222.578 118.128 222.481 118.235 222.384 118.235C222.19 118.341 221.996 118.447 221.802 118.553C221.705 118.553 221.51 118.659 221.413 118.766C221.316 118.872 221.122 118.872 221.025 118.872C220.637 118.978 220.151 119.19 219.666 119.297C219.375 119.403 218.986 119.509 218.695 119.615C218.404 119.722 218.21 119.722 217.918 119.828C217.724 119.828 217.53 119.934 217.433 119.934C216.948 120.04 216.462 120.146 215.88 120.253C215.297 120.359 214.618 120.571 213.938 120.677C212.773 120.89 211.608 121.102 210.346 121.315C209.861 121.421 209.375 121.527 208.793 121.527H208.696H208.599C208.21 121.633 207.725 121.633 207.24 121.74C206.657 121.846 206.172 121.846 205.589 121.952H205.395H205.298C204.521 122.058 203.648 122.165 202.774 122.271C202.289 122.377 201.803 122.377 201.318 122.483C200.832 122.589 200.347 122.589 199.862 122.696C199.473 122.696 199.085 122.802 198.794 122.802C198.114 122.908 197.338 123.014 196.658 123.014C195.978 123.12 195.396 123.12 194.814 123.227C194.522 123.227 194.134 123.333 193.843 123.333C192.872 123.439 191.901 123.545 190.93 123.545C190.251 123.652 189.668 123.652 188.989 123.652C188.115 123.758 187.241 123.758 186.368 123.864C185.979 123.864 185.591 123.864 185.203 123.97C184.814 123.97 184.523 123.97 184.135 124.076C183.552 124.076 182.97 124.183 182.387 124.183C181.902 124.183 181.417 124.183 180.931 124.289C180.349 124.289 179.766 124.289 179.184 124.395C178.795 124.395 178.407 124.395 177.922 124.395C177.436 124.395 176.951 124.395 176.368 124.395C167.728 124.607 159.379 124.183 153.069 123.12C152.487 123.014 151.807 122.908 151.225 122.802C150.448 122.696 149.672 122.589 148.895 122.483H148.798C148.215 122.377 147.536 122.377 146.953 122.271C146.468 122.165 145.885 122.165 145.303 122.058C144.818 121.952 144.235 121.952 143.75 121.846C143.264 121.74 142.779 121.74 142.391 121.633C142.293 121.633 142.293 121.633 142.196 121.633C141.711 121.527 141.129 121.421 140.643 121.315C140.158 121.209 139.575 121.102 139.09 120.996C138.604 120.89 138.119 120.784 137.634 120.677H137.537C137.148 120.571 136.663 120.465 136.275 120.359C136.177 120.359 136.177 120.359 136.08 120.253C132.877 119.297 129.964 117.703 127.246 115.792C126.761 115.473 126.372 115.154 125.887 114.836C125.402 114.517 125.013 114.092 124.625 113.773C126.275 114.729 128.994 115.685 132.683 116.641C135.11 117.279 137.828 117.81 140.837 118.341C141.808 118.553 142.876 118.659 143.944 118.872C145.497 119.084 147.147 119.297 148.895 119.509C148.992 119.509 149.186 119.509 149.283 119.509C150.642 119.615 152.001 119.828 153.458 119.934C169.282 121.421 188.698 121.421 204.716 118.128L205.492 117.916C206.948 117.597 208.308 117.279 209.764 116.96C210.249 116.854 210.735 116.747 211.22 116.535C211.511 116.429 211.802 116.323 212.094 116.323C216.559 115.048 220.637 113.349 224.229 111.437C226.559 110.056 228.694 108.569 230.442 106.869C232.092 105.276 233.451 103.683 234.713 101.983C246.072 86.2634 241.703 64.8077 237.82 52.9114C237.626 52.3804 237.431 51.8493 237.237 51.3182C235.781 47.0695 234.519 44.4141 234.325 43.9893C234.616 44.4141 235.004 44.839 235.296 45.3701C235.49 45.5825 235.587 45.9012 235.781 46.1136C235.878 46.2198 235.878 46.326 235.975 46.326C236.169 46.6447 236.364 46.9633 236.558 47.282C236.752 47.6006 236.946 47.9193 237.14 48.1317C237.237 48.3441 237.334 48.4503 237.431 48.6628C237.529 48.769 237.626 48.9814 237.723 49.0876C237.82 49.3001 237.917 49.4063 238.014 49.6187C238.208 50.0436 238.499 50.4685 238.693 50.8933C238.888 51.212 238.985 51.5306 239.179 51.8493C240.053 53.655 240.926 55.3544 241.606 57.0539C242.188 58.3285 242.674 59.7093 243.159 60.8777C243.45 61.515 243.645 62.1523 243.839 62.7896C244.033 63.4269 244.227 64.0642 244.421 64.5952C244.615 65.2325 244.809 65.8698 245.004 66.4009C245.198 67.1444 245.392 67.8879 245.586 68.6315C245.78 69.375 245.974 70.1185 246.072 70.862C246.363 72.2428 246.654 73.7298 246.751 75.0044C246.751 75.3231 246.848 75.5355 246.848 75.8542C246.848 76.1728 246.945 76.4915 246.945 76.7039C246.945 76.8101 246.945 76.9163 246.945 76.9163V77.1288C246.945 77.235 246.945 77.3412 246.945 77.4474C246.945 77.5536 246.945 77.6599 246.945 77.7661C247.236 78.5096 247.236 79.0407 247.236 79.678Z" fill="#754C24"/>
<path opacity="0.5" d="M104.14 125.563C103.558 125.245 102.781 125.139 102.199 125.457C101.616 125.776 101.131 126.626 101.422 127.263C101.713 128.006 102.49 128.219 103.267 128.325C105.888 128.75 108.606 129.069 110.936 127.688C111.421 127.369 111.81 127.05 112.101 126.519C112.392 125.988 112.489 125.245 112.78 124.714C113.654 123.227 115.693 123.652 117.246 123.333C118.12 123.12 118.896 122.696 119.77 122.589C121.032 122.483 122.294 123.12 123.556 123.014C125.11 122.802 126.469 121.421 128.022 121.209C129.187 120.996 130.352 121.527 131.517 121.633C133.264 121.74 134.817 120.996 136.371 120.146C136.856 119.934 137.244 119.615 137.73 119.403C138.312 119.084 138.992 118.872 139.671 118.553C140.06 118.447 140.545 118.234 140.933 118.128C143.555 117.385 146.661 116.747 149.768 116.216C150.447 116.11 151.127 116.004 151.709 115.898C152.098 115.791 152.486 115.791 152.874 115.685C154.622 115.367 156.272 115.154 157.534 114.836M156.175 105.17C148.117 106.976 142.875 103.47 134.72 102.514C132.099 102.196 129.575 102.09 126.954 101.665C125.304 101.346 123.556 101.027 122.003 100.39C121.226 100.071 120.45 99.6466 119.576 99.6466C118.702 99.5404 117.829 99.859 117.343 100.603C117.149 100.815 117.052 101.134 116.858 101.346C116.567 101.665 116.178 101.665 115.79 101.665C115.596 101.665 115.402 101.558 115.207 101.452C114.722 101.134 114.334 100.709 113.848 100.39C112.586 99.6466 110.839 99.9652 109.965 101.24C109.383 102.09 109.091 103.258 108.218 103.683C106.956 104.426 105.597 103.046 104.723 101.771C103.849 100.496 102.587 99.1155 101.325 99.6466C100.743 99.9652 100.257 100.603 99.7718 101.134C98.1214 102.833 95.4032 102.621 93.1704 102.302C92.2967 102.196 91.3259 101.983 90.5492 101.558C89.7726 101.134 88.996 100.284 88.8989 99.2217C88.7047 97.416 90.5492 96.1414 92.1025 95.5041C92.7821 95.2917 93.4616 95.0793 94.1412 95.1855C94.8207 95.2917 95.5003 95.8228 95.5974 96.5663C95.8886 97.8409 94.4324 98.7968 93.2675 99.0093L156.175 105.17ZM156.175 109.843C149.476 109.525 135.982 110.693 129.769 113.349C129.478 113.455 129.284 113.561 128.993 113.667C128.119 113.986 127.342 114.304 126.469 114.092C125.11 113.88 124.139 112.817 123.071 111.968C122.877 111.755 122.683 111.649 122.488 111.543C122.294 111.33 122.003 111.224 121.712 111.118C120.935 110.906 120.256 111.649 119.673 112.18C117.829 113.773 115.11 114.198 112.878 113.349C111.615 112.817 110.353 111.861 108.994 111.968C107.441 112.074 106.179 113.349 104.626 113.349C103.558 113.349 102.587 112.605 101.616 112.074C98.9952 110.693 95.9857 110.374 93.2675 111.224C92.7821 111.437 92.1996 111.649 91.9084 112.074C91.3259 112.924 91.8113 114.304 92.5879 114.836C93.4616 115.473 94.4324 115.473 95.5003 115.473L156.175 109.843Z" stroke="#754C24" stroke-width="0.6781" stroke-miterlimit="10" stroke-linecap="round" stroke-linejoin="round"/>
<path d="M284.164 296.162V291.817C309.837 291.491 328.245 283.343 334.639 269.655C338.417 261.507 337.545 251.838 332.217 243.039C319.719 222.397 289.589 240.54 289.299 240.757L287.458 236.955C288.814 236.086 320.979 216.748 335.414 240.54C341.614 250.643 342.583 262.05 338.127 271.61C333.864 280.519 321.366 295.619 284.164 296.162Z" fill="#2B232D"/>
<g opacity="0.5">
<path opacity="0.5" d="M335.994 275.413C330.278 284.321 316.521 295.728 284.163 296.163L284.066 291.817C284.454 291.817 284.841 291.817 285.229 291.817V294.533C315.649 294.099 329.6 283.995 335.994 275.413Z" fill="#140716"/>
<path opacity="0.5" d="M289.299 240.757L287.458 236.955C287.652 236.846 288.136 236.52 289.008 236.086L290.461 239.128C290.752 238.911 320.882 220.768 333.379 241.409C338.708 250.209 339.58 259.878 335.801 268.025C335.026 269.764 334.058 271.393 332.895 272.914C333.573 271.828 334.155 270.85 334.736 269.655C338.514 261.507 337.642 251.838 332.314 243.039C319.622 222.398 289.589 240.54 289.299 240.757Z" fill="#140716"/>
</g>
<path d="M29.1041 270.55C29.1041 270.55 29.4694 268.089 28.8301 266.746" stroke="#268E26" stroke-width="0.6294" stroke-miterlimit="10" stroke-linecap="round" stroke-linejoin="round"/>
<path d="M28.5562 270.885C28.5562 270.885 28.2821 267.976 26.9121 267.641" stroke="white" stroke-width="0.6294" stroke-miterlimit="10" stroke-linecap="round" stroke-linejoin="round"/>
<path d="M27.8258 270.997C27.8258 270.997 27.1865 268.536 25.8164 268.759" stroke="#0032D0" stroke-width="0.6294" stroke-miterlimit="10" stroke-linecap="round" stroke-linejoin="round"/>
<path d="M30.0188 271.11C30.0188 271.11 29.8361 267.977 31.1148 267.082" stroke="#D30000" stroke-width="0.6294" stroke-miterlimit="10" stroke-linecap="round" stroke-linejoin="round"/>
<path d="M30.6578 269.543L27.0957 270.55C27.2784 271.221 30.5665 287.891 42.623 296.058C50.478 301.428 60.1597 301.764 71.3941 297.177C104.732 283.304 145.742 294.716 146.199 294.828L147.021 290.464C145.286 290.017 104.641 278.717 70.2981 292.926C60.1597 297.177 51.4827 296.841 44.5411 292.142C33.7633 284.982 30.6578 269.655 30.6578 269.543Z" fill="#2B232D"/>
<path d="M27.0934 270.55C27.0934 270.55 27.0934 269.99 26.6367 269.655C27.5501 269.879 27.5501 270.102 27.5501 270.102L27.9154 268.76L28.2808 269.879C28.2808 269.879 29.0115 268.312 29.8335 267.977C29.7422 268.424 29.8335 269.431 29.8335 269.431L31.1122 268.2C31.1122 268.2 30.5642 268.536 30.6556 269.655C30.6556 270.774 30.2902 271.221 30.0162 271.333C29.7422 271.445 28.3721 271.669 28.2808 271.669C28.1895 271.557 27.0934 270.55 27.0934 270.55Z" fill="#2B232D"/>
<path opacity="0.5" d="M72.3087 295.947C61.1655 300.534 51.4838 300.198 43.5375 294.828C33.9471 288.339 29.837 276.256 28.5582 271.445C28.3756 270.886 28.2842 270.55 28.1929 270.215C28.1016 269.767 28.0102 269.431 28.0102 269.431C28.0102 269.431 28.0102 269.208 27.8275 268.872L27.5535 270.103C27.5535 270.103 27.5535 269.991 27.3709 269.991C27.2795 269.879 27.0055 269.767 26.5488 269.655C27.0055 270.103 27.0055 270.55 27.0055 270.55C27.1882 271.222 30.5677 287.891 42.5328 296.059C50.3878 301.429 60.0695 301.764 71.2126 297.177C104.551 283.304 145.561 294.716 146.018 294.828L146.292 293.485C140.811 292.031 103.272 283.081 72.3087 295.947Z" fill="#140716"/>
<path d="M20.8848 260.033C20.8848 260.033 23.1682 260.704 24.8123 263.949" stroke="white" stroke-width="0.6294" stroke-miterlimit="10" stroke-linecap="round" stroke-linejoin="round"/>
<path d="M25.6348 257.349C25.6348 257.349 25.6348 261.712 26.6395 263.502" stroke="white" stroke-width="0.6294" stroke-miterlimit="10" stroke-linecap="round" stroke-linejoin="round"/>
<path d="M30.7487 257.572C30.7487 257.572 28.5566 260.369 28.5566 263.39" stroke="white" stroke-width="0.6294" stroke-miterlimit="10" stroke-linecap="round" stroke-linejoin="round"/>
<path d="M67.0215 149.704C67.0215 144.566 71.0916 140.401 76.1124 140.401H281.794C286.815 140.401 290.885 144.566 290.885 149.704V286.913C290.885 292.05 286.815 296.215 281.794 296.215H76.1124C71.0916 296.215 67.0215 292.05 67.0215 286.913V149.704Z" fill="#AAAAAA"/>
<rect x="88.6113" y="156.681" width="179.545" height="122.093" rx="8" fill="white"/>
<line x1="88.6113" y1="185.949" x2="268.189" y2="185.949" stroke="#AAAAAA"/>
<ellipse cx="106.225" cy="173.89" rx="3.97727" ry="3.25605" fill="#FABD3C"/>
<ellipse cx="135.77" cy="173.89" rx="3.97727" ry="3.25605" fill="#FABD3C"/>
<ellipse cx="120.999" cy="173.89" rx="3.97727" ry="3.25605" fill="#FABD3C"/>
<path d="M139.285 236.641C137.093 236.641 135.381 236.073 134.149 234.937C132.933 233.801 132.285 232.217 132.205 230.185C132.189 229.721 132.181 228.977 132.181 227.953C132.181 226.929 132.189 226.185 132.205 225.721C132.285 223.737 132.941 222.185 134.173 221.065C135.421 219.929 137.125 219.361 139.285 219.361C140.757 219.361 142.021 219.609 143.077 220.105C144.133 220.601 144.933 221.225 145.477 221.977C146.021 222.713 146.309 223.441 146.341 224.161V224.209C146.341 224.337 146.293 224.449 146.197 224.545C146.101 224.625 145.981 224.665 145.837 224.665H143.365C143.205 224.665 143.085 224.641 143.005 224.593C142.925 224.529 142.853 224.425 142.789 224.281C142.565 223.689 142.173 223.185 141.613 222.769C141.053 222.337 140.277 222.121 139.285 222.121C138.165 222.121 137.285 222.425 136.645 223.033C136.021 223.641 135.685 224.577 135.637 225.841C135.621 226.305 135.613 227.009 135.613 227.953C135.613 228.881 135.621 229.585 135.637 230.065C135.733 232.609 136.965 233.881 139.333 233.881C140.469 233.881 141.381 233.577 142.069 232.969C142.757 232.345 143.101 231.425 143.101 230.209V229.465H140.173C139.997 229.465 139.853 229.409 139.741 229.297C139.645 229.185 139.597 229.041 139.597 228.865V227.593C139.597 227.417 139.645 227.273 139.741 227.161C139.853 227.049 139.997 226.993 140.173 226.993H145.909C146.085 226.993 146.221 227.049 146.317 227.161C146.429 227.273 146.485 227.417 146.485 227.593V230.113C146.485 231.441 146.189 232.601 145.597 233.593C145.021 234.569 144.189 235.321 143.101 235.849C142.013 236.377 140.741 236.641 139.285 236.641ZM150.137 236.401C149.977 236.401 149.841 236.345 149.729 236.233C149.617 236.121 149.561 235.985 149.561 235.825V220.201C149.561 220.025 149.609 219.881 149.705 219.769C149.817 219.657 149.961 219.601 150.137 219.601H156.353C158.305 219.601 159.833 220.057 160.937 220.969C162.057 221.881 162.617 223.177 162.617 224.857C162.617 226.025 162.329 227.009 161.753 227.809C161.193 228.593 160.409 229.161 159.401 229.513L162.905 235.633C162.953 235.729 162.977 235.817 162.977 235.897C162.977 236.041 162.921 236.161 162.809 236.257C162.713 236.353 162.601 236.401 162.473 236.401H160.289C160.033 236.401 159.833 236.345 159.689 236.233C159.561 236.121 159.441 235.961 159.329 235.753L156.233 230.065H152.897V235.825C152.897 235.985 152.841 236.121 152.729 236.233C152.633 236.345 152.497 236.401 152.321 236.401H150.137ZM156.281 227.353C157.241 227.353 157.961 227.137 158.441 226.705C158.937 226.273 159.185 225.649 159.185 224.833C159.185 224.017 158.937 223.385 158.441 222.937C157.961 222.489 157.241 222.265 156.281 222.265H152.897V227.353H156.281ZM166.286 236.401C166.126 236.401 165.99 236.345 165.878 236.233C165.766 236.121 165.71 235.985 165.71 235.825V220.201C165.71 220.025 165.758 219.881 165.854 219.769C165.966 219.657 166.11 219.601 166.286 219.601H176.846C177.022 219.601 177.166 219.657 177.278 219.769C177.39 219.881 177.446 220.025 177.446 220.201V221.785C177.446 221.961 177.39 222.105 177.278 222.217C177.166 222.313 177.022 222.361 176.846 222.361H168.95V226.609H176.318C176.494 226.609 176.638 226.665 176.75 226.777C176.862 226.873 176.918 227.009 176.918 227.185V228.673C176.918 228.849 176.862 228.993 176.75 229.105C176.638 229.201 176.494 229.249 176.318 229.249H168.95V233.641H177.038C177.214 233.641 177.358 233.697 177.47 233.809C177.582 233.921 177.638 234.065 177.638 234.241V235.825C177.638 236.001 177.582 236.145 177.47 236.257C177.358 236.353 177.214 236.401 177.038 236.401H166.286ZM186.472 236.641C185.048 236.641 183.824 236.425 182.8 235.993C181.776 235.561 181 234.993 180.472 234.289C179.944 233.585 179.664 232.825 179.632 232.009C179.632 231.865 179.68 231.745 179.776 231.649C179.872 231.553 179.992 231.505 180.136 231.505H182.272C182.464 231.505 182.608 231.545 182.704 231.625C182.816 231.689 182.92 231.801 183.016 231.961C183.176 232.505 183.544 232.961 184.12 233.329C184.696 233.697 185.48 233.881 186.472 233.881C187.608 233.881 188.464 233.697 189.04 233.329C189.616 232.945 189.904 232.417 189.904 231.745C189.904 231.297 189.752 230.929 189.448 230.641C189.16 230.353 188.72 230.105 188.128 229.897C187.552 229.689 186.688 229.433 185.536 229.129C183.648 228.681 182.264 228.089 181.384 227.353C180.52 226.601 180.088 225.537 180.088 224.161C180.088 223.233 180.336 222.409 180.832 221.689C181.344 220.969 182.072 220.401 183.016 219.985C183.976 219.569 185.088 219.361 186.352 219.361C187.664 219.361 188.8 219.593 189.76 220.057C190.72 220.521 191.448 221.105 191.944 221.809C192.456 222.497 192.728 223.185 192.76 223.873C192.76 224.017 192.712 224.137 192.616 224.233C192.52 224.329 192.4 224.377 192.256 224.377H190.024C189.688 224.377 189.456 224.225 189.328 223.921C189.232 223.409 188.912 222.985 188.368 222.649C187.824 222.297 187.152 222.121 186.352 222.121C185.456 222.121 184.752 222.289 184.24 222.625C183.728 222.961 183.472 223.449 183.472 224.089C183.472 224.537 183.6 224.905 183.856 225.193C184.112 225.481 184.512 225.737 185.056 225.961C185.616 226.185 186.416 226.433 187.456 226.705C188.864 227.025 189.984 227.385 190.816 227.785C191.664 228.185 192.288 228.689 192.688 229.297C193.088 229.905 193.288 230.681 193.288 231.625C193.288 232.649 193 233.545 192.424 234.313C191.864 235.065 191.064 235.641 190.024 236.041C189 236.441 187.816 236.641 186.472 236.641ZM185.8 218.401C185.64 218.401 185.496 218.377 185.368 218.329C185.256 218.281 185.128 218.177 184.984 218.017L182.632 215.617C182.488 215.441 182.416 215.305 182.416 215.209C182.416 215.001 182.536 214.897 182.776 214.897H183.712C184.032 214.897 184.28 214.953 184.456 215.065L186.496 216.313L188.536 215.065C188.744 214.953 188.992 214.897 189.28 214.897H190.216C190.456 214.897 190.576 215.001 190.576 215.209C190.576 215.337 190.504 215.473 190.36 215.617L188.008 218.017C187.864 218.177 187.728 218.281 187.6 218.329C187.488 218.377 187.352 218.401 187.192 218.401H185.8ZM196.614 236.401C196.454 236.401 196.318 236.345 196.206 236.233C196.094 236.121 196.038 235.985 196.038 235.825V220.201C196.038 220.025 196.086 219.881 196.182 219.769C196.294 219.657 196.438 219.601 196.614 219.601H198.726C198.902 219.601 199.046 219.657 199.158 219.769C199.27 219.881 199.326 220.025 199.326 220.201V225.817L204.75 220.033C204.958 219.745 205.27 219.601 205.686 219.601H208.062C208.19 219.601 208.302 219.649 208.398 219.745C208.51 219.841 208.566 219.961 208.566 220.105C208.566 220.217 208.534 220.313 208.47 220.393L201.87 227.641L208.926 235.585C209.006 235.681 209.046 235.785 209.046 235.897C209.046 236.041 208.99 236.161 208.878 236.257C208.782 236.353 208.67 236.401 208.542 236.401H206.07C205.67 236.401 205.358 236.257 205.134 235.969L199.326 229.609V235.825C199.326 236.001 199.27 236.145 199.158 236.257C199.046 236.353 198.902 236.401 198.726 236.401H196.614ZM210.17 236.401C210.042 236.401 209.922 236.353 209.81 236.257C209.714 236.161 209.666 236.041 209.666 235.897L209.714 235.681L215.498 220.201C215.61 219.801 215.89 219.601 216.338 219.601H218.954C219.37 219.601 219.65 219.801 219.794 220.201L225.578 235.681C225.594 235.729 225.602 235.801 225.602 235.897C225.602 236.041 225.554 236.161 225.458 236.257C225.362 236.353 225.25 236.401 225.122 236.401H223.034C222.826 236.401 222.666 236.353 222.554 236.257C222.442 236.161 222.37 236.057 222.338 235.945L221.21 233.017H214.082L212.954 235.945C212.826 236.249 212.594 236.401 212.258 236.401H210.17ZM220.37 230.257L217.634 222.841L214.922 230.257H220.37Z" fill="#F75451"/>
<path d="M99.0074 208.975C99.0074 208.975 97.1055 211.554 97.1055 213.561" stroke="#268E26" stroke-width="0.6294" stroke-miterlimit="10" stroke-linecap="round" stroke-linejoin="round"/>
<path d="M99.8822 209.118C99.8822 209.118 98.5655 212.701 100.321 213.991" stroke="white" stroke-width="0.6294" stroke-miterlimit="10" stroke-linecap="round" stroke-linejoin="round"/>
<path d="M100.906 209.549C100.906 209.549 100.32 212.845 102.369 213.562" stroke="#0032D0" stroke-width="0.6294" stroke-miterlimit="10" stroke-linecap="round" stroke-linejoin="round"/>
<path d="M97.8348 207.828C97.8348 207.828 96.2255 211.554 93.8848 211.554" stroke="#D30000" stroke-width="0.6294" stroke-miterlimit="10" stroke-linecap="round" stroke-linejoin="round"/>
<path d="M231.112 130.22C217.067 112.018 190.441 96.8265 164.839 106.572C159.719 108.579 154.744 111.302 150.063 115.028C132.946 128.07 122.413 147.274 115.244 162.466C107.929 177.801 101.053 192.849 96.3718 208.758C96.3718 208.758 95.2014 211.051 93.8848 211.481C93.8848 211.481 94.47 211.911 95.9329 211.051C96.8107 210.621 97.2496 212.341 97.2496 212.771C97.2496 213.2 98.5663 212.341 98.5663 212.341C98.5663 212.341 99.2978 211.337 100.029 213.917C100.176 212.771 100.468 212.341 100.761 212.627C101.053 212.914 102.516 213.917 102.516 213.917C102.516 213.917 101.346 213.2 101.931 209.761C106.466 194.426 113.196 179.664 120.365 164.759C127.387 149.997 137.481 131.653 153.574 119.327C157.963 116.031 162.352 113.451 166.887 111.732C189.71 102.989 213.849 116.891 226.723 133.516C228.186 135.522 229.649 137.529 231.112 139.822L235.793 136.955C234.33 134.662 232.721 132.369 231.112 130.22Z" fill="#2B232D"/>
<path d="M249.595 168.297L249.208 168.539C248.435 169.024 247.533 168.782 247.018 168.054L243.153 162.236C242.638 161.509 242.895 160.66 243.668 160.175L244.055 159.933C244.828 159.448 245.73 159.69 246.245 160.418L250.11 166.236C250.625 166.963 250.368 167.812 249.595 168.297Z" fill="#6BB1A2"/>
<path d="M258.595 163.981L258.208 164.224C257.435 164.709 256.533 164.466 256.018 163.739L252.153 157.921C251.638 157.193 251.895 156.345 252.668 155.86L253.055 155.617C253.828 155.133 254.73 155.375 255.245 156.102L259.11 161.921C259.625 162.648 259.368 163.496 258.595 163.981Z" fill="#6BB1A2"/>
<path d="M257.615 153.302L239.32 163.924C238.289 164.521 236.872 164.282 236.228 163.208L228.884 152.347C225.019 146.738 226.952 139.219 233.007 135.638C239.062 132.058 247.179 133.848 251.044 139.458L258.388 150.318C259.032 151.392 258.646 152.705 257.615 153.302Z" fill="#313131"/>
<path d="M191.905 103.349C191.905 103.349 191.905 109.225 190.442 109.655C188.686 110.228 185.321 104.925 185.321 104.925L191.905 103.349Z" fill="white"/>
<path d="M165.863 104.641C165.863 104.641 167.034 110.373 168.643 110.517C170.545 110.66 172.739 104.927 172.739 104.927L165.863 104.641Z" fill="white"/>
<path d="M162.205 101.2C162.205 101.2 167.325 112.235 178.151 103.636C184.003 110.085 194.537 105.786 194.098 100.34" fill="#C69C6D"/>
</svg>
