<svg width="238" height="28" viewBox="0 0 238 28" fill="none" xmlns="http://www.w3.org/2000/svg">
<path d="M40.568 22.24C38.408 22.24 36.728 21.688 35.528 20.584C34.328 19.48 33.728 17.808 33.728 15.568V5.8C33.728 5.624 33.776 5.48 33.872 5.368C33.984 5.256 34.128 5.2 34.304 5.2H36.488C36.664 5.2 36.8 5.256 36.896 5.368C37.008 5.48 37.064 5.624 37.064 5.8V15.568C37.064 16.848 37.368 17.816 37.976 18.472C38.584 19.112 39.448 19.432 40.568 19.432C41.688 19.432 42.544 19.112 43.136 18.472C43.744 17.816 44.048 16.848 44.048 15.568V5.8C44.048 5.624 44.104 5.48 44.216 5.368C44.328 5.256 44.472 5.2 44.648 5.2H46.808C46.984 5.2 47.12 5.256 47.216 5.368C47.328 5.48 47.384 5.624 47.384 5.8V15.568C47.384 17.808 46.784 19.48 45.584 20.584C44.4 21.688 42.728 22.24 40.568 22.24ZM51.5574 22C51.3974 22 51.2614 21.944 51.1494 21.832C51.0374 21.72 50.9814 21.584 50.9814 21.424V5.8C50.9814 5.624 51.0294 5.48 51.1254 5.368C51.2374 5.256 51.3814 5.2 51.5574 5.2H57.4134C62.1174 5.2 64.5174 7.376 64.6134 11.728C64.6454 12.656 64.6614 13.28 64.6614 13.6C64.6614 13.904 64.6454 14.52 64.6134 15.448C64.5494 17.688 63.9494 19.344 62.8134 20.416C61.6774 21.472 59.9174 22 57.5334 22H51.5574ZM57.4134 19.24C58.7574 19.24 59.7254 18.944 60.3174 18.352C60.9094 17.744 61.2214 16.752 61.2534 15.376C61.2854 14.416 61.3014 13.816 61.3014 13.576C61.3014 13.32 61.2854 12.728 61.2534 11.8C61.2214 10.488 60.8854 9.52 60.2454 8.896C59.6214 8.272 58.6374 7.96 57.2934 7.96H54.3174V19.24H57.4134ZM74.3124 22.24C72.1364 22.24 70.4404 21.688 69.2244 20.584C68.0084 19.48 67.3684 17.84 67.3044 15.664C67.2884 15.2 67.2804 14.52 67.2804 13.624C67.2804 12.712 67.2884 12.024 67.3044 11.56C67.3684 9.432 68.0244 7.8 69.2724 6.664C70.5204 5.528 72.2004 4.96 74.3124 4.96C76.4244 4.96 78.1044 5.528 79.3524 6.664C80.6164 7.8 81.2804 9.432 81.3444 11.56C81.3764 12.488 81.3924 13.176 81.3924 13.624C81.3924 14.056 81.3764 14.736 81.3444 15.664C81.2644 17.84 80.6164 19.48 79.4004 20.584C78.1844 21.688 76.4884 22.24 74.3124 22.24ZM74.3124 19.48C75.3844 19.48 76.2404 19.16 76.8804 18.52C77.5204 17.864 77.8644 16.872 77.9124 15.544C77.9444 14.584 77.9604 13.936 77.9604 13.6C77.9604 13.232 77.9444 12.584 77.9124 11.656C77.8644 10.328 77.5204 9.344 76.8804 8.704C76.2404 8.048 75.3844 7.72 74.3124 7.72C73.2564 7.72 72.4084 8.048 71.7684 8.704C71.1284 9.344 70.7844 10.328 70.7364 11.656C70.7204 12.12 70.7124 12.768 70.7124 13.6C70.7124 14.416 70.7204 15.064 70.7364 15.544C70.7844 16.872 71.1204 17.864 71.7444 18.52C72.3844 19.16 73.2404 19.48 74.3124 19.48ZM85.1439 22C84.9679 22 84.8239 21.952 84.7119 21.856C84.5999 21.744 84.5439 21.6 84.5439 21.424V5.8C84.5439 5.624 84.5999 5.48 84.7119 5.368C84.8239 5.256 84.9679 5.2 85.1439 5.2H87.0399C87.3759 5.2 87.6159 5.352 87.7599 5.656L92.3919 14.296L97.0719 5.656C97.2319 5.352 97.4719 5.2 97.7919 5.2H99.6639C99.8399 5.2 99.9839 5.256 100.096 5.368C100.208 5.48 100.264 5.624 100.264 5.8V21.424C100.264 21.6 100.208 21.744 100.096 21.856C99.9839 21.952 99.8399 22 99.6639 22H97.6479C97.4879 22 97.3519 21.944 97.2399 21.832C97.1279 21.72 97.0719 21.584 97.0719 21.424V11.032L93.7119 17.44C93.5039 17.792 93.2319 17.968 92.8959 17.968H91.9119C91.5759 17.968 91.3039 17.792 91.0959 17.44L87.7359 11.032V21.424C87.7359 21.584 87.6799 21.72 87.5679 21.832C87.4719 21.944 87.3359 22 87.1599 22H85.1439ZM104.573 22C104.413 22 104.277 21.944 104.165 21.832C104.053 21.72 103.997 21.584 103.997 21.424V5.776C103.997 5.6 104.053 5.464 104.165 5.368C104.277 5.256 104.413 5.2 104.573 5.2H106.829C107.005 5.2 107.141 5.256 107.237 5.368C107.349 5.464 107.405 5.6 107.405 5.776V21.424C107.405 21.584 107.349 21.72 107.237 21.832C107.141 21.944 107.005 22 106.829 22H104.573ZM117.229 22C117.069 22 116.933 21.944 116.821 21.832C116.709 21.72 116.653 21.584 116.653 21.424V5.776C116.653 5.6 116.709 5.464 116.821 5.368C116.933 5.256 117.069 5.2 117.229 5.2H119.461C119.637 5.2 119.773 5.256 119.869 5.368C119.981 5.464 120.037 5.6 120.037 5.776V19.144H127.645C127.821 19.144 127.965 19.2 128.077 19.312C128.189 19.424 128.245 19.568 128.245 19.744V21.424C128.245 21.6 128.189 21.744 128.077 21.856C127.965 21.952 127.821 22 127.645 22H117.229ZM135.999 22.24C134.815 22.24 133.727 22.04 132.735 21.64C131.759 21.24 130.975 20.64 130.383 19.84C129.791 19.04 129.479 18.072 129.447 16.936C129.447 16.792 129.495 16.672 129.591 16.576C129.687 16.464 129.807 16.408 129.951 16.408H132.231C132.583 16.408 132.823 16.616 132.951 17.032C133.063 17.864 133.391 18.48 133.935 18.88C134.495 19.28 135.207 19.48 136.071 19.48C137.079 19.48 137.847 19.152 138.375 18.496C138.919 17.84 139.191 16.928 139.191 15.76V8.032H131.055C130.895 8.032 130.759 7.976 130.647 7.864C130.535 7.752 130.479 7.616 130.479 7.456V5.776C130.479 5.6 130.535 5.464 130.647 5.368C130.759 5.256 130.895 5.2 131.055 5.2H142.023C142.199 5.2 142.343 5.256 142.455 5.368C142.567 5.48 142.623 5.624 142.623 5.8V15.856C142.623 17.184 142.351 18.328 141.807 19.288C141.263 20.248 140.487 20.984 139.479 21.496C138.487 21.992 137.327 22.24 135.999 22.24ZM152.927 22.24C150.767 22.24 149.087 21.688 147.887 20.584C146.687 19.48 146.087 17.808 146.087 15.568V5.8C146.087 5.624 146.135 5.48 146.231 5.368C146.343 5.256 146.487 5.2 146.663 5.2H148.847C149.023 5.2 149.159 5.256 149.255 5.368C149.367 5.48 149.423 5.624 149.423 5.8V15.568C149.423 16.848 149.727 17.816 150.335 18.472C150.943 19.112 151.807 19.432 152.927 19.432C154.047 19.432 154.903 19.112 155.495 18.472C156.103 17.816 156.407 16.848 156.407 15.568V5.8C156.407 5.624 156.463 5.48 156.575 5.368C156.687 5.256 156.831 5.2 157.007 5.2H159.167C159.343 5.2 159.479 5.256 159.575 5.368C159.687 5.48 159.743 5.624 159.743 5.8V15.568C159.743 17.808 159.143 19.48 157.943 20.584C156.759 21.688 155.087 22.24 152.927 22.24ZM163.917 22C163.757 22 163.621 21.944 163.509 21.832C163.397 21.72 163.341 21.584 163.341 21.424V5.8C163.341 5.624 163.389 5.48 163.485 5.368C163.597 5.256 163.741 5.2 163.917 5.2H170.877C172.749 5.2 174.141 5.616 175.053 6.448C175.981 7.264 176.445 8.384 176.445 9.808C176.445 10.64 176.237 11.352 175.821 11.944C175.421 12.52 174.949 12.936 174.405 13.192C175.077 13.496 175.637 13.992 176.085 14.68C176.549 15.368 176.781 16.152 176.781 17.032C176.781 18.52 176.277 19.72 175.269 20.632C174.277 21.544 172.877 22 171.069 22H163.917ZM170.445 12.088C171.277 12.088 171.909 11.888 172.341 11.488C172.773 11.088 172.989 10.552 172.989 9.88C172.989 9.192 172.773 8.664 172.341 8.296C171.909 7.912 171.277 7.72 170.445 7.72H166.677V12.088H170.445ZM170.685 19.456C171.517 19.456 172.165 19.232 172.629 18.784C173.093 18.32 173.325 17.736 173.325 17.032C173.325 16.312 173.093 15.728 172.629 15.28C172.165 14.816 171.517 14.584 170.685 14.584H166.677V19.456H170.685ZM180.37 22C180.21 22 180.074 21.944 179.962 21.832C179.85 21.72 179.794 21.584 179.794 21.424V5.776C179.794 5.6 179.85 5.464 179.962 5.368C180.074 5.256 180.21 5.2 180.37 5.2H182.626C182.802 5.2 182.938 5.256 183.034 5.368C183.146 5.464 183.202 5.6 183.202 5.776V21.424C183.202 21.584 183.146 21.72 183.034 21.832C182.938 21.944 182.802 22 182.626 22H180.37ZM187.566 22C187.39 22 187.246 21.952 187.134 21.856C187.022 21.744 186.966 21.6 186.966 21.424V5.8C186.966 5.624 187.022 5.48 187.134 5.368C187.246 5.256 187.39 5.2 187.566 5.2H189.462C189.798 5.2 190.038 5.352 190.182 5.656L194.814 14.296L199.494 5.656C199.654 5.352 199.894 5.2 200.214 5.2H202.086C202.262 5.2 202.406 5.256 202.518 5.368C202.63 5.48 202.686 5.624 202.686 5.8V21.424C202.686 21.6 202.63 21.744 202.518 21.856C202.406 21.952 202.262 22 202.086 22H200.07C199.91 22 199.774 21.944 199.662 21.832C199.55 21.72 199.494 21.584 199.494 21.424V11.032L196.134 17.44C195.926 17.792 195.654 17.968 195.318 17.968H194.334C193.998 17.968 193.726 17.792 193.518 17.44L190.158 11.032V21.424C190.158 21.584 190.102 21.72 189.99 21.832C189.894 21.944 189.758 22 189.582 22H187.566ZM212.899 22.24C210.691 22.24 208.979 21.672 207.763 20.536C206.563 19.4 205.923 17.8 205.843 15.736C205.827 15.304 205.819 14.6 205.819 13.624C205.819 12.632 205.827 11.912 205.843 11.464C205.923 9.416 206.571 7.824 207.787 6.688C209.019 5.536 210.723 4.96 212.899 4.96C214.323 4.96 215.563 5.208 216.619 5.704C217.675 6.184 218.491 6.848 219.067 7.696C219.643 8.528 219.947 9.472 219.979 10.528V10.576C219.979 10.704 219.923 10.816 219.811 10.912C219.715 10.992 219.603 11.032 219.475 11.032H217.195C217.003 11.032 216.859 10.992 216.763 10.912C216.667 10.832 216.587 10.68 216.523 10.456C216.267 9.448 215.843 8.744 215.251 8.344C214.659 7.928 213.867 7.72 212.875 7.72C210.571 7.72 209.371 9.008 209.275 11.584C209.259 12.016 209.251 12.68 209.251 13.576C209.251 14.472 209.259 15.152 209.275 15.616C209.371 18.192 210.571 19.48 212.875 19.48C213.867 19.48 214.659 19.272 215.251 18.856C215.859 18.44 216.283 17.736 216.523 16.744C216.571 16.52 216.643 16.368 216.739 16.288C216.851 16.208 217.003 16.168 217.195 16.168H219.475C219.619 16.168 219.739 16.216 219.835 16.312C219.947 16.408 219.995 16.528 219.979 16.672C219.947 17.728 219.643 18.68 219.067 19.528C218.491 20.36 217.675 21.024 216.619 21.52C215.563 22 214.323 22.24 212.899 22.24ZM221.606 22C221.478 22 221.358 21.952 221.246 21.856C221.15 21.76 221.102 21.64 221.102 21.496L221.15 21.28L226.934 5.8C227.046 5.4 227.326 5.2 227.774 5.2H230.39C230.806 5.2 231.086 5.4 231.23 5.8L237.014 21.28C237.03 21.328 237.038 21.4 237.038 21.496C237.038 21.64 236.99 21.76 236.894 21.856C236.798 21.952 236.686 22 236.558 22H234.47C234.262 22 234.102 21.952 233.99 21.856C233.878 21.76 233.806 21.656 233.774 21.544L232.646 18.616H225.518L224.39 21.544C224.262 21.848 224.03 22 223.694 22H221.606ZM231.806 15.856L229.07 8.44L226.358 15.856H231.806Z" fill="#313131"/>
<ellipse cx="3.70911" cy="9.50335" rx="3.70911" ry="2.91351" fill="#E5E5E5"/>
<ellipse cx="12.7716" cy="6.91351" rx="3.70911" ry="2.91351" fill="#E5E5E5"/>
<ellipse cx="21.8419" cy="9.82659" rx="3.70911" ry="2.9135" fill="#E5E5E5"/>
<ellipse cx="12.6836" cy="17.7584" rx="6.5" ry="5.34143" fill="#E5E5E5"/>
</svg>
