<svg width="173" height="57" viewBox="0 0 173 57" fill="none" xmlns="http://www.w3.org/2000/svg">
<path d="M54.2696 23.018C47.8498 18.5003 41.4301 13.9895 34.8713 9.5773C33.7319 8.82434 31.2446 8.44434 31.2446 8.44434C29.9865 8.6258 28.7647 9.0082 27.6248 9.5773C21.1008 13.9895 14.6811 18.5003 8.22657 23.018C6.77448 24.0032 7.01765 25.474 8.64344 26.1636C9.47928 26.4239 10.3594 26.5054 11.228 26.4029C11.9228 26.3677 12.298 26.5366 12.4369 27.3247C13.053 31.5938 13.6736 35.8677 14.2989 40.1462C14.5074 41.6873 14.7158 43.2566 14.959 44.8329C15.1828 45.8378 15.733 46.7376 16.5215 47.3883C17.3101 48.039 18.2914 48.4029 19.3083 48.4217C21.8929 48.5273 31.2446 48.5555 31.2446 48.5555C31.2446 48.5555 40.6033 48.5555 43.1879 48.4217C44.2031 48.3968 45.1814 48.0307 45.9688 47.381C46.7561 46.7313 47.3078 45.8349 47.5372 44.8329C47.8151 43.2917 47.9888 41.7225 48.1903 40.1462C48.8156 35.8747 49.4687 31.5962 50.0592 27.3247C50.1982 26.5014 50.5386 26.3677 51.2681 26.4029C52.1367 26.5054 53.0169 26.4239 53.8527 26.1636C55.4785 25.474 55.7147 24.0032 54.2696 23.018Z" fill="#F05754"/>
<path d="M31.2442 32.7291C31.8396 32.7601 32.4305 32.6095 32.9405 32.2968C33.4505 31.9842 33.8562 31.5238 34.1052 30.9752C34.3542 30.4266 34.4351 29.815 34.3374 29.2193C34.2396 28.6237 33.9678 28.0714 33.557 27.6339C33.1462 27.1963 32.6153 26.8936 32.0329 26.7648C31.4504 26.636 30.8432 26.6871 30.2898 26.9114C29.7363 27.1357 29.2619 27.523 28.928 28.0232C28.594 28.5233 28.4159 29.1135 28.4165 29.7173C28.4044 30.1037 28.4683 30.4887 28.6043 30.85C28.7404 31.2112 28.9459 31.5415 29.2089 31.8217C29.472 32.1019 29.7874 32.3264 30.1367 32.4821C30.4861 32.6379 30.8626 32.7219 31.2442 32.7291Z" fill="white"/>
<path d="M23.9632 36.3179C24.5567 36.3475 25.1453 36.1962 25.6531 35.8837C26.1609 35.5713 26.5647 35.1118 26.8123 34.5647C27.0599 34.0177 27.14 33.408 27.0423 32.8143C26.9445 32.2207 26.6735 31.6703 26.264 31.2342C25.8545 30.7981 25.3255 30.4962 24.745 30.3675C24.1645 30.2388 23.5593 30.2892 23.0074 30.5122C22.4555 30.7351 21.9822 31.1205 21.6485 31.6185C21.3149 32.1164 21.1362 32.7043 21.1354 33.3061C21.1225 33.6928 21.1857 34.0782 21.3214 34.4399C21.4571 34.8015 21.6625 35.1322 21.9258 35.4126C22.189 35.6929 22.5048 35.9174 22.8546 36.0729C23.2044 36.2283 23.5813 36.3116 23.9632 36.3179Z" fill="white"/>
<path d="M38.421 36.3179C39.0145 36.3475 39.6031 36.1962 40.1109 35.8837C40.6187 35.5713 41.0225 35.1118 41.2701 34.5647C41.5177 34.0177 41.5978 33.408 41.5 32.8143C41.4023 32.2207 41.1312 31.6703 40.7218 31.2342C40.3123 30.7981 39.7832 30.4962 39.2028 30.3675C38.6223 30.2388 38.0171 30.2892 37.4652 30.5122C36.9133 30.7351 36.44 31.1205 36.1063 31.6185C35.7727 32.1164 35.5939 32.7043 35.5932 33.3061C35.5812 33.6925 35.6451 34.0775 35.7811 34.4388C35.9171 34.8 36.1226 35.1303 36.3857 35.4105C36.6487 35.6907 36.9641 35.9152 37.3135 36.071C37.6629 36.2267 38.0393 36.3107 38.421 36.3179Z" fill="white"/>
<path d="M31.078 46.9513C34.3505 46.9513 37.0115 44.4531 37.0115 41.4131C37.0115 38.3731 34.3505 35.875 31.078 35.875C27.8056 35.875 25.1377 38.3661 25.1377 41.4131C25.1377 44.4602 27.7709 46.9513 31.078 46.9513Z" fill="white"/>
<path d="M69.4571 27.7402C68.3939 27.7663 67.3375 27.5624 66.3584 27.142C65.4988 26.7422 64.7863 26.0771 64.3227 25.242C63.8159 24.2253 63.5766 23.0934 63.6279 21.9557V13.5113C63.6255 13.4423 63.6372 13.3735 63.6623 13.3093C63.6874 13.2451 63.7254 13.1869 63.7738 13.1383C63.8189 13.0912 63.8729 13.0538 63.9326 13.0284C63.9923 13.003 64.0564 12.9901 64.1212 12.9905H65.9832C66.0494 12.9869 66.1156 12.9982 66.1769 13.0238C66.2382 13.0493 66.2931 13.0885 66.3375 13.1383C66.3851 13.1872 66.422 13.2457 66.4459 13.3099C66.4699 13.3742 66.4803 13.4427 66.4765 13.5113V21.9557C66.4054 22.8768 66.6949 23.7893 67.2824 24.4961C67.5726 24.7722 67.9147 24.9861 68.2883 25.1252C68.662 25.2642 69.0595 25.3255 69.4571 25.3053C69.8561 25.3298 70.2559 25.2706 70.6313 25.1313C71.0067 24.9921 71.3496 24.7758 71.6387 24.4961C72.2237 23.7883 72.5107 22.8759 72.4377 21.9557V13.5113C72.4352 13.4423 72.4469 13.3735 72.4721 13.3093C72.4972 13.2451 72.5352 13.1869 72.5836 13.1383C72.6318 13.0896 72.6893 13.0514 72.7527 13.0259C72.816 13.0005 72.8838 12.9885 72.9518 12.9905H74.7999C74.8662 12.9869 74.9323 12.9982 74.9936 13.0238C75.0549 13.0493 75.1098 13.0885 75.1543 13.1383C75.2018 13.1872 75.2388 13.2457 75.2627 13.3099C75.2866 13.3742 75.297 13.4427 75.2932 13.5113V21.9557C75.3445 23.0934 75.1052 24.2253 74.5985 25.242C74.1449 26.0774 73.4387 26.7434 72.5836 27.142C71.5967 27.5689 70.5298 27.773 69.4571 27.7402ZM78.8713 27.5361C78.8064 27.5378 78.7419 27.5255 78.682 27.5C78.6221 27.4745 78.5682 27.4365 78.524 27.3883C78.4774 27.3427 78.4405 27.288 78.4155 27.2275C78.3904 27.167 78.3777 27.1021 78.3781 27.0365V13.4831C78.3756 13.4141 78.3873 13.3454 78.4124 13.2812C78.4375 13.217 78.4755 13.1588 78.524 13.1102C78.5682 13.062 78.6221 13.0239 78.682 12.9985C78.7419 12.973 78.8064 12.9607 78.8713 12.9624H83.8876C85.058 12.921 86.2229 13.1421 87.299 13.6098C88.1648 14.007 88.8793 14.6789 89.3347 15.5239C89.819 16.4831 90.0579 17.5502 90.0295 18.6272C90.0295 19.2324 90.0712 19.7742 90.0712 20.2457C90.0712 20.7172 90.0712 21.252 90.0295 21.8502C90.0437 22.9596 89.806 24.0575 89.3347 25.0591C88.8952 25.8912 88.1932 26.5502 87.3407 26.9309C86.2693 27.3696 85.119 27.5758 83.9641 27.5361H78.8713ZM81.2336 25.1435H83.8876C84.5273 25.1674 85.1646 25.0522 85.7566 24.8057C86.2232 24.5938 86.5965 24.2157 86.8057 23.7431C87.0604 23.1237 87.1858 22.4577 87.174 21.7868C87.174 21.3716 87.174 21.0128 87.174 20.7031C87.174 20.3935 87.174 20.0768 87.174 19.7672C87.174 19.4576 87.174 19.0635 87.174 18.6905C87.237 18.2288 87.1919 17.7586 87.0423 17.3178C86.8926 16.877 86.6426 16.4781 86.3125 16.1533C85.9824 15.8286 85.5814 15.5871 85.1421 15.4484C84.7027 15.3097 84.2373 15.2777 83.7834 15.355H81.2683L81.2336 25.1435ZM98.3599 27.7402C97.2807 27.7696 96.2078 27.5657 95.2126 27.142C94.3407 26.7419 93.6126 26.0782 93.1282 25.242C92.6039 24.2583 92.3293 23.158 92.3292 22.0402C92.3292 21.4444 92.3292 20.8533 92.3292 20.2668C92.3292 19.6898 92.3292 19.0916 92.3292 18.4794C92.3298 17.3701 92.6122 16.2796 93.1491 15.3128C93.6425 14.4807 94.3676 13.8148 95.2334 13.3987C96.2132 12.9714 97.2688 12.751 98.3356 12.751C99.4024 12.751 100.458 12.9714 101.438 13.3987C102.304 13.8148 103.029 14.4807 103.522 15.3128C104.059 16.2796 104.341 17.3701 104.342 18.4794C104.342 19.0916 104.384 19.6898 104.384 20.2668C104.384 20.8439 104.384 21.442 104.342 22.0402C104.342 23.158 104.067 24.2583 103.543 25.242C103.06 26.0791 102.331 26.7431 101.459 27.142C100.478 27.5591 99.4228 27.7629 98.3599 27.7402ZM98.3599 25.3476C99.1584 25.3815 99.9386 25.0988 100.535 24.5594C101.164 23.8385 101.489 22.8957 101.438 21.9346C101.466 21.32 101.479 20.7571 101.479 20.2457C101.479 19.718 101.479 19.162 101.438 18.5639C101.443 17.8847 101.288 17.2139 100.986 16.6076C100.76 16.1294 100.384 15.7408 99.9162 15.5028C99.4334 15.2589 98.8992 15.1382 98.3599 15.1509C97.8251 15.1387 97.2955 15.2596 96.8175 15.5028C96.3466 15.7434 95.9643 16.1306 95.7267 16.6076C95.4387 17.2182 95.2914 17.8872 95.2959 18.5639C95.2959 19.162 95.2959 19.718 95.2959 20.2457C95.2959 20.7735 95.2959 21.3224 95.2959 21.9346C95.2452 22.8957 95.5696 23.8385 96.1991 24.5594C96.7858 25.1081 97.5618 25.4013 98.3599 25.3757V25.3476ZM107.67 27.5361C107.601 27.5387 107.532 27.5269 107.467 27.5015C107.403 27.4761 107.344 27.4376 107.295 27.3883C107.205 27.2937 107.155 27.1675 107.156 27.0365V13.4831C107.154 13.4148 107.165 13.3466 107.189 13.2827C107.213 13.2187 107.249 13.1601 107.295 13.1102C107.344 13.0609 107.403 13.0224 107.467 12.997C107.532 12.9716 107.601 12.9598 107.67 12.9624H109.289C109.369 12.9556 109.449 12.9673 109.523 12.9966C109.598 13.0259 109.665 13.0719 109.72 13.1313C109.792 13.1971 109.855 13.2729 109.907 13.3565L113.874 20.8509L117.883 13.3565C117.934 13.2743 117.995 13.1987 118.064 13.1313C118.12 13.0722 118.188 13.0264 118.264 12.9972C118.34 12.968 118.421 12.9561 118.502 12.9624H120.1C120.169 12.9598 120.238 12.9716 120.302 12.997C120.367 13.0224 120.425 13.0609 120.475 13.1102C120.521 13.1601 120.557 13.2187 120.581 13.2827C120.605 13.3466 120.616 13.4148 120.614 13.4831V27.0365C120.614 27.1675 120.564 27.2937 120.475 27.3883C120.425 27.4376 120.367 27.4761 120.302 27.5015C120.238 27.5269 120.169 27.5387 120.1 27.5361H118.376C118.308 27.5395 118.24 27.528 118.177 27.5025C118.113 27.477 118.056 27.4381 118.008 27.3883C117.926 27.2904 117.881 27.1653 117.883 27.0365V18.022L115.007 23.5813C114.935 23.7055 114.843 23.8172 114.736 23.912C114.61 24.0013 114.459 24.0459 114.305 24.0387H113.464C113.304 24.0507 113.144 24.0059 113.013 23.912C112.916 23.8129 112.832 23.7018 112.763 23.5813L109.886 18.022V27.0365C109.887 27.1021 109.874 27.167 109.849 27.2275C109.824 27.288 109.787 27.3427 109.74 27.3883C109.696 27.4365 109.642 27.4745 109.582 27.5C109.522 27.5255 109.458 27.5378 109.393 27.5361H107.67ZM124.303 27.5361C124.173 27.5343 124.048 27.4811 123.956 27.3877C123.864 27.2944 123.811 27.1684 123.81 27.0365V13.462C123.808 13.3963 123.821 13.3311 123.846 13.2705C123.871 13.2099 123.908 13.1553 123.956 13.1102C124.001 13.0631 124.055 13.0257 124.114 13.0003C124.174 12.9749 124.238 12.962 124.303 12.9624H126.234C126.301 12.9587 126.367 12.9701 126.428 12.9956C126.489 13.0212 126.544 13.0603 126.589 13.1102C126.634 13.1566 126.669 13.2116 126.693 13.272C126.717 13.3324 126.729 13.397 126.728 13.462V27.0365C126.728 27.1675 126.678 27.2937 126.589 27.3883C126.544 27.4381 126.489 27.4773 126.428 27.5028C126.367 27.5284 126.301 27.5398 126.234 27.5361H124.303ZM64.2532 48.3516C64.1229 48.3498 63.9985 48.2966 63.9064 48.2033C63.8143 48.11 63.7617 47.984 63.7599 47.852V34.2776C63.7617 34.1456 63.8143 34.0196 63.9064 33.9263C63.9985 33.833 64.1229 33.7798 64.2532 33.7779H66.1638C66.2288 33.7763 66.2933 33.7886 66.3532 33.814C66.4131 33.8395 66.467 33.8776 66.5112 33.9257C66.5584 33.9708 66.5958 34.0254 66.6209 34.086C66.646 34.1466 66.6584 34.2119 66.6571 34.2776V45.8746H73.1742C73.2423 45.8721 73.3102 45.884 73.3736 45.9094C73.4369 45.9349 73.4944 45.9733 73.5424 46.0224C73.5915 46.0704 73.63 46.1286 73.6552 46.1929C73.6803 46.2572 73.6916 46.3262 73.6883 46.3954V47.852C73.6895 47.9177 73.6772 47.983 73.6521 48.0436C73.6269 48.1042 73.5896 48.1588 73.5424 48.2039C73.4944 48.2529 73.4369 48.2914 73.3736 48.3168C73.3102 48.3423 73.2423 48.3541 73.1742 48.3516H64.2532ZM80.3304 48.5557C79.6155 48.5619 78.9029 48.4719 78.2113 48.2883C77.5751 48.1043 76.9754 47.809 76.4396 47.4157C75.9291 47.0415 75.5029 46.5618 75.189 46.0083C74.876 45.3825 74.7141 44.6903 74.7166 43.9887C74.715 43.93 74.7252 43.8717 74.7467 43.8172C74.7682 43.7628 74.8005 43.7134 74.8416 43.672C74.8793 43.6273 74.9262 43.5915 74.979 43.5672C75.0319 43.5429 75.0893 43.5306 75.1473 43.5313H77.0997C77.1707 43.5253 77.2421 43.5348 77.3092 43.5591C77.3763 43.5833 77.4375 43.6219 77.4887 43.672C77.5949 43.7858 77.6735 43.9232 77.718 44.0731C77.7634 44.517 77.9267 44.9401 78.1905 45.2976C78.4352 45.6071 78.753 45.8492 79.1145 46.0013C79.5241 46.1407 79.9539 46.2097 80.386 46.2054C80.7578 46.2306 81.1303 46.1667 81.4731 46.0187C81.816 45.8708 82.1195 45.643 82.3591 45.3539C82.8593 44.6709 83.1053 43.8311 83.0539 42.9824V36.2761H76.1061C76.0386 36.2783 75.9714 36.267 75.9082 36.2428C75.845 36.2187 75.7871 36.1822 75.7379 36.1353C75.6542 36.0353 75.6097 35.9076 75.6128 35.7765V34.3198C75.6094 34.1908 75.6541 34.0652 75.7379 33.968C75.7859 33.9189 75.8433 33.8804 75.9067 33.855C75.9701 33.8295 76.038 33.8177 76.1061 33.8202H85.437C85.5052 33.8168 85.5734 33.8282 85.6369 33.8537C85.7004 33.8792 85.7578 33.9182 85.8052 33.968C85.8537 34.0165 85.8917 34.0748 85.9168 34.139C85.9419 34.2031 85.9536 34.2719 85.9511 34.3409V43.0668C85.9885 44.1043 85.7484 45.1328 85.2564 46.0435C84.8018 46.8665 84.1146 47.5331 83.2832 47.9576C82.3482 48.3939 81.3242 48.5989 80.2957 48.5557H80.3304ZM94.8235 48.5557C93.7581 48.582 92.6994 48.3781 91.7178 47.9576C90.8619 47.5583 90.152 46.896 89.6891 46.0646C89.1799 45.0462 88.9405 43.9115 88.9943 42.7713V34.3268C88.9918 34.2578 89.0035 34.1891 89.0286 34.1249C89.0538 34.0607 89.0917 34.0025 89.1402 33.9539C89.1844 33.9057 89.2383 33.8677 89.2982 33.8422C89.3581 33.8167 89.4226 33.8044 89.4876 33.8061H91.3565C91.4218 33.8014 91.4873 33.8123 91.5476 33.838C91.608 33.8636 91.6615 33.9033 91.7039 33.9539C91.7524 34.0025 91.7903 34.0607 91.8155 34.1249C91.8406 34.1891 91.8523 34.2578 91.8498 34.3268V42.7713C91.7787 43.6924 92.0682 44.6049 92.6558 45.3117C92.9481 45.5907 93.2936 45.8064 93.6711 45.9456C94.0486 46.0847 94.4502 46.1444 94.8513 46.1209C95.2503 46.1454 95.6501 46.0861 96.0255 45.9469C96.4009 45.8076 96.7438 45.5914 97.0329 45.3117C97.6179 44.6038 97.9049 43.6914 97.8319 42.7713V34.3268C97.8294 34.2578 97.8411 34.1891 97.8662 34.1249C97.8913 34.0607 97.9293 34.0025 97.9778 33.9539C98.0252 33.9041 98.0826 33.8652 98.1461 33.8397C98.2096 33.8142 98.2778 33.8027 98.346 33.8061H100.194C100.259 33.8014 100.325 33.8123 100.385 33.838C100.446 33.8636 100.499 33.9033 100.542 33.9539C100.59 34.0025 100.628 34.0607 100.653 34.1249C100.678 34.1891 100.69 34.2578 100.687 34.3268V42.7713C100.738 43.9112 100.499 45.0451 99.9926 46.0646C99.5387 46.898 98.8323 47.5616 97.9778 47.9576C96.9713 48.3927 95.8823 48.597 94.7887 48.5557H94.8235ZM104.238 48.3516C104.172 48.353 104.106 48.3406 104.045 48.3152C103.984 48.2898 103.929 48.2519 103.883 48.2039C103.837 48.1584 103.801 48.1036 103.777 48.0429C103.753 47.9823 103.742 47.9173 103.744 47.852V34.2987C103.741 34.2311 103.751 34.1634 103.774 34.0999C103.797 34.0363 103.833 33.9783 103.879 33.9294C103.925 33.8806 103.981 33.8419 104.043 33.8158C104.105 33.7898 104.171 33.7769 104.238 33.7779H110.192C111.125 33.7441 112.053 33.922 112.909 34.2987C113.556 34.5917 114.096 35.0842 114.451 35.7061C114.807 36.3501 114.984 37.0795 114.965 37.8172C114.977 38.3029 114.877 38.7848 114.673 39.2246C114.512 39.59 114.275 39.9163 113.979 40.1816C113.747 40.4143 113.482 40.6111 113.193 40.7657C113.756 41.0546 114.234 41.4862 114.583 42.0183C115.011 42.6347 115.229 43.3762 115.201 44.1294C115.217 44.9078 115.025 45.6759 114.646 46.3531C114.263 47.0207 113.692 47.5573 113.006 47.8942C112.159 48.2793 111.238 48.4645 110.31 48.4361L104.238 48.3516ZM106.6 46.142H110.032C110.338 46.1647 110.645 46.1234 110.934 46.0204C111.224 45.9175 111.489 45.7553 111.714 45.5439C112.09 45.1389 112.297 44.6014 112.29 44.045C112.3 43.7635 112.252 43.4831 112.149 43.2214C112.046 42.9598 111.891 42.7226 111.693 42.525C111.473 42.3125 111.212 42.149 110.926 42.0447C110.64 41.9405 110.335 41.898 110.032 41.9198H106.6V46.142ZM106.6 39.7524H109.824C110.412 39.803 110.997 39.6158 111.45 39.2317C111.635 39.0501 111.78 38.8308 111.876 38.5882C111.972 38.3457 112.016 38.0853 112.005 37.8242C112.024 37.5624 111.983 37.2997 111.887 37.0559C111.791 36.8122 111.641 36.5937 111.45 36.4168C110.99 36.0462 110.409 35.8675 109.824 35.9172H106.6V39.7524ZM118.321 48.3516C118.256 48.3521 118.192 48.3392 118.132 48.3138C118.073 48.2884 118.019 48.251 117.974 48.2039C117.926 48.1588 117.889 48.1042 117.864 48.0436C117.839 47.983 117.826 47.9177 117.828 47.852V34.2776C117.826 34.2119 117.839 34.1466 117.864 34.086C117.889 34.0254 117.926 33.9708 117.974 33.9257C118.019 33.8786 118.073 33.8412 118.132 33.8158C118.192 33.7904 118.256 33.7775 118.321 33.7779H120.259C120.324 33.7748 120.389 33.7865 120.45 33.812C120.51 33.8376 120.563 33.8764 120.607 33.9257C120.654 33.9708 120.691 34.0254 120.716 34.086C120.742 34.1466 120.754 34.2119 120.753 34.2776V47.852C120.754 47.9177 120.742 47.983 120.716 48.0436C120.691 48.1042 120.654 48.1588 120.607 48.2039C120.563 48.2532 120.51 48.292 120.45 48.3176C120.389 48.3431 120.324 48.3548 120.259 48.3516H118.321ZM124.484 48.3516C124.416 48.3537 124.348 48.3417 124.284 48.3162C124.221 48.2908 124.164 48.2526 124.115 48.2039C124.068 48.1588 124.031 48.1042 124.006 48.0436C123.981 47.983 123.968 47.9177 123.969 47.852V34.2987C123.967 34.2297 123.979 34.1609 124.004 34.0967C124.029 34.0325 124.067 33.9743 124.115 33.9257C124.164 33.877 124.221 33.8388 124.284 33.8134C124.348 33.7879 124.416 33.7759 124.484 33.7779H126.109C126.189 33.7717 126.269 33.7837 126.344 33.8129C126.418 33.8421 126.485 33.8879 126.54 33.9468C126.611 34.0142 126.674 34.0898 126.728 34.172L130.695 41.6665L134.704 34.172C134.754 34.0895 134.815 34.0138 134.884 33.9468C134.94 33.8883 135.007 33.8428 135.081 33.8136C135.156 33.7844 135.236 33.7722 135.315 33.7779H136.92C136.988 33.7746 137.057 33.786 137.12 33.8115C137.184 33.837 137.241 33.8759 137.288 33.9257C137.337 33.9743 137.375 34.0325 137.4 34.0967C137.425 34.1609 137.437 34.2297 137.434 34.2987V47.852C137.436 47.9177 137.423 47.983 137.398 48.0436C137.373 48.1042 137.336 48.1588 137.288 48.2039C137.241 48.2537 137.184 48.2926 137.12 48.3181C137.057 48.3436 136.988 48.355 136.92 48.3516H135.197C135.128 48.3543 135.059 48.3425 134.994 48.3171C134.93 48.2917 134.871 48.2531 134.822 48.2039C134.743 48.1041 134.702 47.9797 134.704 47.852V38.8376L131.82 44.3968C131.755 44.5237 131.665 44.6361 131.556 44.7276C131.431 44.8169 131.279 44.8614 131.126 44.8542H130.25C130.09 44.8663 129.93 44.8215 129.799 44.7276C129.7 44.6299 129.616 44.5185 129.549 44.3968L126.672 38.8376V47.852C126.67 47.984 126.618 48.11 126.526 48.2033C126.434 48.2966 126.309 48.3498 126.179 48.3516H124.484ZM146.182 48.5557C145.064 48.5897 143.954 48.3634 142.937 47.8942C142.09 47.4671 141.388 46.7932 140.922 45.9591C140.432 45.0206 140.164 43.9802 140.137 42.9191C140.137 42.3491 140.137 41.7368 140.137 41.0894C140.137 40.442 140.137 39.8087 140.137 39.2105C140.165 38.1564 140.434 37.1232 140.922 36.1916C141.391 35.3549 142.098 34.6806 142.951 34.2565C143.958 33.7673 145.065 33.5262 146.182 33.5528C147.032 33.5384 147.879 33.6644 148.69 33.9257C149.379 34.1477 150.021 34.5012 150.58 34.9672C151.087 35.3789 151.499 35.8976 151.788 36.4872C152.082 37.0746 152.238 37.722 152.247 38.3802C152.253 38.4382 152.245 38.4969 152.223 38.551C152.201 38.6051 152.166 38.6528 152.122 38.6898C152.081 38.7314 152.032 38.7641 151.979 38.7859C151.925 38.8077 151.867 38.8181 151.809 38.8165H149.857C149.726 38.8211 149.598 38.7842 149.489 38.7109C149.381 38.605 149.311 38.4668 149.287 38.3168C149.229 37.9447 149.099 37.5879 148.905 37.2666C148.711 36.9454 148.456 36.6662 148.155 36.445C147.55 36.0917 146.859 35.9185 146.161 35.9454C145.353 35.904 144.561 36.1872 143.958 36.7335C143.342 37.4359 143.025 38.3567 143.076 39.295C143.034 40.435 143.034 41.5961 143.076 42.8135C143.028 43.7577 143.345 44.6837 143.958 45.3961C144.567 45.9302 145.356 46.205 146.161 46.1631C146.859 46.19 147.55 46.0168 148.155 45.6635C148.458 45.4442 148.714 45.1656 148.909 44.844C149.103 44.5225 149.232 44.1646 149.287 43.7917C149.303 43.6394 149.375 43.4988 149.489 43.3976C149.598 43.3243 149.726 43.2874 149.857 43.292H151.809C151.867 43.2904 151.925 43.3008 151.979 43.3226C152.032 43.3443 152.081 43.3771 152.122 43.4187C152.166 43.4557 152.201 43.5034 152.223 43.5575C152.245 43.6115 152.253 43.6703 152.247 43.7283C152.239 44.3865 152.082 45.0342 151.788 45.6213C151.496 46.2148 151.084 46.7398 150.58 47.1624C150.016 47.6163 149.376 47.9621 148.69 48.1828C147.868 48.4479 147.009 48.5739 146.147 48.5557H146.182ZM153.637 48.3516C153.522 48.3507 153.413 48.3054 153.331 48.225C153.29 48.185 153.258 48.1368 153.236 48.0835C153.215 48.0302 153.204 47.9729 153.206 47.9154C153.208 47.8499 153.222 47.7855 153.247 47.7254L158.201 34.2987C158.242 34.1452 158.333 34.0101 158.459 33.9156C158.585 33.821 158.739 33.7725 158.896 33.7779H161.14C161.226 33.7724 161.312 33.7845 161.393 33.8136C161.475 33.8426 161.549 33.8879 161.613 33.9468C161.721 34.0422 161.804 34.163 161.856 34.2987L166.81 47.7254C166.816 47.7885 166.816 47.8522 166.81 47.9154C166.811 47.9729 166.801 48.0302 166.779 48.0835C166.758 48.1368 166.725 48.185 166.684 48.225C166.648 48.2652 166.604 48.2972 166.555 48.319C166.506 48.3408 166.453 48.3519 166.4 48.3516H164.642C164.486 48.3604 164.332 48.3158 164.204 48.225C164.136 48.1456 164.082 48.0552 164.044 47.9576L163.079 45.4172H156.971L156.006 47.9576C155.964 48.0584 155.903 48.1495 155.825 48.225C155.708 48.3207 155.558 48.3662 155.408 48.3516H153.637ZM157.708 43.0246H162.37L160.028 36.5928L157.708 43.0246Z" fill="#F05653"/>
</svg>
