<svg xmlns="http://www.w3.org/2000/svg" width="237" height="256" viewBox="0 0 237 256" fill="none">
<path d="M119.42 69.5857L73.8892 124.735C72.3981 126.571 72.7102 129.241 74.6175 130.71C75.415 131.311 76.386 131.612 77.3569 131.612C78.64 131.612 79.923 131.077 80.7899 130.009L126.321 74.8602C127.846 73.0241 127.5 70.3535 125.592 68.918C123.685 67.4825 120.911 67.7496 119.42 69.5857Z" fill="#F75451"/>
<path d="M129.414 119.919L77.3372 69.419C75.604 67.7274 72.9161 67.9177 71.326 69.7955C70.6744 70.5816 70.3114 71.5657 70.2482 72.5687C70.1647 73.8941 70.6476 75.2551 71.624 76.2157L123.701 126.716C125.434 128.407 128.122 128.217 129.712 126.339C131.267 124.495 131.147 121.61 129.414 119.919Z" fill="#F75451"/>
<path d="M101 186C148.496 186 187 147.72 187 100.5C187 53.2797 148.496 15 101 15C53.5035 15 15 53.2797 15 100.5C15 147.72 53.5035 186 101 186Z" stroke="#B9B9B9" stroke-width="30" stroke-linecap="round" stroke-linejoin="round"/>
<path d="M222 241L156.641 166.383" stroke="#B9B9B9" stroke-width="30" stroke-linecap="round" stroke-linejoin="round"/>
<path d="M225.687 222.559L202.254 241.701L207.15 247.179L230.583 228.036L229.998 227.404L225.687 222.559Z" fill="#F75451"/>
</svg>
