<svg width="329" height="240" viewBox="0 0 329 240" fill="none" xmlns="http://www.w3.org/2000/svg">
<rect x="1.64258" y="1" width="326" height="238" fill="#EEEEEE"/>
<path d="M170.382 103L171.248 102.5L170.382 101L169.516 102.5L170.382 103ZM183.578 125.857V126.857H185.31L184.444 125.357L183.578 125.857ZM157.185 125.857L156.319 125.357L155.453 126.857H157.185V125.857ZM169.516 103.5L182.712 126.357L184.444 125.357L171.248 102.5L169.516 103.5ZM163.866 116.286L171.248 103.5L169.516 102.5L162.134 115.286L163.866 116.286ZM157.071 115.13C159.054 115.13 160.904 115.682 162.48 116.641L163.519 114.932C161.639 113.788 159.43 113.13 157.071 113.13V115.13ZM146.643 125.559C146.643 119.799 151.312 115.13 157.071 115.13V113.13C150.207 113.13 144.643 118.695 144.643 125.559H146.643ZM157.071 135.987C151.312 135.987 146.643 131.318 146.643 125.559H144.643C144.643 132.423 150.207 137.987 157.071 137.987V135.987ZM167.496 125.832C167.352 131.465 162.74 135.987 157.071 135.987V137.987C163.827 137.987 169.324 132.598 169.496 125.883L167.496 125.832ZM183.578 124.857H168.496V126.857H183.578V124.857ZM168.496 124.857H157.185V126.857H168.496V124.857ZM158.051 126.357L163.866 116.286L162.134 115.286L156.319 125.357L158.051 126.357ZM162.48 116.641C165.492 118.472 167.5 121.781 167.5 125.559H169.5C169.5 121.054 167.103 117.11 163.519 114.932L162.48 116.641ZM167.5 125.559C167.5 125.65 167.499 125.741 167.496 125.832L169.496 125.883C169.498 125.775 169.5 125.667 169.5 125.559H167.5Z" fill="#AAAAAA"/>
<rect x="1.64258" y="1" width="326" height="238" stroke="#AAAAAA" stroke-width="2"/>
</svg>
